<svg width="253" height="82" fill="none" xmlns="http://www.w3.org/2000/svg"><path opacity=".5" d="M212.424 32.942c22.092 0 40-4.902 40-10.95 0-6.047-17.908-10.949-40-10.949-22.091 0-40 4.902-40 10.95 0 6.047 17.909 10.949 40 10.949Z" fill="url(#a)"/><path d="M212.76 31.559c-10.21 0-21.07-2.206-21.07-6.28 0-4.084 10.86-6.29 21.07-6.29 10.22 0 21.08 2.206 21.08 6.29 0 4.074-10.86 6.28-21.08 6.28Zm0-11.175c-12.21 0-19.71 2.853-19.71 4.895 0 2.032 7.5 4.884 19.71 4.884s19.72-2.852 19.72-4.884c0-2.042-7.5-4.895-19.72-4.895ZM68.25 55.469c-8.78 0-18.12-1.899-18.12-5.408 0-3.51 9.34-5.398 18.12-5.398 8.79 0 18.13 1.888 18.13 5.398s-9.34 5.408-18.13 5.408Zm0-9.605c-10.5 0-16.95 2.442-16.95 4.197s6.45 4.207 16.95 4.207c10.51 0 16.96-2.452 16.96-4.207s-6.45-4.197-16.96-4.197Zm-8.79-21.827c-11.95 0-24.65-2.576-24.65-7.348 0-4.771 12.7-7.347 24.65-7.347s24.65 2.575 24.65 7.347-12.7 7.348-24.65 7.348Zm0-13.064c-14.29 0-23.06 3.325-23.06 5.716s8.77 5.716 23.06 5.716c14.28 0 23.06-3.325 23.06-5.716 0-2.39-8.78-5.716-23.06-5.716Z" fill="#001D4D"/><path d="M111.59 37.419s-7.71 1.909-16.21 5.13l-7.54 9.852 18.51-3.048 5.24-11.934Z" fill="url(#b)"/><path d="m73.628 62.673 19.33 3.78-.714-13.1-13.95.955-4.666 8.365Zm.212-8.282c0 2.566-2.04 4.66-4.54 4.66-2.51 0-4.54-2.094-4.54-4.66 0-2.575 2.03-4.659 4.54-4.659 2.5 0 4.54 2.084 4.54 4.66Z" fill="#001D4D"/><path d="M64.81 64.93s-4.13-1.385-5.43-10.261c0 0 9.51-2.966 18.91-.36 0 0 .97 6.117-2.92 9.985 0 .01-5.14 2.545-10.56.636Z" fill="url(#c)"/><path d="M64.81 64.93c-2.04-1.59 10.53-2.638 10.56-.637.02 1.355-8.52 2.227-10.56.637Zm37.6-15.392s5.64-7.717 9.18-12.12c0 0 24.35-5.09 44.72 4.197l4.68 9.061c0 .01-23.37-2.975-58.58-1.139Z" fill="#001D4D"/><path d="M124.5 55.56c21.622 0 39.15-2.187 39.15-4.884 0-2.698-17.528-4.885-39.15-4.885s-39.15 2.187-39.15 4.885c0 2.697 17.528 4.884 39.15 4.884Z" fill="url(#d)"/><path d="M85.35 50.686s-5.62 4.895-11.73 17.907l98.23-.882s-2.19-9.82-8.21-17.025c0 0-46.42-9.245-78.29 0Z" fill="url(#e)"/><path d="M122.93 76.557c27.018 0 48.92-3.565 48.92-7.963s-21.902-7.963-48.92-7.963-48.92 3.565-48.92 7.963 21.902 7.963 48.92 7.963Z" fill="#001D4D"/><path d="M79.18 65.032s4.49 5.583 13.77 11.535l18.62-1.704s-6.96-7.245-10.6-13.391c.01 0-13.21.236-21.79 3.56Z" fill="url(#f)"/><path d="M111.57 74.863s25.77 4.3 42.39 4.885l-6.99 1.97s-28.72 0-54.02-5.162l18.62-1.693Z" fill="#001D4D"/><path d="m158.44 74.073-4.48 5.675s-29.06-.934-42.39-4.885c0 0-7.87-8.168-10.6-13.391l57.47 12.601Z" fill="#000E3C"/><path d="M219 34.072c0 3.181-2.52 5.767-5.62 5.767s-5.63-2.575-5.63-5.767c0-3.191 2.52-5.777 5.63-5.777S219 30.88 219 34.072Z" fill="#001D4D"/><path d="M158.44 48.254s-3.09 7.656 3.35 15.506l48.81-18.718-.78-7.942-51.38 11.154Z" fill="#001D4D"/><path d="M207.81 47.136s-5.11-1.724-6.72-12.724c0 0 11.78-3.664 23.43-.441 0 0 1.2 7.583-3.62 12.386 0-.01-6.36 3.15-13.09.78Z" fill="url(#g)"/><path d="M207.81 47.135c-2.52-1.97 13.06-3.263 13.09-.78.02 1.663-10.56 2.75-13.09.78Zm-118.2 15.6-32.4-26.188 2.64-9.349 36.61 20.093s4.72 10.447-6.85 15.444Z" fill="#001D4D"/><path d="M59.46 31.712c3.927 0 7.11-3.266 7.11-7.296s-3.183-7.296-7.11-7.296c-3.927 0-7.11 3.267-7.11 7.296 0 4.03 3.183 7.296 7.11 7.296Z" fill="#001D4D"/><path d="M52.42 40.917s-6.46-2.175-8.49-16.07c0 0 14.89-4.638 29.6-.554 0 0 1.52 9.575-4.57 15.64 0 0-8.04 3.98-16.54.984Z" fill="url(#h)"/><path d="M52.42 40.917c-3.19-2.483 16.5-4.125 16.54-.985.03 2.103-13.34 3.478-16.54.985Zm106.02 7.337s-25.28-5.285-57.46 13.218l7.96 2.288s23.07-12.099 49.5-13.987v-1.519Z" fill="#001D4D"/><path d="M60.83 30.779c0 2.894-2.29 5.244-5.12 5.244s-5.11-2.35-5.11-5.244c0-2.894 2.29-5.244 5.11-5.244 2.82 0 5.12 2.35 5.12 5.244Zm162.6 9.276c-.44 2.863-1.93 4.998-3.32 4.772-1.39-.226-2.17-2.73-1.73-5.593.43-2.852 1.92-4.997 3.31-4.771 1.4.225 2.17 2.73 1.74 5.592Z" fill="#AEFFDB"/><path d="M99.72 74.166c-.09.02-.19.04-.28.051-5.96 1.231-17.2-6.178-14.09-8.425 3.85-2.791 8.62-3.099 11.44-2.904.96.072 1.69.195 2.1.308 1.59.43 6.69 9.461.83 10.97Z" fill="#66E2DB"/><path d="M99.72 74.165c-.09.021-.19.041-.28.052-6.03-.924-13.71-6.516-11.06-8.436 2.67-1.939 5.79-2.678 8.4-2.893.97.072 1.7.195 2.11.308 1.59.43 6.69 9.461.83 10.97Z" fill="#AEFFDB"/><path opacity=".3" d="M252.42 21.994c0-6.054-17.91-10.949-40-10.949-22.1 0-40.01 4.895-40.01 10.95 0 5.623 15.51 10.261 35.47 10.877l-.03.185c-4.07.523-6.76 1.354-6.76 1.354.25 1.673.58 3.11.96 4.382l-42.44 9.205-3.3-6.383c-20.36-9.297-44.72-4.197-44.72-4.197s-6.82 1.683-14.72 4.577c-3.99-1.026-8.83-1.816-14.2-2.278l-10.14-5.562c.28-.79.5-1.58.66-2.35 25.54-1.765 44.45-8.087 44.45-15.619C117.64 7.29 91.3.076 58.82.076 26.34.075 0 7.288 0 16.185c0 7.645 19.49 14.049 45.61 15.69 2.32 6.599 5.71 8.538 6.59 8.949-10.23 1.775-17.03 4.905-17.03 8.476 0 4.433 10.55 8.2 25.17 9.523 1.71 5.172 4.47 6.106 4.47 6.106 2.04 1.59 10.57.708 10.56-.636a8.5 8.5 0 0 0 .92-1.098l.07.01a92.208 92.208 0 0 0-2.74 5.388H74c0 2.319 6.11 4.412 15.85 5.87.97.687 2 1.385 3.1 2.093 25.29 5.161 54.01 5.161 54.01 5.161l7-1.97 4.48-5.675c8.3-1.436 13.41-3.355 13.41-5.48 0-.297-.11-.595-.3-.882h.3s-.68-3.017-2.3-6.937l37.2-14.254c.63.462 1.06.616 1.06.616 2.53 1.96 13.11.883 13.09-.79 4.82-4.792 3.62-12.376 3.62-12.376a36.147 36.147 0 0 0-5.63-1.067c-.01-.041-.03-.072-.03-.103 19.03-.841 33.56-5.356 33.56-10.805Z" fill="url(#i)"/><defs><linearGradient id="b" x1="99.715" y1="52.401" x2="99.715" y2="37.419" gradientUnits="userSpaceOnUse"><stop stop-color="#116372"/><stop offset="1" stop-color="#1B4874"/></linearGradient><linearGradient id="c" x1="68.889" y1="65.642" x2="68.889" y2="53.237" gradientUnits="userSpaceOnUse"><stop stop-color="#116372"/><stop offset="1" stop-color="#1B4874"/></linearGradient><linearGradient id="d" x1="124.5" y1="55.56" x2="124.5" y2="45.791" gradientUnits="userSpaceOnUse"><stop stop-color="#116372"/><stop offset="1" stop-color="#1B4874"/></linearGradient><linearGradient id="e" x1="122.735" y1="68.593" x2="122.735" y2="46.577" gradientUnits="userSpaceOnUse"><stop stop-color="#116372"/><stop offset="1" stop-color="#1B4874"/></linearGradient><linearGradient id="f" x1="95.375" y1="76.567" x2="95.375" y2="61.472" gradientUnits="userSpaceOnUse"><stop stop-color="#116372"/><stop offset="1" stop-color="#1B4874"/></linearGradient><linearGradient id="g" x1="212.871" y1="48.018" x2="212.871" y2="32.645" gradientUnits="userSpaceOnUse"><stop stop-color="#116372"/><stop offset="1" stop-color="#1B4874"/></linearGradient><linearGradient id="h" x1="58.814" y1="42.034" x2="58.814" y2="22.611" gradientUnits="userSpaceOnUse"><stop stop-color="#116372"/><stop offset="1" stop-color="#1B4874"/></linearGradient><linearGradient id="i" x1="0" y1="40.897" x2="252.42" y2="40.897" gradientUnits="userSpaceOnUse"><stop/><stop offset="1" stop-color="#A1FFCA"/></linearGradient><radialGradient id="a" cx="0" cy="0" r="1" gradientUnits="userSpaceOnUse" gradientTransform="matrix(40 0 0 10.9514 212.424 21.992)"><stop stop-color="#1A2E5E"/><stop offset="1" stop-color="#fff"/></radialGradient></defs></svg>