<svg width="20" height="20" fill="none" xmlns="http://www.w3.org/2000/svg"><path d="M17 0H3a3 3 0 0 0-3 3v14a3 3 0 0 0 3 3h14a3 3 0 0 0 3-3V3a3 3 0 0 0-3-3Z" fill="teal"/><path d="M16.437 14.327H3.13a.131.131 0 0 1-.13-.13V5.134c0-.071.06-.13.13-.13h13.307c.07 0 .13.059.13.13v9.063c0 .07-.06.13-.13.13Z" fill="#E6E9EE"/><path d="M3 14.193c.09.083.213.134.346.134h12.528a.513.513 0 0 0 .347-.134l-6.61-5.22L3 14.193Z" fill="#CED5E0"/><path d="m10.264 10.26 5.972-5.118A.521.521 0 0 0 15.882 5H3.354A.521.521 0 0 0 3 5.142l5.972 5.118a.991.991 0 0 0 1.292 0Z" fill="#fff"/></svg>