<svg width="115" height="115" fill="none" xmlns="http://www.w3.org/2000/svg"><path d="M20.161 42.837c0 .335-.067.603-.2.872-.135.268-.269.402-.47.603l-.603.402c-.201.067-.47.134-.738.134v.603h-1.14v-.603c-.334-.067-.67-.134-.938-.268-.268-.134-.469-.268-.603-.47-.134-.2-.268-.401-.335-.67-.067-.268-.134-.536-.134-.87v-2.481c0-.335.067-.603.201-.871.067-.202.268-.403.402-.537.201-.2.403-.268.67-.402.269-.134.47-.134.738-.134v-.402h1.207v.402c.268 0 .469.067.737.134.2.067.402.201.603.402.201.134.335.403.47.604.133.268.2.536.2.871v2.681h-.067Zm-3.15-3.754c-.268.068-.47.135-.67.269a1.132 1.132 0 0 0-.201.67v2.95c0 .133 0 .267.066.401a.927.927 0 0 0 .202.269c.067.067.2.134.268.2a.604.604 0 0 0 .335.068v-4.826Zm2.078.939c0-.268-.067-.47-.268-.67-.134-.134-.335-.201-.604-.268v4.759c.068 0 .202-.067.269-.067a.927.927 0 0 0 .268-.201c.067-.068.134-.135.2-.269a.595.595 0 0 0 .068-.335v-2.949h.067Zm7.038 3.418c0 .67-.134 1.207-.47 1.542-.334.335-.804.536-1.407.536-.67 0-1.14-.134-1.407-.469-.269-.335-.47-.804-.47-1.407v-3.888c0-.268.067-.603.134-.804.067-.269.201-.47.335-.67a.976.976 0 0 1 .604-.403c.268-.067.536-.134.871-.134.335 0 .67.067.872.134.2 0 .402.134.536.335s.268.402.335.67c.067.269.067.537.067.872v3.687Zm-1.207-3.82c0-.201-.067-.402-.134-.603-.067-.202-.268-.269-.536-.269-.134 0-.268 0-.335.067-.134.135-.201.202-.201.336-.067.067-.067.2-.067.335v4.223c0 .2.067.402.134.536s.268.268.536.268.402-.067.536-.268c.134-.134.134-.335.134-.603V39.62h-.067Zm6.033 5.831V42.1h-1.407v3.351h-1.14v-7.708h1.207v3.217h1.407v-3.217h1.207v7.708h-1.274Zm4.089 0v1.475h-1.005v-2.48l.469-.067c.2-.201.335-.47.402-.737a4.82 4.82 0 0 0 .134-1.14l.134-4.692h3.486v6.636h.469v2.547h-1.005v-1.475h-3.084v-.067Zm1.073-3.016c0 .47-.068.804-.068 1.14-.066.335-.133.603-.268.804h1.676v-5.497H36.25l-.134 3.553Zm10.255-4.759a2.5 2.5 0 0 1 .805.134c.2.067.402.201.603.335.134.134.268.335.335.536.067.202.134.47.134.738l-1.14.268c0-.268-.066-.536-.133-.67-.135-.202-.269-.269-.537-.269-.134 0-.268 0-.335.068l-.201.2c-.067.068-.067.202-.067.269v4.491c0 .067.067.2.067.268l.201.201c.067.067.201.067.335.067.47 0 .67-.335.67-.938.202.067.403.067.604.067.2 0 .402.067.603.067 0 .603-.201 1.072-.47 1.407-.334.336-.736.537-1.34.537-.67 0-1.14-.134-1.407-.47-.336-.335-.47-.804-.47-1.407v-3.821c0-.268 0-.536.067-.804.067-.269.202-.47.336-.67.134-.202.335-.336.603-.47.067-.067.335-.134.737-.134Zm7.507 5.764c0 .67-.134 1.207-.469 1.542-.335.335-.804.536-1.407.536-.67 0-1.14-.134-1.408-.469-.268-.335-.47-.804-.47-1.407v-3.888c0-.268.068-.603.135-.804.067-.269.2-.47.335-.67a.976.976 0 0 1 .603-.403c.268-.067.537-.134.872-.134.335 0 .67.067.871.134.268.067.402.201.603.402.134.201.268.402.335.67v4.492Zm-1.206-3.82c0-.201-.067-.402-.134-.603-.067-.202-.268-.269-.536-.269-.134 0-.268 0-.335.067l-.202.202c-.067.066-.067.2-.134.335v4.223c0 .2.067.402.134.536.134.134.269.268.537.268s.402-.067.536-.268c.134-.134.134-.335.134-.603V39.62Zm4.022 5.831v1.475h-1.005v-2.48l.469-.067c.2-.201.335-.47.402-.737a4.82 4.82 0 0 0 .134-1.14l.134-4.692h3.486v6.636h.469v2.547h-1.006v-1.475h-3.083v-.067Zm1.072-3.016c0 .47-.067.804-.067 1.14-.067.335-.134.603-.268.804h1.676v-5.497H57.9l-.135 3.553Zm4.961 3.016v-7.708h3.418v1.14h-2.212v2.077h1.944v1.14h-1.944v2.212h2.212v1.14h-3.418Zm8.177-4.826-1.608 4.826h-1.14v-7.708h1.14v4.893l1.608-4.893h1.14v7.708h-1.207l.067-4.826ZM69.43 36c0 .067 0 .134.067.268.067.067.067.134.134.268l.201.201c.067.067.201.067.268.067.134 0 .201 0 .268-.067l.201-.2c.067-.068.134-.135.134-.269 0-.067.067-.134.067-.268h.872c0 .134-.067.335-.134.536.067.134-.067.335-.201.47-.134.133-.268.268-.47.402-.2.067-.402.134-.67.134s-.536-.067-.737-.134c-.201-.067-.335-.202-.47-.403-.133-.134-.2-.335-.267-.469-.067-.2-.134-.402-.134-.536h.87Zm6.769 1.676a2.5 2.5 0 0 1 .804.134c.201.067.402.201.603.335.134.134.268.335.335.536.067.202.135.47.135.738l-1.14.268c0-.268-.067-.536-.134-.67-.134-.202-.268-.269-.536-.269-.134 0-.269 0-.336.068l-.2.2c-.068.068-.068.202-.068.269v4.491c0 .067.067.2.067.268l.201.201c.067.067.202.067.336.067.469 0 .67-.335.67-.938.201.067.402.067.603.067.201 0 .402.067.603.067 0 .603-.2 1.072-.469 1.407-.335.336-.737.537-1.34.537-.67 0-1.14-.134-1.408-.47-.335-.335-.47-.804-.47-1.407v-3.821c0-.268 0-.536.068-.804.067-.269.2-.47.335-.67.134-.202.335-.336.603-.47.067-.067.403-.134.738-.134Zm5.764 1.206v6.57h-1.206v-6.57h-1.274v-1.14h3.687v1.14h-1.207Zm5.899 2.548c.335.134.603.335.67.603.134.335.201.67.201 1.072 0 .805-.2 1.408-.536 1.743-.335.402-.871.536-1.609.536H84.98v-7.641h1.675c.67 0 1.207.201 1.475.536.335.335.47.872.47 1.542 0 .335-.068.67-.202.938 0 .268-.268.47-.536.67Zm-.335-1.542c0-.335-.067-.603-.201-.737-.134-.135-.402-.202-.67-.202h-.403v2.011h.403c.335 0 .536-.067.67-.268.134-.268.2-.536.2-.804Zm.067 3.083c0-.335-.067-.603-.201-.804-.134-.201-.335-.268-.67-.268h-.47v2.413h.47c.2 0 .335-.067.469-.134a.523.523 0 0 0 .268-.268c.067-.134.134-.268.134-.402v-.537Zm6.166-2.346-1.608 4.826h-1.14v-7.708h1.14v4.893h.067l1.609-4.893h1.14v7.708H93.76v-4.826Zm3.218 4.826.403-2.413c.067-.268.133-.469.268-.67.134-.201.268-.402.469-.47a1.453 1.453 0 0 1-.737-.67c-.135-.268-.202-.67-.202-1.072 0-.737.201-1.34.537-1.743.335-.402.871-.603 1.541-.603H101v7.708h-1.207v-3.351h-.335c-.2 0-.402.067-.603.268-.201.134-.268.47-.402.871l-.335 2.145h-1.14Zm2.346-6.569c-.335 0-.603.134-.737.336-.134.2-.201.469-.201.87 0 .403.067.604.268.805.201.134.402.201.67.201h.47v-2.212h-.47ZM18.62 51.82l-2.011 5.965H15.2v-9.518h1.475v6.032h.067l2.01-6.032h1.475v9.518h-1.541l-.067-5.966Zm8.78 5.965v-4.156h-1.675v4.156H24.25v-9.518h1.475v3.954h1.743v-3.954h1.474v9.518h-1.541Zm8.848 0v-4.156h-1.742v4.156H33.03v-9.518h1.475v3.954h1.742v-3.954h1.475v9.518H36.25Zm10.189-2.413c0 .804-.2 1.474-.536 1.877-.402.402-.938.603-1.81.603-.804 0-1.407-.201-1.742-.603-.336-.403-.537-1.006-.537-1.743v-4.76c0-.402.067-.737.134-1.005.067-.335.201-.603.403-.804.2-.201.402-.402.737-.536.268-.135.67-.202 1.072-.202.47 0 .805.068 1.14.202.268.134.536.268.737.469.201.2.335.469.402.804.067.335.134.67.134 1.073v4.625h-.134Zm-1.474-4.76c0-.268-.067-.469-.201-.737-.135-.2-.336-.335-.67-.335-.202 0-.336.067-.403.134-.134.067-.201.201-.268.268-.067.134-.134.268-.134.402s-.067.269-.067.403v4.826c0 .268.067.469.201.67.134.201.335.268.67.268s.536-.134.67-.335c.135-.201.202-.47.202-.737v-4.826Zm9.049 2.213c.402.134.737.402.871.804s.268.804.268 1.34c0 1.006-.2 1.743-.67 2.213-.402.469-1.073.67-1.944.67h-2.01v-9.585h2.077c.871 0 1.475.2 1.81.67.402.47.603 1.072.603 1.944 0 .469-.067.804-.2 1.14a1.264 1.264 0 0 1-.805.737v.067Zm-.403-1.944c0-.47-.067-.737-.268-.939-.2-.2-.469-.268-.871-.268H52v2.413h.47c.402 0 .67-.134.871-.335.201-.134.268-.469.268-.871Zm.068 3.888c0-.47-.068-.805-.269-1.006-.134-.201-.469-.335-.871-.335h-.536v2.95h.603c.268 0 .402-.068.603-.135a.807.807 0 0 0 .335-.335c.067-.134.135-.335.135-.536v-.603Zm8.981 3.016-.402-2.011h-1.742l-.202 1.005-.2 1.006H58.57c.335-1.609.67-3.217.938-4.76.335-1.608.67-3.15.938-4.758h1.676l1.944 9.518h-1.408Zm-1.34-7.306c-.067.67-.201 1.34-.268 1.944-.134.67-.201 1.34-.335 2.01h1.34l-.603-3.954h-.134Zm11.06-2.212v8.177h.603v3.218h-1.273v-1.81h-4.022v-9.585h1.475v8.177h1.675v-8.177h1.542Zm7.575 3.553-2.011 5.965h-1.408v-9.518h1.475v6.032l2.01-6.032h1.475v9.518H80.02l-.067-5.966Zm5.227 5.965.537-3.016c.067-.336.134-.604.335-.872a1.31 1.31 0 0 1 .603-.603c-.469-.201-.737-.47-.938-.804-.134-.403-.268-.805-.268-1.341 0-.938.2-1.676.67-2.145.47-.47 1.073-.737 1.877-.737h2.212v9.518h-1.475v-4.089h-.402c-.268 0-.47.067-.737.268-.201.201-.402.536-.47 1.073l-.469 2.68h-1.474v.068Zm2.95-8.11c-.47 0-.737.133-.938.401-.201.268-.268.604-.268 1.073 0 .47.133.804.335.938.2.201.536.268.871.268h.603v-2.68h-.603Zm8.982 6.032-.67-1.743-.603-1.676h-.067v5.497h-1.475v-9.518h1.475l1.072 2.68.737 2.079h.067l.805-2.145 1.005-2.681h1.408v9.518h-1.475V52.22h-.067l-.603 1.676-.67 1.743h-.939v.067Z" fill="#42454A"/><path d="M100.866 60.667c-20.713 20.243-62.137 16.758-77.152 0h-8.58c11.328 11.999 27.617 16.557 41.29 17.16 1.408.067 2.816.067 4.157.067 8.848-.134 18.701-2.078 27.281-6.636 4.893-2.547 9.384-6.033 13.004-10.59Z" fill="#EA2227"/><path d="M100.866 60.667c0 .067 0 .067 0 0-.335.268-.67.47-.939.67-22.589 15.082-53.959 12.133-67.432-.67h-8.781c15.015 16.758 56.44 20.31 77.152 0Z" fill="#25A8E0"/><path d="M95.906 62.812c-10.256 3.955-19.908 5.698-28.354 5.765-11.798.067-21.115-3.084-26.075-7.91h-8.982c13.406 12.669 44.441 15.685 66.963.939.134-.067.335-.201.47-.336.335-.2.603-.402.938-.603-1.676.805-3.352 1.475-4.96 2.145Z" fill="#fff"/><path d="M41.477 60.667c4.893 4.692 14.01 7.843 25.606 7.843h.469c8.446-.067 18.098-1.81 28.354-5.765 1.608-.67 3.284-1.34 4.96-2.078-3.62 4.491-8.11 7.977-13.071 10.591-8.58 4.558-18.433 6.502-27.281 6.636h-1.006c-1.005 0-2.078 0-3.15-.067-13.674-.603-29.896-5.161-41.291-17.16h26.41Zm0-.067H15.134c-.067 0-.067 0-.134.067v.134c5.362 5.564 11.998 9.92 19.841 12.87 6.569 2.48 14.076 3.955 21.517 4.29 1.072.067 2.078.067 3.15.067h1.006c4.692-.067 9.317-.603 13.74-1.676 4.894-1.14 9.452-2.815 13.541-4.96 5.228-2.815 9.652-6.368 13.071-10.658v-.201h-.134c-1.609.737-3.285 1.475-4.96 2.078-9.519 3.687-19.305 5.698-28.287 5.765h-.47c-11.06 0-20.31-2.883-25.471-7.843 0 .067 0 .067-.067.067Z" fill="#CDCCCB"/><circle cx="57.5" cy="57.5" r="56" stroke="#25A8E0" stroke-width="3"/></svg>