<svg width="436" height="442" fill="none" xmlns="http://www.w3.org/2000/svg"><path d="M139.655 28.995C100.753 11.066 37.895 16.845 7.627 62.71c-29.675 44.966 38.232 95.33 17.912 197.976C14.61 315.889-5.38 335.104 6.82 369.091c12.587 35.061 49.92 59.35 83.449 67.85 69.165 17.535 99.297-37.91 177.035-18.717 26.75 6.604 35.858 16.299 63.951 16.377 6.729.019 59.16.212 86.569-30.415 42.522-47.516-27.776-110.435-14.43-256.249 2.23-24.37 6.851-51.646-8.187-80.083-20.84-39.406-64.726-52.84-81.639-58.39C272.43-4.037 209.774-5.97 193.004 22.98c-5.421 9.358-29.693 16.917-53.349 6.015Z" fill="#F4F7FA"/><path d="m12.201 114.256-.369 10.837c-.108 3.179 2.442 5.639 5.695 5.494l5.91-.263a66.467 66.467 0 0 0 3.339 14.782l-4.992 2.995c-2.867 1.719-3.951 5.281-2.42 7.955l5.214 9.104c1.529 2.669 8.909 4.255 11.768 2.531l.901-3.669A64.317 64.317 0 0 0 48.03 174.64l-2.732 4.518c-1.708 2.824-.869 6.279 1.872 7.718l9.328 4.894c2.732 1.433 11.603 1.656 13.302-1.163l-2.662-5.688a68.76 68.76 0 0 0 15.28 3.318l-.163 4.802c-.107 3.15 2.397 5.565 5.591 5.394l10.868-.582c3.183-.17 5.848-2.855 5.955-5.996l.163-4.787a77.263 77.263 0 0 0 15.415-4.894l2.296 4.055c1.489 2.632 10.636 3.985 13.426 2.276l3.819-6.427c2.781-1.705 3.833-5.215 2.351-7.842l-2.374-4.208a80.988 80.988 0 0 0 11.252-11.567l4.41 2.361c2.664 1.426 10.555 2.156 12.214-.622l1.261-11.287c1.656-2.773.845-6.179-1.811-7.61l-4.634-2.497a74.372 74.372 0 0 0 4.216-14.865l5.691-.254c3.124-.139 5.741-2.775 5.847-5.889l.362-10.611c.106-3.113-2.339-5.53-5.463-5.4l-6.026.252a66.129 66.129 0 0 0-3.576-14.139l5.515-3.324c2.762-1.666 3.807-5.152 2.336-7.79l1.049-10.544c-1.474-2.643-10.983-1.896-13.752-.235l-5.804 3.481a64.294 64.294 0 0 0-10.183-9.856l3.575-5.93c1.665-2.762.85-6.191-1.823-7.66l-3.976-5.753c-2.681-1.474-11.363.31-13.037 3.079l-3.673 6.075a68.655 68.655 0 0 0-14.106-3.216l.237-6.956c.107-3.141-2.383-5.603-5.563-5.499l-10.86.356c-3.193.105-5.869 2.743-5.976 5.894l-.238 6.975a76.884 76.884 0 0 0-14.492 4.224l2.158-7.359c-1.512-2.68-10.51-2.014-13.348-.34l-9.69 5.715c-2.846 1.679-3.923 5.218-2.403 7.902l3.257 5.753a81.16 81.16 0 0 0-11.157 10.774l.245-3.686c-2.75-1.481-12.366.18-14.08 2.99l-5.852 9.581c-1.718 2.814-.873 6.293 1.885 7.77l5.496 2.942a74.77 74.77 0 0 0-4.704 14.729l-6.257.262c-3.252.136-5.977 2.823-6.085 6.002Zm40.104 4.77c.812-23.842 21.108-43.913 45.2-44.826 23.946-.907 42.6 17.478 41.797 41.059-.803 23.581-20.766 43.637-44.72 44.804-24.102 1.174-43.09-17.195-42.277-41.037Z" fill="url(#a)"/><path d="m19.48 114.164-.369 10.837c-.108 3.179 2.442 5.639 5.694 5.494l5.91-.264a66.48 66.48 0 0 0 3.34 14.783l-4.992 2.994c-2.868 1.72-3.952 5.282-2.42 7.956l5.214 9.104c1.528 2.668 5.086 3.432 7.945 1.709l4.724-2.848a64.364 64.364 0 0 0 10.782 10.619l-2.731 4.517c-1.708 2.824-.87 6.28 1.871 7.719l9.329 4.893c2.732 1.434 6.323.309 8.023-2.51l2.617-4.34a68.816 68.816 0 0 0 15.28 3.318l-.163 4.801c-.107 3.151 2.397 5.566 5.591 5.394l10.868-.581c3.183-.171 5.848-2.855 5.955-5.996l.163-4.788a77.166 77.166 0 0 0 15.414-4.893l2.297 4.055c1.489 2.632 4.959 3.377 7.749 1.667l9.495-5.819c2.782-1.705 3.834-5.214 2.351-7.841l-2.373-4.208a81.042 81.042 0 0 0 11.252-11.567l4.41 2.361c2.664 1.426 6.167.329 7.826-2.449l5.649-9.46c1.655-2.773.845-6.179-1.811-7.61l-4.635-2.498a74.202 74.202 0 0 0 4.216-14.865l5.691-.253c3.125-.14 5.742-2.776 5.848-5.889l.361-10.611c.106-3.113-2.339-5.531-5.463-5.4l-6.025.252a66.135 66.135 0 0 0-3.577-14.139l5.516-3.324c2.761-1.666 3.807-5.152 2.335-7.79l-5.02-9c-1.474-2.643-4.913-3.44-7.683-1.78l-5.803 3.482a64.38 64.38 0 0 0-10.183-9.857l3.574-5.929c1.666-2.762.85-6.192-1.823-7.66l-9.126-5.017c-2.681-1.473-6.213-.426-7.886 2.343l-3.674 6.075a68.648 68.648 0 0 0-14.106-3.216l.237-6.956c.107-3.142-2.383-5.603-5.563-5.499l-10.861.356c-3.191.105-5.868 2.743-5.975 5.894l-.237 6.975a76.877 76.877 0 0 0-14.492 4.224L76.7 45.253c-1.512-2.68-5.037-3.497-7.876-1.824l-9.69 5.716c-2.846 1.679-3.923 5.218-2.403 7.902L59.99 62.8a81.165 81.165 0 0 0-11.158 10.774l-5.75-3.098c-2.75-1.481-6.37-.408-8.085 2.401l-5.851 9.582c-1.718 2.814-.874 6.293 1.884 7.77l5.497 2.942a74.764 74.764 0 0 0-4.704 14.729l-6.257.262c-3.252.135-5.978 2.823-6.086 6.002Zm40.103 4.77c.812-23.842 21.109-43.913 45.201-44.826 23.945-.907 42.6 17.477 41.797 41.058-.803 23.581-20.767 43.637-44.721 44.805-24.101 1.174-43.089-17.196-42.277-41.037Z" fill="url(#b)"/><path d="M274.973 232.208c2.683 13.955-5.952 25.099-13.346 32.206-1.266-.306-2.088-.138-3.442-.145-12.223-.062-17.274-2.833-29.203-4.898-2.567-.445-9.593-4.187-12.359-5.916l-5.103-3.313s-2.338-32.902 15.318-37.439c17.657-4.538 19.229-36.313 22.032-53.159 7.604-45.708 55.034-29.588 69.501-87.543 3.848-15.414 6.032-46.097 22.084-55.145 18.287-10.308 25.686 6.104 38.117-3.228 19.429-14.585 45.211-15.14 54.928 7.258 9.59 22.106-16.866 54.785-67.172 73.83-34.542 17.75-36.832 25.066-39.095 43.706-1.585 13.056 2.293 49.058-18.177 57.96-20.469 8.902-37.15 19.873-34.083 35.826Z" fill="url(#c)"/><mask id="d" style="mask-type:luminance" maskUnits="userSpaceOnUse" x="211" y="3" width="225" height="270"><path d="m251.598 272.798-39.413-21.317s-3.003-34.242 14.653-38.779c17.657-4.538 19.229-36.313 22.032-53.159 7.605-45.708 55.034-29.588 69.501-87.543 3.848-15.414 6.032-46.096 22.084-55.145 18.287-10.308 25.686 6.104 38.117-3.228 19.429-14.585 45.211-15.14 54.928 7.258 9.59 22.106-16.866 54.785-67.172 73.83-34.542 17.75-36.832 25.066-39.095 43.706-1.585 13.056 2.293 49.058-18.177 57.96-20.469 8.902-37.151 19.873-34.083 35.826 4.667 24.274-23.375 40.591-23.375 40.591Z" fill="#fff"/></mask><g opacity=".5" fill="#FCFDFE" mask="url(#d)"><path d="m234.966 261.358-.829-.319a648.536 648.536 0 0 1 5.885-14.735c14.826-35.824 32.459-68.967 52.411-98.51 16.907-25.032 35.71-47.835 55.887-67.776 16.227-16.036 33.428-30.317 51.123-42.445 12.44-8.526 24.995-15.908 37.315-21.94 2.147-1.053 4.401-2.008 6.582-2.932 2.905-1.231 5.908-2.504 8.681-4.015l.424.78c-2.81 1.532-5.834 2.814-8.758 4.053-2.17.92-4.413 1.87-6.538 2.911-12.282 6.014-24.799 13.374-37.204 21.876-17.652 12.098-34.811 26.345-51 42.344-20.136 19.9-38.902 42.658-55.775 67.641-19.919 29.493-37.524 62.584-52.327 98.352-2 4.832-3.977 9.782-5.877 14.715Z"/><path d="m325.402 105.922-.69-.56c24.046-29.59 25.633-94.91 25.646-95.567l.888.018c-.013.66-1.606 66.282-25.844 96.109Zm-60.01 88.673-.75-.476c13.989-22.022 63.557-29.381 64.056-29.452l.126.879c-.494.071-49.662 7.372-63.432 29.049Zm-6.857 13.182-.822-.337c6.445-15.763 6.812-40.704 1.034-70.228-.291-1.484-.291-1.484-.229-1.641l.826.326-.413-.163.442-.004c.008.101.118.662.245 1.312 5.812 29.692 5.427 54.812-1.083 70.735Zm-19.969 44.616-.692-.557c11.771-14.605 39.593-14.606 39.872-14.605l-.005.889c-.275-.002-27.674.003-39.175 14.273Zm-4.92 8.708c.311-15.123-3.711-30.829-12.294-48.016l.795-.397c8.649 17.319 12.701 33.161 12.387 48.431l-.888-.018ZM389.641 45.62l-.657-.598c14.286-15.707 25.654-35.52 29.389-42.03.904-1.577 1.224-2.13 1.369-2.304l.682.57c-.109.134-.626 1.035-1.28 2.175-3.748 6.532-15.152 26.407-29.503 42.186Zm-27.006 22.102-.452-.765c17.14-10.13 55.673-.09 57.305.343l-.228.858c-.396-.104-39.805-10.377-56.625-.436Z"/></g><mask id="e" style="mask-type:luminance" maskUnits="userSpaceOnUse" x="228" y="93" width="208" height="206"><path d="m230.862 277.348 35.102 21.398s17.584-13.979 16.728-31.93c-1.746-36.627 30.454-35.6 44.006-37.187 20.436-2.394 37.401-13.416 21.191-32.598-16.209-19.182 23.453-38.248 57.014-37.358 32.843.872 53.343-57.007-17.567-65.42-42.348-5.024-58.56 33.239-71.34 50.616-12.781 17.376-40.996 2.259-45.32 30.367-3.694 24.01 2.953 47.211-16.638 53.322-19.592 6.112-29.786 20.142-23.176 48.79Z" fill="#fff"/></mask><g mask="url(#e)"><path d="m230.862 277.348 35.102 21.398s17.584-13.979 16.728-31.93c-1.746-36.626 30.454-35.599 44.006-37.187 20.436-2.394 35.061-12.668 23.955-31.885-12.566-21.744 20.689-38.961 54.25-38.071 32.843.872 53.343-57.007-17.567-65.42-42.348-5.024-58.56 33.239-71.34 50.616-12.781 17.376-40.996 2.259-45.32 30.367-3.694 24.01 2.953 47.211-16.638 53.322-19.592 6.112-29.786 20.142-23.176 48.79Z" fill="url(#f)"/></g><mask id="g" style="mask-type:luminance" maskUnits="userSpaceOnUse" x="228" y="93" width="208" height="206"><path d="m230.862 277.348 35.102 21.398s17.584-13.979 16.728-31.93c-1.746-36.627 30.454-35.6 44.006-37.187 20.436-2.394 37.401-13.416 21.191-32.598-16.209-19.182 23.453-38.248 57.014-37.358 32.843.872 53.343-57.007-17.567-65.42-42.348-5.024-58.56 33.239-71.34 50.616-12.781 17.376-40.996 2.259-45.32 30.367-3.694 24.01 2.953 47.211-16.638 53.322-19.592 6.112-29.786 20.142-23.176 48.79Z" fill="#fff"/></mask><g opacity=".5" fill="#BEB8F2" mask="url(#g)"><path d="m244.068 289.868.81.311c.193-.502 19.641-50.682 53.921-94.614 31.581-40.474 82.578-83.771 146.186-60.199l.302-.814c-28.315-10.493-56.527-8.837-83.853 4.921-21.828 10.991-43.135 29.687-63.33 55.571-34.355 44.035-53.843 94.321-54.036 94.824Z"/><path d="m350.264 145.715.791.357c11.873-26.333 42.39-55.416 42.697-55.706l-.596-.63c-.308.292-30.95 29.492-42.892 55.979Zm18.458-8.667c34.42-.336 53.181 21.329 53.366 21.547l.662-.56c-.188-.223-19.195-22.195-54.036-21.855l.008.868Zm-90.769 88.458c29.583-29.887 82.324-9.489 82.822-9.248l.429-.753c-.466-.283-54.022-20.762-83.868 9.391l.617.61Zm8.796-14.943.818.291c9.008-25.277-5.916-55.545-6.068-55.848l-.775.389c.15.3 14.908 30.244 6.025 55.168Zm-38.637 71.787c9.358-12.947 35.337-11.88 35.598-11.868l.041-.867c-1.086-.051-26.708-1.103-36.342 12.226l.703.509Zm4.446-11.945.807.32c4.666-11.737-4.185-33.377-7.093-40.487-.411-1.005-.766-1.873-.799-2.04l-.854.155c.043.237.277.814.85 2.213 2.875 7.031 11.626 28.426 7.089 39.839Z"/></g><path d="M292.861 309.844c-.169.034-.339.066-.508.098-10.031 1.907-21.331 2.218-33.953-.079l-7.287-1.864c-.771-6.261-.382-12.354 7.564-12.971 12.34-.958 17.033-21.281 15.416-29.18-2-9.776-6.191-32.636 12.863-34.417 15.862-1.483 26.401.802 31.578-18.088 5.176-18.89 18.191-28.557 35.28-23.668 17.983 5.144 38.198-15.901 51.385-4.544 22.979 19.789-9.731 56.806-44.043 62.155-34.312 5.348-18.615 20.692-21.146 36.52-3.456 21.608-31.339 10.796-40.781 17.535-3.198 2.283-5.17 5.319-6.368 8.503Z" fill="url(#h)"/><mask id="i" style="mask-type:luminance" maskUnits="userSpaceOnUse" x="250" y="181" width="163" height="141"><path d="m291.155 321.795-39.681-8.915c-1.05-6.137-1.673-17.163 7.203-17.852 12.34-.958 17.033-21.281 15.416-29.18-2-9.776-6.191-32.636 12.863-34.417 15.862-1.483 26.401.802 31.578-18.088s18.191-28.557 35.28-23.668c17.983 5.144 38.198-15.901 51.386-4.544 22.978 19.789-9.732 56.806-44.044 62.154-34.312 5.349-18.615 20.693-21.146 36.52-3.456 21.608-31.339 10.797-40.781 17.536-7.402 5.283-8.257 14.599-8.074 20.454Z" fill="#fff"/></mask><g opacity=".5" fill="#FCFDFE" mask="url(#i)"><path d="m273.873 311.356-.806-.356c26.001-58.952 80.486-104.997 142.192-120.166l.21.856c-61.446 15.105-115.703 60.958-141.596 119.666Z"/><path d="m290.802 280.428-.861-.189c5.442-24.73-11.487-48.665-11.658-48.904l.716-.514c.174.242 17.331 24.488 11.803 49.607Zm-11.85 20.213-.668-.575c16.761-19.446 63.002-12.544 63.468-12.472l-.135.871c-.46-.071-46.223-6.9-62.665 12.176Zm54.207-67.055-.714-.516c11.93-16.505 6.199-47.202 6.14-47.51l.865-.167c.061.312 5.86 31.384-6.291 48.193Zm33.846-22.998-.29-.833c21.919-7.618 50.381 5.518 50.666 5.652l-.374.798c-.281-.132-28.425-13.117-50.002-5.617Z"/></g><path d="M94.455 153.371c-1.262-.638-3.29-1.875-4.976-4.118-1.805-2.403-3.734-6.644-2.23-8.408.72-.845 1.705-.505 3.775-.858 4.307-.734 5.466-3.133 8.236-4.118 6.083-2.163 15.225 4.168 14.756 7.378-.196 1.337-2.058 2.134-5.491 3.603-3.518 1.506-4.937 1.319-7.893 2.574-1.54.654-3.754 1.808-6.177 3.947Z" fill="url(#j)"/><path d="m37.382 343.226-.592-1.026s-1.062-.636-1.564.68-3.352 8.189-3.504 11.307c.748 1.866 2.864.286 3.3-.983.437-1.268 1.949-5.971 1.949-5.971l.41-4.007Z" fill="url(#k)"/><path d="M44.11 348.133c-.885-.013-1.764-.007-2.653-.047a89.211 89.211 0 0 1-4.887-.352l.82-5.105c.835-.319 1.65-.638 2.448-.959.407-.164.797-.329 1.194-.493.376-.155.759-.31 1.126-.466.54-.228 1.06-.458 1.582-.688.208-.091.423-.182.628-.274.612-.274 1.207-.548 1.795-.823l.301-.139c.637-.3 1.256-.6 1.864-.901l.135-.066c.64-.318 1.264-.636 1.873-.955l.026-.014a87.232 87.232 0 0 0 3.53-1.953c13.832-8.083 18.406-16.29 19.815-22.744 3.966-18.157-15.449-29.816-10.434-49.506 3.779-14.838 19.73-27.543 29.551-24.58 11.092 3.346 12.83 24.846 13.9 38.077 1.204 14.897 2.546 31.494-6.982 46.359-9.022 14.077-25.32 22.74-44.076 25.046v.003c-.445.054-.902.079-1.35.127-1.088.115-2.174.235-3.277.308-.504.033-1.017.036-1.524.06-1.075.051-2.147.111-3.232.122-.72.007-1.45-.027-2.174-.037Z" fill="url(#l)"/><path opacity=".25" d="M44.11 348.133c-.885-.013-1.764-.007-2.653-.047a89.211 89.211 0 0 1-4.887-.352l.82-5.105c.835-.319 1.65-.638 2.448-.959.407-.164.797-.329 1.194-.493.376-.155.759-.31 1.126-.466.54-.228 1.06-.458 1.582-.688.208-.091.423-.182.628-.274.612-.274 1.207-.548 1.795-.823l.301-.139c.637-.3 1.256-.6 1.864-.901l.135-.066c.64-.318 1.264-.636 1.873-.955l.026-.014a87.232 87.232 0 0 0 3.53-1.953c13.832-8.083 18.406-16.29 19.815-22.744 3.966-18.157-15.449-29.816-10.434-49.506 3.779-14.838 19.73-27.543 29.551-24.58 11.092 3.346 12.83 24.846 13.9 38.077 1.204 14.897 2.546 31.494-6.982 46.359-9.022 14.077-25.32 22.74-44.076 25.046v.003c-.445.054-.902.079-1.35.127-1.088.115-2.174.235-3.277.308-.504.033-1.017.036-1.524.06-1.075.051-2.147.111-3.232.122-.72.007-1.45-.027-2.174-.037Z" fill="url(#m)"/><path d="M134.434 242.593c2.121-3.364-7.767-8.328-10.981-22.134-2.714-11.657 2.823-14.61-.198-30.215-1.682-8.692-4.554-13.739-7.902-17.403-2.759-3.02-6.343-6.943-9.573-6.43-10.13 1.608-22.13 47.684-1.888 67.775 10.401 10.323 27.985 12.465 30.542 8.407Z" fill="url(#n)"/><path d="M81.262 388.48c.46-1.062 2.996 1.608 5.359 4.428-.305 4.058-.61 8.117-.913 12.175.838-.533 1.896-1.115 3.089-1.391 1.433-.33 3.91.186 4.101.871 1.175 4.23-9.372 5.153-10.528 3.824-1.156-1.329-.891-2.884-.891-2.884 1.07-6.095.928-10.222.42-13.073-.356-2.001-.891-3.364-.637-3.95Z" fill="url(#o)"/><path d="M54.24 252.361c6.02-8.874 11.887-17.85 17.768-26.815 1.156-1.762 1.826-3.806 2.148-5.951 2.336 1.853 4.572 4.072 6.634 6.669a1625.794 1625.794 0 0 0 7.588 35.916c8.575 38.447 12.185 48.075 14.004 60.168 2.798 18.606 1.806 46.022-16.674 82.735l-4.23.42c-2.97-31.403-6.377-59.746-8.096-74.312-.584-4.942-2.305-19.767-10.243-31.709-.128-.192-11.873-16.253-15.926-22.67a112.173 112.173 0 0 1-4.955-8.614c4.55-4.782 8.197-10.256 11.983-15.837Z" fill="url(#p)"/><path opacity=".25" d="M54.24 252.362c6.02-8.874 11.887-17.851 17.768-26.816 1.156-1.762 1.826-3.805 2.148-5.951a41.206 41.206 0 0 1 6.634 6.669 448.6 448.6 0 0 1 5.806 25.477c3.635 18.419 3.428 23.513.825 28.086-3.58 6.287-7.7 4.586-10.315 10.058-4.585 9.593 7.692 16.148 7.579 34.647-.063 10.257-3.73 12.832-2.06 22.247.43 2.431 1.652 7.771 1.112 15.106-.237 3.222-.496 2.52-.694 5.431-.562 8.293 1.416 15.917.56 21.095-.309 1.862-.942 3.16-1.188 3.633a11.765 11.765 0 0 1-1.978 2.74c-2.692-27.033-5.534-50.706-7.055-63.593-.584-4.942-2.305-19.767-10.243-31.709-.128-.192-11.873-16.254-15.926-22.671a111.927 111.927 0 0 1-4.955-8.613c4.55-4.782 8.197-10.256 11.983-15.836Z" fill="url(#q)"/><path d="M116.524 174.765c3.784 6.938 3.353 13.848 2.939 16.872-1.246 9.097-6.561 15.159-8.345 17.451-5.982 7.686-10.648 22.887-3.222 56.211-4.167-.668-11.023-1.31-19.013.355-20.32 4.236-28.432 19.325-38.181 16.575-3.6-1.016-8.488-4.764-11.897-18.76-2.979-7.278-12.262-32.53-2.745-62.227 6.807-21.241 19.9-34.361 26.386-40.067 5.576-1.878 22.987-6.954 39.553 1.068 4.127 1.999 10.539 5.214 14.525 12.522Z" fill="url(#r)"/><path d="m97.5 217.797 15.542-5.489a.982.982 0 0 0 .621-.595l2.576-7.012a.979.979 0 0 0-1.125-1.295l-14.603 3.159c-.334.072-1.078.288-1.306.909l-2.892 8.553c-.263.762.42 2.016 1.187 1.77Z" fill="url(#s)"/><path d="m97.739 217.886 15.018-4.803a.98.98 0 0 0 .621-.595l2.577-7.013a.979.979 0 0 0-1.126-1.294l-14.603 3.158a.98.98 0 0 0-.718.637l-2.993 8.658a.979.979 0 0 0 1.224 1.252Z" fill="url(#t)"/><path d="m90.93 213.195 1.68-.798s2.642-1.934 4.417-2.714c1.775-.779 3.212-.593 4.313 1.048 1.1 1.643-.768 3.187-2.372 4.543-.975.825-3.009.899-4.655.811-1.157-.061-3.472.74-3.472.74l.088-3.63Z" fill="url(#u)"/><path d="M94.107 147.275c.005 1.466-.051 9.316-3.54 10.605-.762.281-1.374.102-4.756.19a88.49 88.49 0 0 0-4.507.231 24.78 24.78 0 0 0 1.225 5.148c4.34 12.213 18.389 20.697 23.148 17.641 2.478-1.591 2.67-6.366 2.749-8.347a16.67 16.67 0 0 0-1.122-6.682 320.894 320.894 0 0 0-8.901-6.242l.238-4.506-4.534-8.038Z" fill="url(#v)"/><path d="M92.585 150.17s-.017 6.46 5.141 8.561c4.618 1.882 10.676-8.961 8.85-12.479-.609-1.174-2.432-2.553-4.197-2.871-1.241-.225-6.392-.255-7.852 3.792-.434-1.279-1.298-2.109-2.191-2.118a1.69 1.69 0 0 0-.878.291c-1.183.843-.846 2.816 1.127 4.824Z" fill="url(#w)"/><path opacity=".3" d="M36.06 201.242c5.325-16.618 14.488-28.243 21.335-35.259 7.849 5.189 15.834 12.219 15.168 19.757-.759 8.579-12.219 12.123-11.149 17.548 1.552 7.862 26.514 4.884 29.427 13.537 3.433 10.196-26.165 29.374-24.582 31.545 1.132 1.553 14.746-9.421 30.198-6.863 2.998.496 5.684 1.665 8.077 3.205.55 5.96 1.62 12.769 3.362 20.588-4.166-.669-11.023-1.311-19.012.354-20.321 4.236-28.433 19.326-38.182 16.575-3.6-1.015-8.488-4.763-11.896-18.76-2.98-7.277-12.263-32.53-2.746-62.227Z" fill="url(#x)"/><path d="M73.496 161.761c-4.717-1.176-4.741-2.71-11.05-.586-18.117 6.099-37.296 33.44-27.384 52.747 5.513 10.739 18.723 20.422 33.287 18.188 11.855-1.818 18.82-10.646 20.59-13.04l2.059-8.236c-7.727 4.38-13.169 4.378-16.816 3.431-6.207-1.612-7.586-6.06-17.844-9.951-3.997-1.517-6.398-1.832-6.52-3.089-.254-2.6 9.794-3.467 16.128-8.922 4.619-3.977 9.226-12.082 7.55-30.542Z" fill="url(#y)"/><path d="M303.185 409.904c0 4.616 2.844 8.358 6.354 8.358 3.508 0 6.353-3.742 6.353-8.358 0-4.616-2.845-8.358-6.353-8.358-3.51 0-6.354 3.742-6.354 8.358Z" fill="url(#z)"/><path d="M301.415 410.848c0 4.616 2.844 8.357 6.354 8.357 3.509 0 6.353-3.741 6.353-8.357s-2.845-8.358-6.353-8.358c-3.509 0-6.354 3.742-6.354 8.358Z" fill="url(#A)"/><path d="M305.107 411.016c0 1.934 1.192 3.502 2.662 3.502s2.663-1.568 2.663-3.502c0-1.934-1.192-3.502-2.663-3.502-1.47 0-2.662 1.568-2.662 3.502Z" fill="url(#B)"/><path d="M309.538 400.646v9.177a2.44 2.44 0 0 1-4.41 1.439l-8.254-11.302 12.664.686Z" fill="#C2C2C2"/><path d="M235.162 402.575c0 4.616 2.845 8.358 6.354 8.358 3.508 0 6.353-3.742 6.353-8.358 0-4.616-2.845-8.358-6.353-8.358-3.509 0-6.354 3.742-6.354 8.358Z" fill="url(#C)"/><path d="M233.392 403.518c0 4.616 2.845 8.358 6.353 8.358 3.509 0 6.354-3.742 6.354-8.358 0-4.615-2.845-8.357-6.354-8.357-3.508 0-6.353 3.742-6.353 8.357Z" fill="url(#D)"/><path d="M237.084 403.687c0 1.934 1.192 3.502 2.662 3.502 1.471 0 2.663-1.568 2.663-3.502 0-1.935-1.192-3.502-2.663-3.502-1.47 0-2.662 1.567-2.662 3.502Z" fill="url(#E)"/><path d="M241.516 393.317v9.177a2.44 2.44 0 0 1-4.411 1.439l-8.254-11.302 12.665.686Z" fill="#C2C2C2"/><path d="M310.487 402.072a1.665 1.665 0 0 0 .184-3.322l-80.555-9.077c-4.385-.755-8.041-4.087-9.22-8.476l-33.744-125.632a16.234 16.234 0 0 0-14.557-11.98l-24.503-1.461a1.658 1.658 0 0 0-1.762 1.564 1.665 1.665 0 0 0 1.563 1.762l24.488 1.46a12.894 12.894 0 0 1 11.552 9.519l33.744 125.632a15.07 15.07 0 0 0 11.971 10.91l80.651 9.09c.063.008.126.011.188.011Z" fill="#C2C2C2"/><path d="M254.443 352.616c.725 0 1.392-.477 1.601-1.209l18.969-66.377a1.665 1.665 0 1 0-3.203-.916l-18.97 66.377a1.666 1.666 0 0 0 1.603 2.125Zm-19.406-2.775c.792 0 1.495-.568 1.638-1.374l11.701-65.752a1.666 1.666 0 0 0-1.348-1.932 1.659 1.659 0 0 0-1.933 1.348l-11.7 65.751a1.667 1.667 0 0 0 1.642 1.959Zm-12.058-2.156.07-.002a1.666 1.666 0 0 0 1.596-1.733l-2.701-65.056c-.037-.919-.773-1.649-1.733-1.595a1.666 1.666 0 0 0-1.596 1.733l2.7 65.056a1.667 1.667 0 0 0 1.664 1.597Zm57.933 7.36c.697 0 1.346-.44 1.58-1.137l22.273-66.407a1.666 1.666 0 0 0-3.16-1.059l-22.272 66.406a1.667 1.667 0 0 0 1.579 2.197Z" fill="#C2C2C2"/><path d="M90.77 251.235c.092 0 .184-.004.278-.012l54.821-4.507a3.332 3.332 0 1 0-.547-6.642l-54.821 4.507a3.332 3.332 0 0 0 .27 6.654Z" fill="url(#F)"/><path d="M243.505 432.698c0 4.616 2.845 8.358 6.353 8.358 3.51 0 6.354-3.742 6.354-8.358 0-4.616-2.844-8.358-6.354-8.358-3.508 0-6.353 3.742-6.353 8.358Z" fill="url(#G)"/><path d="M241.735 433.642c0 4.616 2.844 8.358 6.354 8.358 3.508 0 6.353-3.742 6.353-8.358 0-4.616-2.845-8.358-6.353-8.358-3.509 0-6.354 3.742-6.354 8.358Z" fill="url(#H)"/><path d="M245.427 433.811c0 1.934 1.192 3.502 2.662 3.502 1.471 0 2.663-1.568 2.663-3.502 0-1.934-1.192-3.502-2.663-3.502-1.47-.001-2.662 1.567-2.662 3.502Z" fill="url(#I)"/><path d="M249.858 423.44v9.178a2.44 2.44 0 0 1-4.41 1.439l-8.254-11.303 12.664.686Z" fill="#999"/><path d="M184.612 426.803c0 4.615 2.844 8.358 6.353 8.358s6.354-3.742 6.354-8.358c0-4.616-2.845-8.358-6.354-8.358s-6.353 3.742-6.353 8.358Z" fill="url(#J)"/><path d="M182.842 427.746c0 4.616 2.845 8.358 6.353 8.358 3.509 0 6.354-3.742 6.354-8.358 0-4.616-2.845-8.358-6.354-8.358-3.508 0-6.353 3.742-6.353 8.358Z" fill="url(#K)"/><path d="M186.534 427.915c0 1.934 1.192 3.502 2.662 3.502s2.662-1.568 2.662-3.502c0-1.934-1.192-3.502-2.662-3.502s-2.662 1.568-2.662 3.502Z" fill="url(#L)"/><path d="M190.965 417.545v9.177a2.44 2.44 0 0 1-4.41 1.439l-8.254-11.302 12.664.686Z" fill="#999"/><path d="M335.549 290.16a1.666 1.666 0 0 0 .118-3.328l-143.469-10.328a1.845 1.845 0 0 0-.4.02l-59.394 10.117a1.666 1.666 0 0 0 .559 3.285l59.196-10.083 143.269 10.313c.041.002.081.004.121.004Z" fill="#C2C2C2"/><path opacity=".75" d="M351.352 122.289c-.01-59.26-50.472-107.291-112.708-107.28-62.236.012-112.68 48.06-112.669 107.321.007 35.963 18.595 67.79 47.12 87.253 12.101 8.257 19.442 21.869 19.444 36.519l.002 8.212c.003 17.841 14.469 32.301 32.31 32.298l27.685-.005c17.841-.004 32.302-14.469 32.299-32.31l-.002-8.211c-.003-14.651 7.333-28.265 19.431-36.527 28.518-19.474 47.095-51.307 47.088-87.27Z" fill="#F4F7FA"/><path d="M238.702 347.685c13.806 0 24.998-5.925 24.998-13.234s-11.192-13.235-24.998-13.235c-13.805 0-24.997 5.926-24.997 13.235 0 7.309 11.192 13.234 24.997 13.234Z" fill="url(#M)"/><path d="m205.486 310.815.002 13.515c.001 4.573 2.604 8.762 6.731 10.729 5.731 2.732 15.258 5.729 29.103 5.371 11.231-.29 18.555-2.125 23.211-4.053 4.498-1.863 7.381-6.311 7.38-11.18l-.001-7.478-66.426-6.904Z" fill="url(#N)"/><path opacity=".3" d="M205.488 322.653a13.102 13.102 0 0 0 3.502 2.446c6.429 3.065 48.535 9.906 58.691 6.088a13.652 13.652 0 0 0 3.544-1.958c.444-1.277.688-2.635.688-4.032l-.001-7.478-66.426-6.904.002 11.838Z" fill="url(#O)"/><path d="M208.433 301.619c-3.741-.389-6.996 2.546-6.996 6.307v.383c.001 5.13 2.921 9.829 7.552 12.037 6.429 3.064 48.535 9.906 58.691 6.088 5.112-1.922 8.28-6.312 8.279-11.774v-.308a6.339 6.339 0 0 0-5.684-6.305l-61.842-6.428Z" fill="url(#P)"/><path opacity=".3" d="m270.274 308.047-61.841-6.428c-2.44-.254-4.666.911-5.924 2.792a13.228 13.228 0 0 0 6.479 6.792c6.428 3.064 50.328 10.799 58.69 6.857 3.256-1.535 5.808-4.125 7.176-7.274a6.327 6.327 0 0 0-4.58-2.739Z" fill="url(#Q)"/><path d="M206.01 279.723a4.578 4.578 0 0 0-4.577 4.578l.002 10.585c.001 5.13 2.921 9.83 7.552 12.037 6.428 3.064 50.328 10.799 58.69 6.856 4.941-2.329 8.281-7.08 8.279-12.542l-.003-16.95a4.577 4.577 0 0 0-4.578-4.576l-65.365.012Z" fill="url(#R)"/><path d="M238.693 291.604c20.069 0 36.339-3.847 36.339-8.592 0-4.745-16.27-8.591-36.339-8.591s-36.339 3.846-36.339 8.591c0 4.745 16.27 8.592 36.339 8.592Z" fill="url(#S)"/><path d="M351.352 122.289c-.01-59.26-50.472-107.291-112.708-107.28-62.236.012-112.68 48.06-112.669 107.321.007 35.963 18.595 67.79 47.12 87.253 12.101 8.257 19.442 21.869 19.444 36.519l.002 8.212c.003 17.841 14.469 32.301 32.31 32.298l27.685-.005c17.841-.004 32.302-14.469 32.299-32.31l-.002-8.211c-.003-14.651 7.333-28.265 19.431-36.527 28.518-19.474 47.095-51.307 47.088-87.27Z" fill="url(#T)"/><path opacity=".5" d="M238.692 282.524c14.685 0 26.59-2.815 26.59-6.287s-11.905-6.286-26.59-6.286-26.59 2.814-26.59 6.286c0 3.472 11.905 6.287 26.59 6.287Z" fill="#F4F7FA"/><path d="M231.763 280.081a1.538 1.538 0 0 1-1.522-1.341l-19.589-152.119a1.537 1.537 0 0 1 3.048-.392l19.589 152.119a1.536 1.536 0 0 1-1.526 1.733Z" fill="url(#U)"/><path d="M243.913 280.078a1.537 1.537 0 0 1-1.526-1.732L261.92 126.22a1.532 1.532 0 0 1 1.72-1.328 1.536 1.536 0 0 1 1.329 1.719l-19.534 152.126a1.536 1.536 0 0 1-1.522 1.341Z" fill="url(#V)"/><path d="M259.816 126.489c-.499 0-.989-.243-1.285-.691l-5.4-8.189c-.055-.084-.141-.133-.219-.123a.24.24 0 0 0-.209.129l-3.563 5.971a3.312 3.312 0 0 1-2.77 1.626 3.306 3.306 0 0 1-2.852-1.488l-4.896-7.337a.249.249 0 0 0-.211-.121c-.104.019-.153.037-.205.112l-4.299 6.215a3.32 3.32 0 0 1-2.723 1.438h-.007a3.332 3.332 0 0 1-2.729-1.43l-6.201-8.879c-.055-.08-.134-.108-.218-.116a.243.243 0 0 0-.207.133l-5.656 9.767a1.537 1.537 0 0 1-2.659-1.54l5.656-9.768a3.314 3.314 0 0 1 2.736-1.662 3.304 3.304 0 0 1 2.868 1.427l6.2 8.879a.249.249 0 0 0 .209.116h.001a.24.24 0 0 0 .203-.113l4.298-6.215a3.317 3.317 0 0 1 5.501.052l4.895 7.336c.055.083.138.152.219.121.133-.003.189-.097.208-.128l3.563-5.971a3.308 3.308 0 0 1 2.78-1.626 3.33 3.33 0 0 1 2.853 1.504l5.4 8.189a1.536 1.536 0 0 1-1.281 2.382Z" fill="url(#W)"/><path opacity=".3" d="M240.724 206.944c2.407-41.357 72.125-51.049 71.82-87.983-.188-22.748-27.897-39.636-33.813-43.018-43.597-24.925-97.248 3.877-108.333-16.5-2.76-5.072-1.467-10.595-.731-13.74 1.113-4.754 3.633-9.182 7.371-13.232-30.752 19.165-51.07 52.251-51.063 89.859.007 35.964 18.595 67.79 47.12 87.253 12.101 8.258 19.442 21.87 19.444 36.52l.002 8.211c.003 17.841 14.469 32.301 32.31 32.298l27.685-.005c17.841-.003 32.302-14.469 32.299-32.31l-.002-6.565c-3.81 2.921-8.186 4.958-12.984 4.92-16.652-.134-32.322-25.128-31.125-45.708Z" fill="url(#X)"/><path opacity=".44" d="M240.467 220.011c53.555 0 96.971-41.87 96.971-93.518 0-51.649-43.416-93.518-96.971-93.518-53.556 0-96.971 41.87-96.971 93.518s43.415 93.518 96.971 93.518Z" fill="#F4F7FA"/><path d="M286.799 304.961c.164 0 .327-.025.484-.072l48.749-14.801a1.666 1.666 0 0 0-.968-3.189l-48.432 14.705-153.786-14.979a1.65 1.65 0 0 0-1.82 1.496 1.666 1.666 0 0 0 1.496 1.82l154.115 15.011c.055.006.109.009.162.009Z" fill="#999"/><path d="M151.241 357.327c.084 0 .169-.007.255-.02l58.445-8.967 88.918 8.559a1.667 1.667 0 0 0 .319-3.318l-89.125-8.578a1.674 1.674 0 0 0-.412.012l-58.651 8.999a1.666 1.666 0 0 0 .251 3.313Z" fill="#C2C2C2"/><path d="M257.215 367.403c.638 0 1.227-.367 1.505-.953l29.585-62.442a1.667 1.667 0 0 0-3.012-1.427l-29.084 61.386-104.808-9.965a1.668 1.668 0 0 0-.315 3.318l105.97 10.075c.053.005.106.008.159.008Z" fill="#999"/><path d="M257.212 367.402c.135 0 .271-.016.408-.05l41.805-10.496c.45-.114.833-.409 1.056-.816l36.529-66.747a1.667 1.667 0 1 0-2.924-1.599l-36.179 66.107-41.099 10.319a1.667 1.667 0 0 0 .404 3.282Z" fill="#999"/><path d="M276.039 327.672c.158 0 .316-.023.468-.067l45.912-13.457a1.668 1.668 0 0 0 1.13-2.068 1.668 1.668 0 0 0-2.067-1.13l-45.611 13.368L140.3 312.495a1.65 1.65 0 0 0-1.804 1.515 1.665 1.665 0 0 0 1.515 1.805l135.883 11.85c.048.005.097.007.145.007Zm-11.218 23.674c.152 0 .303-.02.45-.062l43.984-12.322a1.665 1.665 0 0 0 1.155-2.053 1.663 1.663 0 0 0-2.053-1.155l-43.692 12.239-117.724-10.298c-.915-.097-1.725.598-1.805 1.515a1.666 1.666 0 0 0 1.515 1.804l118.026 10.326c.048.004.096.006.144.006Z" fill="#999"/><path d="M235.575 365.346c.718 0 1.381-.468 1.597-1.191l18.867-63.3a1.666 1.666 0 1 0-3.194-.952l-18.867 63.3a1.666 1.666 0 0 0 1.597 2.143Zm-20.87-1.985c.794 0 1.497-.569 1.639-1.377l11.316-64.131a1.666 1.666 0 1 0-3.281-.58l-11.317 64.132a1.668 1.668 0 0 0 1.643 1.956Zm-23.539-2.679c.877 0 1.612-.686 1.662-1.573l3.566-63.678a1.665 1.665 0 0 0-1.57-1.757c-.925-.036-1.706.651-1.757 1.57l-3.567 63.678a1.666 1.666 0 0 0 1.666 1.76Zm-22.304-2.497c.029 0 .059 0 .088-.002a1.666 1.666 0 0 0 1.577-1.751l-3.394-64.694a1.666 1.666 0 1 0-3.327.174l3.393 64.694a1.667 1.667 0 0 0 1.663 1.579Zm100.994 6.043c.62 0 1.216-.347 1.503-.943l30.494-63.383a1.665 1.665 0 1 0-3.003-1.445l-30.494 63.383a1.667 1.667 0 0 0 1.5 2.388Zm16.942-4.254c.612 0 1.201-.338 1.492-.922l32.37-64.842a1.665 1.665 0 0 0-.746-2.234 1.663 1.663 0 0 0-2.235.746l-32.37 64.842a1.664 1.664 0 0 0 1.489 2.41Z" fill="#999"/><path d="M250.178 426.006c.21 0 .418-.04.614-.117l60.307-23.934a1.666 1.666 0 1 0-1.228-3.098l-59.913 23.778-72.749-8.887a12.779 12.779 0 0 1-10.805-9.321L126.525 259.65a16.256 16.256 0 0 0-14.471-11.875l-21.16-1.534c-.907-.053-1.715.623-1.782 1.541a1.668 1.668 0 0 0 1.542 1.783l21.159 1.534a12.917 12.917 0 0 1 11.5 9.437l39.879 144.776a16.1 16.1 0 0 0 13.614 11.744l73.17 8.938c.067.008.134.012.202.012Z" fill="#999"/><path d="M129.372 242.078c.527-.018 7.866-.224 8.563 1.948.198.615.017 1.227.017 1.227-.385 1.296-1.997 1.74-2.231 1.801 2.468 1.579 5.444 1.155 6.863-.6.994-1.229 1.282-3.181.493-4.68-.73-1.388-2.111-1.927-2.895-2.184-5.491-1.801-10.81 2.488-10.81 2.488Z" fill="url(#Y)"/><defs><linearGradient id="a" x1="191.102" y1="-30.227" x2="-18.949" y2="299.866" gradientUnits="userSpaceOnUse"><stop stop-color="#311944"/><stop offset="1" stop-color="#893976"/></linearGradient><linearGradient id="b" x1="194.226" y1="-28.152" x2="-12.55" y2="296.797" gradientUnits="userSpaceOnUse"><stop stop-color="#FF9085"/><stop offset="1" stop-color="#FB6FBB"/></linearGradient><linearGradient id="c" x1="414.293" y1="-2.347" x2="178.565" y2="293.575" gradientUnits="userSpaceOnUse"><stop stop-color="#AA80F9"/><stop offset=".996" stop-color="#6165D7"/></linearGradient><linearGradient id="f" x1="417.517" y1="110.912" x2="226.572" y2="266.926" gradientUnits="userSpaceOnUse"><stop offset=".004" stop-color="#E38DDD"/><stop offset="1" stop-color="#9571F6"/></linearGradient><linearGradient id="h" x1="395.187" y1="150.478" x2="185.785" y2="451.492" gradientUnits="userSpaceOnUse"><stop stop-color="#FF9085"/><stop offset="1" stop-color="#FB6FBB"/></linearGradient><linearGradient id="j" x1="114.033" y1="144.399" x2="86.709" y2="144.399" gradientUnits="userSpaceOnUse"><stop stop-color="#311944"/><stop offset="1" stop-color="#6B3976"/></linearGradient><linearGradient id="k" x1="69.207" y1="325.012" x2="16.684" y2="360.74" gradientUnits="userSpaceOnUse"><stop stop-color="#AB316D"/><stop offset="1" stop-color="#792D3D"/></linearGradient><linearGradient id="l" x1="117.454" y1="313.46" x2="71.699" y2="295.615" gradientUnits="userSpaceOnUse"><stop stop-color="#40447E"/><stop offset=".996" stop-color="#3C3B6B"/></linearGradient><linearGradient id="m" x1="117.454" y1="313.46" x2="71.699" y2="295.615" gradientUnits="userSpaceOnUse"><stop stop-color="#40447E"/><stop offset=".996" stop-color="#3C3B6B"/></linearGradient><linearGradient id="n" x1="145.12" y1="180.194" x2="106.969" y2="216.456" gradientUnits="userSpaceOnUse"><stop stop-color="#AA80F9"/><stop offset=".996" stop-color="#6165D7"/></linearGradient><linearGradient id="o" x1="90.408" y1="376.943" x2="80.538" y2="436.85" gradientUnits="userSpaceOnUse"><stop stop-color="#AB316D"/><stop offset="1" stop-color="#792D3D"/></linearGradient><linearGradient id="p" x1="95.29" y1="275.078" x2="65.477" y2="333.702" gradientUnits="userSpaceOnUse"><stop stop-color="#40447E"/><stop offset=".996" stop-color="#3C3B6B"/></linearGradient><linearGradient id="q" x1="81.831" y1="264.423" x2="62.775" y2="329.001" gradientUnits="userSpaceOnUse"><stop stop-color="#40447E"/><stop offset=".996" stop-color="#3C3B6B"/></linearGradient><linearGradient id="r" x1="101.977" y1="203.286" x2="-4.955" y2="266.602" gradientUnits="userSpaceOnUse"><stop stop-color="#AA80F9"/><stop offset=".996" stop-color="#6165D7"/></linearGradient><linearGradient id="s" x1="99.165" y1="197.92" x2="103.595" y2="205.734" gradientUnits="userSpaceOnUse"><stop stop-color="#FFC444"/><stop offset=".996" stop-color="#F36F56"/></linearGradient><linearGradient id="t" x1="102.858" y1="219.99" x2="113.857" y2="190.057" gradientUnits="userSpaceOnUse"><stop stop-color="#FFC444"/><stop offset=".996" stop-color="#F36F56"/></linearGradient><linearGradient id="u" x1="100.983" y1="210.199" x2="84.2" y2="221.445" gradientUnits="userSpaceOnUse"><stop stop-color="#311944"/><stop offset="1" stop-color="#A03976"/></linearGradient><linearGradient id="v" x1="85.919" y1="187.236" x2="107.141" y2="140.271" gradientUnits="userSpaceOnUse"><stop stop-color="#311944"/><stop offset="1" stop-color="#893976"/></linearGradient><linearGradient id="w" x1="92.824" y1="182.071" x2="97.888" y2="152.989" gradientUnits="userSpaceOnUse"><stop stop-color="#311944"/><stop offset="1" stop-color="#A03976"/></linearGradient><linearGradient id="x" x1="104.384" y1="202.77" x2="-5.406" y2="267.778" gradientUnits="userSpaceOnUse"><stop stop-color="#AA80F9"/><stop offset=".996" stop-color="#6165D7"/></linearGradient><linearGradient id="y" x1="75.253" y1="191.278" x2="19.73" y2="226.46" gradientUnits="userSpaceOnUse"><stop stop-color="#AA80F9"/><stop offset=".996" stop-color="#6165D7"/></linearGradient><linearGradient id="z" x1="316.402" y1="404.132" x2="312.887" y2="407.088" gradientUnits="userSpaceOnUse"><stop stop-color="#AA80F9"/><stop offset=".996" stop-color="#6165D7"/></linearGradient><linearGradient id="A" x1="314.122" y1="410.848" x2="301.415" y2="410.848" gradientUnits="userSpaceOnUse"><stop stop-color="#AA80F9"/><stop offset=".996" stop-color="#6165D7"/></linearGradient><linearGradient id="B" x1="310.432" y1="411.016" x2="305.107" y2="411.016" gradientUnits="userSpaceOnUse"><stop stop-color="#40447E"/><stop offset=".996" stop-color="#3C3B6B"/></linearGradient><linearGradient id="C" x1="248.379" y1="396.803" x2="244.864" y2="399.759" gradientUnits="userSpaceOnUse"><stop stop-color="#AA80F9"/><stop offset=".996" stop-color="#6165D7"/></linearGradient><linearGradient id="D" x1="246.099" y1="403.519" x2="233.392" y2="403.519" gradientUnits="userSpaceOnUse"><stop stop-color="#AA80F9"/><stop offset=".996" stop-color="#6165D7"/></linearGradient><linearGradient id="E" x1="242.409" y1="403.687" x2="237.084" y2="403.687" gradientUnits="userSpaceOnUse"><stop stop-color="#40447E"/><stop offset=".996" stop-color="#3C3B6B"/></linearGradient><linearGradient id="F" x1="148.928" y1="245.649" x2="87.442" y2="245.649" gradientUnits="userSpaceOnUse"><stop stop-color="#40447E"/><stop offset=".996" stop-color="#3C3B6B"/></linearGradient><linearGradient id="G" x1="256.722" y1="426.927" x2="253.207" y2="429.883" gradientUnits="userSpaceOnUse"><stop stop-color="#AA80F9"/><stop offset=".996" stop-color="#6165D7"/></linearGradient><linearGradient id="H" x1="254.442" y1="433.642" x2="241.735" y2="433.642" gradientUnits="userSpaceOnUse"><stop stop-color="#AA80F9"/><stop offset=".996" stop-color="#6165D7"/></linearGradient><linearGradient id="I" x1="250.752" y1="433.811" x2="245.427" y2="433.811" gradientUnits="userSpaceOnUse"><stop stop-color="#40447E"/><stop offset=".996" stop-color="#3C3B6B"/></linearGradient><linearGradient id="J" x1="197.829" y1="421.031" x2="194.314" y2="423.987" gradientUnits="userSpaceOnUse"><stop stop-color="#AA80F9"/><stop offset=".996" stop-color="#6165D7"/></linearGradient><linearGradient id="K" x1="195.549" y1="427.746" x2="182.842" y2="427.746" gradientUnits="userSpaceOnUse"><stop stop-color="#AA80F9"/><stop offset=".996" stop-color="#6165D7"/></linearGradient><linearGradient id="L" x1="191.858" y1="427.915" x2="186.534" y2="427.915" gradientUnits="userSpaceOnUse"><stop stop-color="#40447E"/><stop offset=".996" stop-color="#3C3B6B"/></linearGradient><linearGradient id="M" x1="236.359" y1="353.229" x2="238.357" y2="337.218" gradientUnits="userSpaceOnUse"><stop offset=".004" stop-color="#26264F"/><stop offset="1" stop-color="#444B8C"/></linearGradient><linearGradient id="N" x1="228.125" y1="338.638" x2="248.131" y2="302.61" gradientUnits="userSpaceOnUse"><stop offset=".004" stop-color="#26264F"/><stop offset="1" stop-color="#444B8C"/></linearGradient><linearGradient id="O" x1="205.488" y1="321.571" x2="271.913" y2="321.557" gradientUnits="userSpaceOnUse"><stop offset=".004" stop-color="#26264F"/><stop offset="1" stop-color="#444B8C"/></linearGradient><linearGradient id="P" x1="230.029" y1="328.793" x2="249.784" y2="290.764" gradientUnits="userSpaceOnUse"><stop offset=".004" stop-color="#26264F"/><stop offset="1" stop-color="#444B8C"/></linearGradient><linearGradient id="Q" x1="202.51" y1="310.376" x2="274.854" y2="310.361" gradientUnits="userSpaceOnUse"><stop offset=".004" stop-color="#26264F"/><stop offset="1" stop-color="#444B8C"/></linearGradient><linearGradient id="R" x1="201.436" y1="297.305" x2="275.956" y2="297.29" gradientUnits="userSpaceOnUse"><stop offset=".004" stop-color="#26264F"/><stop offset="1" stop-color="#444B8C"/></linearGradient><linearGradient id="S" x1="236.844" y1="291.677" x2="244.175" y2="257.32" gradientUnits="userSpaceOnUse"><stop offset=".004" stop-color="#26264F"/><stop offset="1" stop-color="#444B8C"/></linearGradient><linearGradient id="T" x1="222.715" y1="99.973" x2="368.353" y2="331.089" gradientUnits="userSpaceOnUse"><stop stop-color="#FCB148"/><stop offset=".052" stop-color="#FDBA46"/><stop offset=".142" stop-color="#FFC244"/><stop offset=".318" stop-color="#FFC444"/><stop offset=".485" stop-color="#FDB946"/><stop offset=".775" stop-color="#F99C4D"/><stop offset=".866" stop-color="#F8924F"/><stop offset="1" stop-color="#F8924F"/></linearGradient><linearGradient id="U" x1="196.152" y1="277.959" x2="225.822" y2="191.226" gradientUnits="userSpaceOnUse"><stop offset=".494" stop-color="#EBEFF2"/><stop offset="1" stop-color="#fff"/></linearGradient><linearGradient id="V" x1="224.536" y1="287.668" x2="254.206" y2="200.936" gradientUnits="userSpaceOnUse"><stop offset=".494" stop-color="#EBEFF2"/><stop offset="1" stop-color="#fff"/></linearGradient><linearGradient id="W" x1="185.816" y1="274.417" x2="215.485" y2="187.688" gradientUnits="userSpaceOnUse"><stop offset=".494" stop-color="#EBEFF2"/><stop offset="1" stop-color="#fff"/></linearGradient><linearGradient id="X" x1="227.815" y1="47.869" x2="198.843" y2="287.039" gradientUnits="userSpaceOnUse"><stop stop-color="#FCB148"/><stop offset=".052" stop-color="#FDBA46"/><stop offset=".142" stop-color="#FFC244"/><stop offset=".318" stop-color="#FFC444"/><stop offset=".485" stop-color="#FDB946"/><stop offset=".775" stop-color="#F99C4D"/><stop offset=".866" stop-color="#F8924F"/><stop offset="1" stop-color="#F8924F"/></linearGradient><linearGradient id="Y" x1="130.163" y1="232.544" x2="136.769" y2="242.753" gradientUnits="userSpaceOnUse"><stop stop-color="#311944"/><stop offset="1" stop-color="#A03976"/></linearGradient></defs></svg>