<svg width="553" height="443" fill="none" xmlns="http://www.w3.org/2000/svg"><g clip-path="url(#a)"><path d="M604.005 381.729H-67.112v.336h671.117v-.336Zm-496.134 12.783H3.301v.335h104.57v-.335Zm428.889 10.209h-50.872v.336h50.872v-.336Zm-401.785 2.255h-25.76v.336h25.76v-.336Zm127.244-16.107h-57.975v.336h57.975v-.336Zm20.45 0h-8.5v.336h8.5v-.336Zm148.039 8.186h-58.014v.335h58.014v-.335Zm-179.692-77.187H-8.167c-4.225 0-7.662-3.438-7.662-7.662V-50.119c0-4.224 3.438-7.661 7.662-7.661h259.183c4.223 0 7.66 3.437 7.66 7.661v364.325c0 4.224-3.437 7.662-7.66 7.662ZM-8.167-57.443c-4.04 0-7.326 3.285-7.326 7.325v364.326c0 4.04 3.285 7.325 7.326 7.325h259.183c4.039 0 7.325-3.285 7.325-7.325V-50.119c0-4.039-3.286-7.326-7.325-7.326l-259.183.002Zm549.503 379.311H282.153c-4.224 0-7.66-3.438-7.66-7.662V-50.119c0-4.224 3.438-7.661 7.66-7.661h259.183c4.225 0 7.661 3.437 7.661 7.661v364.325c.002 4.224-3.436 7.662-7.661 7.662ZM282.153-57.443c-4.038 0-7.324 3.285-7.324 7.325v364.326c0 4.04 3.286 7.325 7.324 7.325h259.183c4.04 0 7.326-3.285 7.326-7.325V-50.119c0-4.039-3.286-7.326-7.326-7.326l-259.183.002Z" fill="#EBEBEB"/><path d="M111.227 351.045H45.28a5.923 5.923 0 0 1-5.86-5.066L22.912 233.134c-.522-3.575 2.248-6.78 5.86-6.78H94.72a5.924 5.924 0 0 1 5.86 5.066l16.507 112.845c.523 3.573-2.247 6.78-5.859 6.78Z" fill="#F0F0F0"/><path d="M53.124 351.044H22.03a5.923 5.923 0 0 1-5.86-5.065L-.338 233.135c-.522-3.575 2.248-6.78 5.86-6.78h31.094a5.923 5.923 0 0 1 5.86 5.066l16.507 112.845c.524 3.572-2.247 6.778-5.859 6.778Z" fill="#FAFAFA"/><path d="M446.727 197.755H126.195c-8.14 0-15.305 6.105-16.002 13.635l-8.067 87.125c-.697 7.53 5.337 13.635 13.478 13.635h320.532c8.14 0 15.305-6.105 16.002-13.635l8.067-87.125c.696-7.53-5.337-13.635-13.478-13.635Z" fill="#E0E0E0"/><path d="M424.97 197.755H104.438c-8.14 0-15.306 6.105-16.002 13.635l-8.067 87.125c-.698 7.53 5.337 13.635 13.477 13.635h320.532c8.141 0 15.306-6.105 16.002-13.635l8.067-87.125c.697-7.53-5.337-13.635-13.477-13.635Z" fill="#E6E6E6"/><path d="M63.972 341.388v-31.021a9.657 9.657 0 0 1 9.657-9.657h120.726c5.333 0 9.658 4.323 9.658 9.657v31.021c0 5.334-4.324 9.657-9.658 9.657H73.63a9.657 9.657 0 0 1-9.658-9.657Z" fill="#EBEBEB"/><path d="M238.538 342.208v-32.659a8.837 8.837 0 0 1 8.837-8.838h140.898a8.838 8.838 0 0 1 8.837 8.838v32.659a8.838 8.838 0 0 1-8.837 8.837H247.375a8.837 8.837 0 0 1-8.837-8.837Z" fill="#E0E0E0"/><path d="M204.011 342.208v-32.659a8.838 8.838 0 0 1 8.838-8.838h140.898a8.838 8.838 0 0 1 8.837 8.838v32.659a8.838 8.838 0 0 1-8.837 8.837H212.849a8.838 8.838 0 0 1-8.838-8.837Z" fill="#EBEBEB"/><path d="M445.844 351.045h-49.058c-3.612 0-5.975-3.205-4.996-6.78l30.897-112.845c.796-2.909 3.566-5.066 6.505-5.066h49.059c3.612 0 5.974 3.205 4.996 6.78L452.35 345.978c-.796 2.91-3.566 5.067-6.506 5.067Z" fill="#F0F0F0"/><path d="M404.628 351.045h-31.094c-3.612 0-5.974-3.205-4.996-6.78l30.897-112.845c.796-2.909 3.566-5.066 6.506-5.066h31.094c3.612 0 5.974 3.205 4.996 6.78l-30.897 112.844c-.796 2.91-3.565 5.067-6.506 5.067Z" fill="#FAFAFA"/><path d="M378.613 381.728h-4.719l-11.31-30.683h11.691l4.338 30.683Zm59.889 0h-4.719l-11.31-30.683h11.691l4.338 30.683Zm-340.422 0h4.719l11.308-30.683h-11.689l-4.338 30.683Zm-59.89 0h4.72l11.31-30.683H42.528l-4.338 30.683ZM447.408-.447H89.485v127.661h357.923V-.446Z" fill="#E0E0E0"/><path d="M444.127-.447H86.205v127.661h357.922V-.446Z" fill="#F0F0F0"/><path d="M433.389 116.476V10.291H96.942v106.185H433.39Z" fill="#FAFAFA"/><path d="M265.165 95.223c17.585 0 31.84-14.255 31.84-31.84s-14.255-31.84-31.84-31.84-31.841 14.255-31.841 31.84 14.256 31.84 31.841 31.84Z" fill="#F0F0F0"/><path d="m151.558 116.476 22.3-106.185h49.214l-22.298 106.185h-49.216Zm69.982 0 22.299-106.185h24.608l-22.299 106.185H221.54Zm150.25 0 22.3-106.185h24.608l-22.299 106.185H371.79Z" fill="#fff"/><path d="M526.529 206.385c-8.352 36.191 12.077 73.572 3.726 109.763l-8.27-.344-8.269-.344c13.864-35.961-1.053-73.114 12.813-109.075Zm-21.402 15.695c6.842 34.6-15.119 69.198-8.278 103.799h16.555c-12.36-34.602 4.083-69.199-8.277-103.799Z" fill="#F0F0F0"/><path d="M520.404 193.311c-10.947 36.899 9.402 76.719-1.544 113.618l-8.993-.84c-2.997-.281-5.995-.56-8.992-.84 16.941-36.339 2.587-75.599 19.529-111.938Z" fill="#E6E6E6"/><path d="M536.53 246.444c3.531 19.953-16.158 35.642-12.627 55.594 2.224.408 4.448.816 6.672 1.226l6.673 1.225c-7.979-20.77 7.261-37.275-.718-58.045Z" fill="#E6E6E6"/><path d="M543.829 300.711h-54.075a92.08 92.08 0 0 0 0 81.018h54.075a92.08 92.08 0 0 0 0-81.018Z" fill="#E0E0E0"/><path d="M39.729 77.946c65.783-152.99 435.964-128.213 329.337 69.95-40.811 75.845-135.035 121.342-220.771 109.413C52.785 244.02-1.815 174.565 39.729 77.946Z" fill="#407BFF"/><path opacity=".9" d="M39.729 77.946c65.783-152.99 435.964-128.213 329.337 69.95-40.811 75.845-135.035 121.342-220.771 109.413C52.785 244.02-1.815 174.565 39.729 77.946Z" fill="#fff"/><path d="M268.447 442.348c143.729 0 260.244-6.805 260.244-15.198 0-8.394-116.515-15.198-260.244-15.198-143.729 0-260.245 6.804-260.245 15.198 0 8.393 116.516 15.198 260.245 15.198Z" fill="#F5F5F5"/><path d="M448.032 237.032H157.979c-3.127 0-5.544-2.559-5.373-5.686l9.769-177.826c.172-3.127 2.871-5.686 5.999-5.686h290.052c3.127 0 5.545 2.559 5.373 5.686l-9.769 177.826c-.172 3.127-2.871 5.686-5.998 5.686Z" fill="#263238"/><path d="M326.02 78.076h-28.038c-9.348 0-16.579-7.638-16.066-16.973l.284-5.188c.497-9.045 8.316-16.445 17.374-16.445h28.019c9.36 0 16.597 7.646 16.083 16.992l-.283 5.17c-.495 9.044-8.314 16.444-17.373 16.444Z" fill="#263238"/><path d="M351.544 421.545h-8.983L317.83 43.431h8.984l24.73 378.114Zm-67.428 0h8.983L317.83 43.431h-8.984l-24.73 378.114Z" fill="#263238"/><path d="M446.488 237.032H156.436c-3.128 0-5.545-2.559-5.373-5.686l9.769-177.826c.172-3.127 2.871-5.686 5.997-5.686h290.052c3.128 0 5.545 2.559 5.373 5.686l-9.768 177.826c-.172 3.127-2.872 5.686-5.998 5.686Z" fill="#407BFF"/><path opacity=".4" d="M161.038 231.583c-2.503 0-4.429-2.036-4.291-4.541l9.295-169.218c.137-2.503 2.286-4.54 4.791-4.54h281.446c2.503 0 4.428 2.037 4.291 4.54l-9.295 169.218c-.138 2.503-2.286 4.541-4.789 4.541H161.038Z" fill="#263238"/><path opacity=".1" d="M444.229 141.887h-84.717c-2.13 0-3.763-1.727-3.646-3.857l4.231-77.026a.511.511 0 0 0-.516-.544.58.58 0 0 0-.574.544l-4.231 77.026c-.116 2.13-1.939 3.857-4.069 3.857h-88.039c-2.13 0-3.762-1.727-3.645-3.857l4.23-77.026a.51.51 0 0 0-.515-.544.58.58 0 0 0-.574.544l-4.231 77.026c-.117 2.13-1.938 3.857-4.07 3.857h-84.718c-.3 0-.558.245-.574.545a.51.51 0 0 0 .515.545h84.718c2.13 0 3.762 1.728 3.646 3.858l-4.231 77.025a.51.51 0 0 0 .515.545.582.582 0 0 0 .575-.545l4.231-77.025c.116-2.13 1.939-3.858 4.069-3.858h88.039c2.13 0 3.762 1.728 3.645 3.858l-4.231 77.025a.51.51 0 0 0 .516.545c.3 0 .558-.244.574-.545l4.231-77.025c.117-2.13 1.94-3.858 4.07-3.858h84.717a.582.582 0 0 0 .575-.545.512.512 0 0 0-.516-.545Z" fill="#fff"/><path opacity=".4" d="M306.102 74.42h-34.029l-1.902 34.609 33.98.909 1.951-35.517Z" fill="#263238"/><path d="m302.412 108.45-34.155-1.664a299.237 299.237 0 0 0 3.553-35.314c11.453.554 22.905 1.108 34.355 1.664a299.473 299.473 0 0 1-3.753 35.314Z" fill="#fff"/><path opacity=".4" d="m347.124 97.54-34.072 2.599.747 34.507 34.092-1.692-.767-35.414Z" fill="#263238"/><path d="m346.036 131.609-34.325.954a295.194 295.194 0 0 0 .852-35.334c11.51-.324 23.019-.649 34.525-.97a296.119 296.119 0 0 1-1.052 35.35Z" fill="#407BFF"/><path opacity=".4" d="m247.611 160.483-62.819-2.399-5.637 55.884 62.671 3.865 5.785-57.35Z" fill="#263238"/><path d="M238.708 215.303c-20.98-1.701-41.964-3.403-62.948-5.103 4.213-18.907 7.126-37.91 8.73-56.911 21.109 1.705 42.214 3.409 63.317 5.115-1.727 19-4.765 38.002-9.099 56.899Z" fill="#fff"/><g opacity=".3" fill="#263238"><path d="M182.956 82.24a3.328 3.328 0 0 1-3.348-3.542c.108-1.947 1.788-3.542 3.737-3.542a3.328 3.328 0 0 1 3.348 3.542c-.108 1.95-1.79 3.543-3.737 3.543Z"/><path opacity=".8" d="M238.465 82.24h-43.588a3.327 3.327 0 0 1-3.347-3.542c.107-1.947 1.788-3.542 3.737-3.542h43.587a3.328 3.328 0 0 1 3.348 3.542c-.107 1.95-1.789 3.543-3.737 3.543Z"/><path d="M182.107 97.684a3.327 3.327 0 0 1-3.347-3.54c.107-1.948 1.788-3.542 3.735-3.542a3.328 3.328 0 0 1 3.348 3.542c-.106 1.947-1.788 3.54-3.736 3.54Z"/><path opacity=".8" d="M245.336 97.684h-51.307a3.326 3.326 0 0 1-3.346-3.54c.107-1.948 1.788-3.542 3.735-3.542h51.307a3.328 3.328 0 0 1 3.348 3.542c-.109 1.947-1.789 3.54-3.737 3.54Z"/><path d="M181.259 113.129a3.327 3.327 0 0 1-3.347-3.542c.107-1.948 1.788-3.543 3.737-3.543a3.328 3.328 0 0 1 3.347 3.543c-.107 1.949-1.789 3.542-3.737 3.542Z"/><path opacity=".8" d="M218.153 113.129h-24.972a3.327 3.327 0 0 1-3.348-3.542c.108-1.948 1.788-3.543 3.736-3.543h24.972a3.327 3.327 0 0 1 3.347 3.543c-.107 1.949-1.787 3.542-3.735 3.542Zm23.124 15.445h-24.972a3.328 3.328 0 0 1-3.348-3.543c.108-1.947 1.788-3.542 3.737-3.542h24.972a3.327 3.327 0 0 1 3.348 3.542c-.108 1.949-1.788 3.543-3.737 3.543Z"/><path d="M180.411 128.574a3.328 3.328 0 0 1-3.348-3.543c.108-1.947 1.788-3.542 3.736-3.542a3.327 3.327 0 0 1 3.347 3.542c-.106 1.949-1.788 3.543-3.735 3.543Z"/><path opacity=".8" d="M203.865 128.574h-11.532a3.328 3.328 0 0 1-3.348-3.543c.108-1.947 1.788-3.542 3.736-3.542h11.532a3.327 3.327 0 0 1 3.348 3.542c-.108 1.949-1.788 3.543-3.736 3.543Z"/></g><path d="M288.775 174.532h-16.903l-2.323 42.291h16.902l2.324-42.291Zm25.636 8.718h-16.903l-1.843 33.574h16.902l1.844-33.574Zm27.354-22.52h-16.903l-3.081 56.095h16.902l3.082-56.095Z" fill="#407BFF"/><path d="M275.634 198.397c-1.674 0-3.361-.044-5.068-.132-2.952-.151-6.781-.524-10.225-2.073a1.09 1.09 0 0 1 .894-1.99c3.112 1.4 6.681 1.743 9.442 1.885 20.28 1.043 38.039-4.239 55.912-16.621 4.262-2.952 10.624-8.413 14.534-14.088a1.09 1.09 0 0 1 1.795 1.236c-4.071 5.913-10.463 11.441-15.087 14.644-16.787 11.63-33.498 17.139-52.197 17.139Z" fill="#fff"/><path d="M345.434 173.729a1.088 1.088 0 0 1-1.006-1.506c1.543-3.737 1.868-7.938.938-11.739a73.58 73.58 0 0 1-13.503 7.169 1.091 1.091 0 0 1-.816-2.022 71.354 71.354 0 0 0 14.316-7.79 1.09 1.09 0 0 1 1.659.544c1.567 4.64 1.355 9.987-.581 14.672a1.09 1.09 0 0 1-1.007.672Z" fill="#fff"/><path d="M434.439 132.034h-62.875a3.769 3.769 0 0 1-2.767-1.174 3.777 3.777 0 0 1-1.023-2.834l2.92-53.154c.119-2.177 1.989-3.947 4.166-3.947h62.876c1.067 0 2.049.417 2.766 1.174a3.774 3.774 0 0 1 1.023 2.834l-2.92 53.152c-.119 2.177-1.989 3.949-4.166 3.949Zm-59.578-60.02c-1.608 0-2.989 1.31-3.077 2.919l-2.92 53.152a2.708 2.708 0 0 0 .725 2.026c.509.536 1.21.833 1.975.833h62.875c1.608 0 2.989-1.309 3.078-2.918l2.919-53.154a2.698 2.698 0 0 0-.725-2.024 2.685 2.685 0 0 0-1.974-.833h-62.876Z" fill="#407BFF"/><path d="M440.391 86.175H370.65a.545.545 0 0 1 0-1.09h69.741a.546.546 0 0 1 0 1.09Z" fill="#407BFF"/><path d="m384.598 132.034-.031-.001a.546.546 0 0 1-.514-.575l2.519-45.857a.54.54 0 0 1 .575-.514c.301.016.53.274.514.574l-2.519 45.859a.546.546 0 0 1-.544.514Zm47.805-40.41H394.54a.545.545 0 0 1 0-1.09h37.863a.545.545 0 0 1 0 1.09Zm-5.704 6.688h-32.527a.546.546 0 0 1 0-1.09h32.527a.545.545 0 0 1 0 1.09Zm-13.973 6.899h-18.932a.545.545 0 1 1 0-1.089h18.932a.545.545 0 1 1 0 1.089Zm3.439 13.466h-23.111a.545.545 0 1 1 0-1.09h23.111a.545.545 0 1 1 0 1.09Zm-4.559 6.9h-18.932a.546.546 0 0 1 0-1.09h18.932a.546.546 0 0 1 0 1.09Zm11.083 0h-6.067a.546.546 0 0 1 0-1.09h6.067a.546.546 0 0 1 0 1.09Zm6.191-13.679h-35.454a.545.545 0 1 1 0-1.09h35.454a.546.546 0 0 1 0 1.09Z" fill="#407BFF"/><path d="M395.83 209.364c-8.215 0-14.945-2.428-19.126-6.943-4.463-4.82-6.314-12.401-5.08-20.798.756-5.144 2.436-9.459 4.996-12.828 2.569-3.38 6.284-6.166 11.044-8.283 10.501-4.671 22.656-4.507 32.516.439 4.419 2.216 7.187 5.02 8.23 8.333a1.09 1.09 0 0 1-2.079.653c-.859-2.729-3.258-5.098-7.129-7.038-9.282-4.657-20.742-4.803-30.654-.395-4.42 1.966-7.849 4.526-10.194 7.61-2.334 3.071-3.874 7.051-4.576 11.825-1.138 7.742.51 14.668 4.523 19.001 5.577 6.024 14.811 6.455 19.819 6.18 9.309-.516 17.318-3.768 22.552-9.157 6.12-6.302 7.837-15.73 3.992-21.929-.745-1.202-2.348-3.251-4.702-3.486a1.088 1.088 0 0 1-.976-1.192 1.093 1.093 0 0 1 1.192-.976c2.436.243 4.686 1.843 6.338 4.506 4.357 7.024 2.516 17.598-4.279 24.598-5.617 5.782-14.138 9.267-23.995 9.814-.816.043-1.622.066-2.412.066Z" fill="#fff"/><path d="m117.203 95.748-3.871 6.745-3.794 6.889c-2.497 4.602-4.884 9.242-7.062 13.905a148.638 148.638 0 0 0-3.06 7.006l-.174.422a.63.63 0 0 1-.056.101c-.06.068-.08.127-.116.185-.072.118-.12.232-.182.385-.1.302-.062.819.16 1.505.428 1.393 1.688 3.211 3.234 4.901 1.516 1.701 3.477 3.441 5.242 4.967l-3.146 6.702c-1.599-.456-2.929-.917-4.339-1.533-1.393-.588-2.747-1.299-4.097-2.102-2.667-1.647-5.346-3.683-7.565-7.016-1.08-1.668-2.004-3.732-2.367-6.122-.165-1.189-.224-2.434-.07-3.648.068-.609.156-1.215.308-1.789l.219-.872.165-.531c.863-2.745 1.755-5.46 2.804-8.079a169.35 169.35 0 0 1 6.845-15.314c1.252-2.48 2.552-4.93 3.919-7.341 1.376-2.432 2.716-4.78 4.29-7.23l12.713 7.864Z" fill="#FFC3BD"/><path d="m104.156 142.002 7.054-1.833.404 11.386s-5.517.82-8.895-2.555l1.437-6.998Z" fill="#FFC3BD"/><path d="m121.202 138.25-1.59 9.997-8 3.309-.404-11.387 9.994-1.919Z" fill="#FFC3BD"/><path d="M150.375 42.088c.158.78.699 1.327 1.209 1.224.51-.104.793-.819.635-1.599-.159-.78-.7-1.327-1.21-1.224-.508.105-.793.82-.634 1.599Z" fill="#263238"/><path d="M151.003 43.43s2.685 4.136 5.077 5.908c-1.117 1.568-3.581 1.456-3.581 1.456l-1.496-7.364Z" fill="#ED847E"/><path d="M146.642 38.341a.468.468 0 0 1-.343-.784c1.755-1.898 3.882-1.56 3.973-1.545a.468.468 0 0 1 .383.539.471.471 0 0 1-.537.382c-.07-.01-1.734-.255-3.134 1.258a.458.458 0 0 1-.342.15Z" fill="#263238"/><path d="M128.173 53.05c1.414 7.214 2.825 20.432-2.222 25.246 0 0 1.972 7.317 15.376 7.317 14.739 0 7.044-7.316 7.044-7.316-8.044-1.92-7.836-7.89-6.435-13.494l-13.763-11.752Z" fill="#FFC3BD"/><path d="M123.044 79.634c-1.078-2.004-2.264-4.298.191-5.016 2.7-.79 20.047-2.256 25.144-.773-1.567 2.785 1.084 6.208 1.084 6.208l-26.419-.419Z" fill="#263238"/><path d="M79.377 415.933c.99.213 1.978.271 2.455-.134.2-.171.401-.497.227-1.085a1.08 1.08 0 0 0-.602-.687c-1.331-.636-4.39.612-4.522.664a.234.234 0 0 0-.012.427c.468.224 1.46.599 2.454.815Zm1.604-1.577c.1.021.193.052.274.091a.629.629 0 0 1 .355.399c.125.42-.03.553-.081.596-.53.451-2.5.035-3.886-.52.94-.331 2.463-.755 3.338-.566Z" fill="#407BFF"/><path d="M76.976 415.135a.251.251 0 0 0 .115-.004c1.114-.327 3.5-2.02 3.529-3.139.005-.202-.066-.57-.597-.755a1.272 1.272 0 0 0-1.035.083c-1.318.672-2.15 3.404-2.185 3.519a.235.235 0 0 0 .173.296Zm2.79-3.486a.785.785 0 0 1 .102.029c.289.101.285.242.284.302-.017.661-1.591 1.991-2.745 2.529.288-.788.947-2.342 1.792-2.773a.83.83 0 0 1 .567-.087Zm72.412 5.938c1.266 0 2.489-.175 2.898-.743.144-.198.257-.538-.02-1.02-.154-.271-.404-.455-.739-.546-1.642-.446-5.087 1.518-5.234 1.601a.234.234 0 0 0 .071.433c.629.123 1.845.275 3.024.275Zm1.564-1.913c.165 0 .317.016.451.054.216.059.365.165.458.326.165.29.105.433.046.517-.46.637-2.952.652-4.784.393.913-.47 2.676-1.29 3.829-1.29Z" fill="#407BFF"/><path d="M149.2 417.315a.245.245 0 0 0 .095-.02c1.191-.535 3.548-2.667 3.368-3.781-.043-.262-.228-.588-.87-.653a1.705 1.705 0 0 0-1.295.4c-1.255 1.03-1.52 3.686-1.532 3.799a.234.234 0 0 0 .234.255Zm2.405-3.997c.046 0 .093.002.141.006.42.043.447.208.455.263.109.669-1.494 2.345-2.708 3.075.126-.775.477-2.365 1.301-3.04.249-.205.515-.304.811-.304Z" fill="#407BFF"/><path d="M138.356 417.081h9.862l.981-22.835h-9.86l-.983 22.835Zm-72.372-4.566 9.638 2.087 9.674-21.269-9.637-2.087-9.675 21.269Z" fill="#FFC3BD"/><path d="m76.548 413.635-10.827-2.343a.857.857 0 0 0-.962.48L61 419.926a1.45 1.45 0 0 0 1.04 2.019c3.793.753 5.678.929 10.44 1.96 2.928.633 9.542 2.245 13.587 3.12 3.957.857 5.439-3.009 3.862-3.73-7.074-3.232-10.03-6.077-11.944-8.73a2.41 2.41 0 0 0-1.438-.93Zm71.604 2.303h-10.769a.862.862 0 0 0-.84.674l-1.948 8.765a1.435 1.435 0 0 0 1.419 1.754c3.884-.065 9.498-.294 14.379-.294 5.709 0 10.639.312 17.334.312 4.048 0 5.172-4.093 3.476-4.463-7.714-1.687-14.011-1.868-20.678-5.978-.722-.447-1.522-.77-2.373-.77Z" fill="#263238"/><path d="M108.297 80.525c-9.241 2.12-16.861 25.712-16.861 25.712l18.559 14.146s6.812-6.423 9.842-18.224c3.176-12.366-2.091-23.8-11.54-21.634Z" fill="#407BFF"/><path opacity=".2" d="M108.297 80.525c-9.241 2.12-16.861 25.712-16.861 25.712l18.559 14.146s6.812-6.423 9.842-18.224c3.176-12.366-2.091-23.8-11.54-21.634Z" fill="#FAFAFA"/><path opacity=".2" d="M116.217 97.875c-5.02 4.966-6.657 14.013-7.046 21.878l.818.631s6.819-6.429 9.852-18.227c.188-.739.349-1.477.484-2.201l-4.108-2.081Z" fill="#000"/><path d="M163.538 81.033s10.495 11.854.584 85.228h-52.741c-.363-8.097 4.724-47.591-3.084-85.737 0 0 9.04-1.815 17.656-2.23 6.739-.324 16.494-.539 22.419.002 7.809.713 15.166 2.737 15.166 2.737Z" fill="#407BFF"/><path opacity=".2" d="M163.538 81.033s10.495 11.854.584 85.228h-52.741c-.363-8.097 4.724-47.591-3.084-85.737 0 0 9.04-1.815 17.656-2.23 6.739-.324 16.494-.539 22.419.002 7.809.713 15.166 2.737 15.166 2.737Z" fill="#FAFAFA"/><path opacity=".2" d="m168.148 103.46-.201-.175-11.986 2.873c-.685 8.107 7.651 17.798 11.946 22.227.59-10.349.577-18.509.241-24.925Zm-18.951 290.793-.505 11.77h-9.865l.505-11.77h9.865Zm-73.542-3 9.641 2.087-4.993 10.962-9.64-2.087 4.992-10.962Z" fill="#000"/><path d="M124.043 45.72c2.532 9.452 3.535 15.113 9.368 19.043 8.775 5.913 19.699-.872 20.041-10.892.308-9.019-3.887-22.962-14.03-24.866-9.994-1.875-17.912 7.263-15.379 16.715Z" fill="#FFC3BD"/><path d="M128.383 61.134c4.019 2.3 18.672-5.387 15.663-17.037 0 0 5.582-6.713 4.951-14.12-.631-7.408-5.715-10.231-11.124-8.642-4.768 1.401-4.629 4.012-4.629 4.012s-22.534 2.652-17.725 11.812c-9.171 10 7.848 21.104 12.864 23.975Z" fill="#263238"/><path d="M116.152 37.922s-2.685-4.646-6.6-2.044c1.847.026 4.867.342 6.6 2.044Zm32.127-3.063s4.912-11.086-2.745-14.655c2.582 3.592 3.986 9.39 2.745 14.655Z" fill="#263238"/><path d="M140.127 46.116c.642 2.48 2.273 4.615 3.979 5.883 2.567 1.909 4.483.03 4.301-2.874-.164-2.613-1.697-6.757-4.528-7.531-2.79-.762-4.488 1.686-3.752 4.522Z" fill="#FFC3BD"/><path d="M145.412 166.262s-11.19 75.356-17.333 103.587c-6.728 30.916-42.802 133.198-42.802 133.198l-17.651-3.821s25.224-83.354 30.871-126.574c4.337-33.199 12.884-106.39 12.884-106.39h34.031Z" fill="#263238"/><path d="M89.504 397.155c.075.016-3.29 6.383-3.29 6.383l-19.86-4.299 1.674-5.97 21.476 3.886Z" fill="#407BFF"/><path opacity=".3" d="M138.34 193.111c-12.939 2.536-11.57 50.79-10.013 75.607 3.731-17.542 9.194-51.3 12.926-75.259-.859-.429-1.826-.563-2.913-.348Z" fill="#000"/><path d="M164.122 166.262s1.358 73.725.285 103.795c-1.115 31.277-12.039 133.688-12.039 133.688h-16.704s-.614-100.583-1.356-131.3c-.811-33.487-4.854-106.181-4.854-106.181h34.668v-.002Z" fill="#263238"/><path opacity=".4" d="M256.854 114.285h-34.028l-1.901 34.608 33.979.909 1.95-35.517Z" fill="#263238"/><path d="m238.967 136.552-34.08-4.206a295.6 295.6 0 0 0 6.143-34.806l34.281 4.218a295.472 295.472 0 0 1-6.344 34.794ZM155.581 397.09c.077 0-.942 6.935-.942 6.935h-20.32l-.549-6.189 21.811-.746Z" fill="#407BFF"/><path d="M168.402 90.03c1.515 2.36 3.244 5.013 4.969 7.462 1.76 2.471 3.517 4.942 5.367 7.317 3.669 4.754 7.559 9.321 11.748 13.112a44.169 44.169 0 0 0 3.171 2.668l.806.607a2.55 2.55 0 0 0-.473-.162c-.35-.068-.52-.007-.427.041.204.106 1.186-.063 2.21-.507a25.777 25.777 0 0 0 3.394-1.763c4.721-2.926 9.596-7.014 14.178-10.987l5.76 4.652c-3.573 5.757-7.506 10.963-12.908 15.749-1.374 1.179-2.843 2.351-4.614 3.394-1.78 1.027-3.802 2.078-6.771 2.515-1.483.194-3.279.156-5.133-.435-.905-.268-1.86-.746-2.608-1.205l-1.164-.737a57.715 57.715 0 0 1-4.386-3.137c-5.55-4.397-10.184-9.355-14.457-14.512-2.104-2.601-4.142-5.233-6.032-7.967-1.913-2.763-3.709-5.404-5.489-8.48l12.859-7.626Z" fill="#FFC3BD"/><path d="M149.032 95.948c-3.154 13.219 20.766 26.165 20.766 26.165l15.536-18.203s-7.073-10.72-15.873-19.165c-10.869-10.431-18.029 1.14-20.429 11.203Z" fill="#407BFF"/><path opacity=".2" d="M149.032 95.948c-3.154 13.219 20.766 26.165 20.766 26.165l15.536-18.203s-7.073-10.72-15.873-19.165c-10.869-10.431-18.029 1.14-20.429 11.203Z" fill="#FAFAFA"/><path d="m211.783 110.567 3.667-11.775 9.651 4.809s-1.407 8.592-8.431 10.082l-4.887-3.116Z" fill="#FFC3BD"/><path d="m219.32 95.527 8.703 2.395-2.924 5.678-9.65-4.808 3.871-3.265Z" fill="#FFC3BD"/></g><defs><clipPath id="a"><path fill="#fff" d="M0 0h553v442.937H0z"/></clipPath></defs></svg>