<svg width="435" height="479" fill="none" xmlns="http://www.w3.org/2000/svg"><path d="M104.593 75.768c-14.644 20.502 1.92 54.164-19.651 69.472-20.998 14.901-46.337-10.152-66.113 2.657C-10.508 166.898-6.117 255.302 35.9 310.643c12.636 16.643 23.272 23.179 27.816 41.898 9.757 40.196-26.268 63.667-19.669 83.566 14.86 44.806 250.21 84.747 346.213-48.427 44.837-62.198 52.399-152.614 13.65-221.754-70.018-124.934-266.457-136.16-299.317-90.158Z" fill="#F4F7FA"/><path d="M242.513 387.351c2.491 12.955-5.525 23.301-12.39 29.899-1.175-.285-1.937-.129-3.195-.135-11.347-.057-16.037-2.63-27.111-4.547-2.383-.413-8.905-3.887-11.473-5.492L183.606 404s-2.17-30.544 14.221-34.757c16.392-4.212 17.851-33.711 20.453-49.35 7.06-42.433 51.091-27.469 64.522-81.271 3.572-14.31 5.6-42.794 20.502-51.194 16.977-9.57 23.846 5.666 35.386-2.997 18.037-13.54 41.972-14.055 50.993 6.738 8.903 20.521-15.658 50.86-62.36 68.54-32.067 16.478-34.193 23.27-36.294 40.575-1.472 12.12 2.129 45.544-16.874 53.807-19.004 8.265-34.49 18.45-31.642 33.26Z" fill="url(#a)"/><mask id="b" style="mask-type:luminance" maskUnits="userSpaceOnUse" x="184" y="174" width="208" height="252"><path d="m220.813 425.034-36.59-19.79s-2.787-31.788 13.604-36.001c16.392-4.212 17.851-33.711 20.453-49.35 7.06-42.433 51.091-27.469 64.522-81.271 3.572-14.31 5.599-42.794 20.501-51.194 16.978-9.57 23.847 5.666 35.387-2.997 18.037-13.54 41.972-14.055 50.993 6.738 8.903 20.521-15.658 50.859-62.36 68.539-32.067 16.48-34.193 23.271-36.294 40.576-1.472 12.12 2.129 45.544-16.875 53.808-19.003 8.264-34.489 18.449-31.641 33.259 4.333 22.535-21.7 37.683-21.7 37.683Z" fill="#fff"/></mask><g opacity=".5" fill="#FCFDFE" mask="url(#b)"><path d="m205.372 414.414-.769-.297a598.48 598.48 0 0 1 5.463-13.68c13.764-33.257 30.134-64.025 48.656-91.452 15.695-23.238 33.151-44.408 51.883-62.92 15.065-14.888 31.033-28.145 47.461-39.404 11.549-7.915 23.203-14.769 34.641-20.369 1.993-.977 4.086-1.864 6.11-2.721 2.697-1.143 5.486-2.325 8.059-3.728l.395.724c-2.609 1.423-5.417 2.612-8.132 3.763-2.014.854-4.096 1.736-6.069 2.703-11.402 5.583-23.022 12.415-34.538 20.308-16.388 11.231-32.317 24.458-47.347 39.311-18.694 18.474-36.115 39.601-51.779 62.795-18.492 27.38-34.835 58.1-48.578 91.306a597.75 597.75 0 0 0-5.456 13.661Z"/><path d="m289.329 270.113-.64-.519c22.323-27.471 23.796-88.112 23.808-88.721l.825.016c-.013.613-1.491 61.534-23.993 89.224Zm-55.711 82.321-.696-.442c12.987-20.444 59.004-27.276 59.467-27.343l.117.817c-.459.066-46.104 6.843-58.888 26.968Zm-6.365 12.237-.764-.312c5.984-14.634 6.325-37.789.96-65.197-.269-1.378-.269-1.378-.212-1.524l.767.303-.383-.151.41-.004c.008.094.109.614.228 1.218 5.395 27.564 5.038 50.885-1.006 65.667Zm-18.539 41.42-.642-.517c10.928-13.559 36.756-13.56 37.016-13.559l-.005.825c-.256-.001-25.691.003-36.369 13.251Zm-4.567 8.084c.288-14.039-3.445-28.62-11.413-44.576l.738-.369c8.029 16.079 11.79 30.786 11.499 44.962l-.824-.017Zm144.819-200.044-.61-.555c13.262-14.581 23.816-32.975 27.284-39.019.839-1.463 1.136-1.977 1.271-2.138l.632.529c-.101.124-.581.961-1.188 2.02-3.479 6.063-14.066 24.515-27.389 39.163Zm-25.072 20.519-.419-.71c15.913-9.405 51.684-.084 53.199.318l-.211.797c-.368-.097-36.953-9.634-52.569-.405Z"/></g><mask id="c" style="mask-type:luminance" maskUnits="userSpaceOnUse" x="199" y="258" width="193" height="192"><path d="m201.562 429.258 32.587 19.865s16.325-12.977 15.53-29.643c-1.621-34.002 28.273-33.049 40.853-34.522 18.972-2.223 34.722-12.455 19.674-30.263-15.049-17.808 21.772-35.508 52.929-34.681 30.489.809 49.521-52.923-16.309-60.733-39.314-4.664-54.364 30.857-66.229 46.989-11.865 16.131-38.059 2.097-42.073 28.192-3.429 22.289 2.742 43.828-15.446 49.502-18.189 5.674-27.652 18.698-21.516 45.294Z" fill="#fff"/></mask><g mask="url(#c)"><path d="m201.562 429.258 32.587 19.865s16.325-12.977 15.53-29.643c-1.621-34.002 28.273-33.049 40.853-34.522 18.972-2.223 32.55-11.761 22.239-29.601-11.665-20.187 19.207-36.17 50.364-35.343 30.489.809 49.521-52.923-16.309-60.733-39.314-4.664-54.364 30.857-66.229 46.989-11.865 16.131-38.059 2.097-42.073 28.192-3.429 22.289 2.742 43.828-15.446 49.502-18.189 5.674-27.652 18.698-21.516 45.294Z" fill="url(#d)"/></g><mask id="e" style="mask-type:luminance" maskUnits="userSpaceOnUse" x="199" y="258" width="193" height="192"><path d="m201.562 429.258 32.587 19.865s16.325-12.977 15.53-29.643c-1.621-34.002 28.273-33.049 40.853-34.522 18.972-2.223 34.722-12.455 19.674-30.263-15.049-17.808 21.772-35.508 52.929-34.681 30.489.809 49.521-52.923-16.309-60.733-39.314-4.664-54.364 30.857-66.229 46.989-11.865 16.131-38.059 2.097-42.073 28.192-3.429 22.289 2.742 43.828-15.446 49.502-18.189 5.674-27.652 18.698-21.516 45.294Z" fill="#fff"/></mask><g opacity=".5" fill="#BEB8F2" mask="url(#e)"><path d="m213.822 440.88.752.288c.179-.466 18.234-47.051 50.058-87.835 29.318-37.574 76.662-77.77 135.713-55.886l.28-.755c-26.287-9.742-52.477-8.205-77.845 4.568-20.264 10.203-40.045 27.56-58.793 51.59-31.894 40.879-49.986 87.563-50.165 88.03Z"/><path d="m312.41 307.055.735.331c11.022-24.446 39.353-51.445 39.638-51.715l-.554-.585c-.286.271-28.732 27.38-39.819 51.969Zm17.136-8.047c31.954-.312 49.37 19.801 49.542 20.004l.615-.521c-.175-.206-17.82-20.604-50.165-20.289l.008.806ZM245.28 381.13c27.463-27.746 76.426-8.81 76.888-8.585l.398-.7c-.432-.263-50.152-19.274-77.859 8.718l.573.567Zm8.165-13.874.759.271c8.364-23.466-5.491-51.566-5.632-51.847l-.721.361c.14.278 13.841 28.077 5.594 51.215ZM217.577 433.9c8.688-12.019 32.805-11.028 33.048-11.017l.037-.804c-1.007-.048-24.794-1.025-33.738 11.35l.653.471Zm4.127-11.089.749.298c4.331-10.897-3.885-30.986-6.585-37.587-.382-.933-.711-1.738-.741-1.894l-.793.144c.04.22.257.756.788 2.055 2.67 6.527 10.794 26.389 6.582 36.984Z"/></g><path d="M259.119 459.425c-.156.031-.314.062-.471.091-9.313 1.77-19.803 2.06-31.521-.073l-6.765-1.731c-.715-5.812-.355-11.468 7.022-12.041 11.456-.89 15.813-19.757 14.312-27.09-1.857-9.076-5.748-30.298 11.941-31.951 14.726-1.377 24.51.744 29.316-16.792 4.806-17.536 16.888-26.511 32.752-21.973 16.695 4.777 35.462-14.761 47.705-4.218 21.332 18.372-9.035 52.736-40.888 57.702-31.854 4.965-17.282 19.21-19.632 33.903-3.208 20.06-29.093 10.023-37.859 16.28-2.969 2.119-4.799 4.938-5.912 7.893Z" fill="url(#f)"/><mask id="g" style="mask-type:luminance" maskUnits="userSpaceOnUse" x="220" y="340" width="151" height="131"><path d="m257.536 470.521-36.839-8.277c-.974-5.697-1.553-15.933 6.687-16.573 11.456-.889 15.813-19.756 14.312-27.089-1.857-9.076-5.747-30.298 11.941-31.952 14.726-1.377 24.51.745 29.316-16.792 4.806-17.536 16.888-26.511 32.752-21.972 16.695 4.776 35.462-14.762 47.705-4.218 21.332 18.371-9.035 52.736-40.888 57.701-31.854 4.965-17.282 19.21-19.632 33.904-3.208 20.06-29.093 10.023-37.859 16.279-6.871 4.905-7.665 13.553-7.495 18.989Z" fill="#fff"/></mask><g opacity=".5" fill="#FCFDFE" mask="url(#g)"><path d="m241.492 460.829-.749-.33c24.139-54.729 74.72-97.475 132.006-111.557l.195.794C315.9 363.759 265.53 406.327 241.492 460.829Z"/><path d="m257.208 432.117-.799-.175c5.052-22.958-10.664-45.179-10.823-45.401l.664-.477c.162.224 16.09 22.734 10.958 46.053Zm-11.001 18.765-.62-.534c15.56-18.053 58.489-11.646 58.92-11.579l-.125.809c-.427-.066-42.911-6.406-58.175 11.304Zm50.324-62.251-.664-.479c11.076-15.322 5.756-43.821 5.701-44.107l.803-.155c.056.29 5.44 29.136-5.84 44.741Zm31.421-21.351-.269-.773c20.348-7.072 46.771 5.123 47.036 5.248l-.347.741c-.262-.124-26.389-12.178-46.42-5.216Z"/></g><path opacity=".75" d="M322.216 201.665c0-71.16-60.583-128.847-135.317-128.847-74.733 0-135.317 57.687-135.317 128.847 0 43.185 22.314 81.406 56.563 104.784 14.529 9.918 23.341 26.265 23.341 43.857v9.86c0 21.424 17.367 38.791 38.791 38.791h33.245c21.423 0 38.791-17.367 38.791-38.791v-9.86c0-17.592 8.811-33.939 23.341-43.857 34.248-23.378 56.562-61.599 56.562-104.784Z" fill="#F4F7FA"/><path d="M186.899 472.297c16.578 0 30.017-7.115 30.017-15.892s-13.439-15.892-30.017-15.892-30.017 7.115-30.017 15.892 13.439 15.892 30.017 15.892Z" fill="url(#h)"/><path d="M147.018 428.016v16.229c0 5.49 3.124 10.521 8.08 12.885 6.881 3.281 18.32 6.882 34.945 6.456 13.487-.346 22.282-2.548 27.874-4.862 5.401-2.236 8.864-7.577 8.864-13.423v-8.98l-79.763-8.305Z" fill="url(#i)"/><path opacity=".3" d="M147.018 442.231a15.772 15.772 0 0 0 4.204 2.938c7.719 3.681 58.279 11.906 70.475 7.324a16.444 16.444 0 0 0 4.257-2.352 14.73 14.73 0 0 0 .827-4.841v-8.979l-79.764-8.306v14.216h.001Z" fill="url(#j)"/><path d="M150.559 416.974c-4.493-.468-8.402 3.056-8.402 7.572v.46c0 6.16 3.505 11.804 9.065 14.456 7.719 3.681 58.279 11.906 70.475 7.323 6.139-2.307 9.944-7.578 9.944-14.136v-.37c0-3.9-2.946-7.169-6.824-7.573l-74.258-7.732Z" fill="url(#k)"/><path opacity=".3" d="m224.817 424.706-74.258-7.732c-2.93-.305-5.604 1.093-7.115 3.351 1.492 3.515 4.208 6.455 7.779 8.158 7.718 3.681 60.432 12.978 70.474 8.246 3.909-1.842 6.975-4.952 8.618-8.732a7.6 7.6 0 0 0-5.498-3.291Z" fill="url(#l)"/><path d="M147.653 390.68a5.497 5.497 0 0 0-5.496 5.497v12.71c0 6.16 3.505 11.804 9.066 14.455 7.718 3.682 60.432 12.979 70.474 8.247 5.933-2.796 9.944-8.501 9.944-15.059v-20.353a5.496 5.496 0 0 0-5.496-5.497h-78.492Z" fill="url(#m)"/><path d="M186.899 404.954c24.099 0 43.636-4.619 43.636-10.317 0-5.697-19.537-10.316-43.636-10.316-24.099 0-43.635 4.619-43.635 10.316 0 5.698 19.536 10.317 43.635 10.317Z" fill="url(#n)"/><path d="M322.216 201.665c0-71.16-60.583-128.847-135.317-128.847-74.733 0-135.317 57.687-135.317 128.847 0 43.185 22.314 81.406 56.563 104.784 14.529 9.918 23.341 26.265 23.341 43.857v9.86c0 21.424 17.367 38.791 38.791 38.791h33.245c21.423 0 38.791-17.367 38.791-38.791v-9.86c0-17.592 8.811-33.939 23.341-43.857 34.248-23.378 56.562-61.599 56.562-104.784Z" fill="url(#o)"/><path opacity=".5" d="M186.899 394.051c17.634 0 31.929-3.379 31.929-7.549 0-4.169-14.295-7.548-31.929-7.548s-31.929 3.379-31.929 7.548c0 4.17 14.295 7.549 31.929 7.549Z" fill="#F4F7FA"/><path d="M178.579 391.116a1.845 1.845 0 0 1-1.828-1.61l-23.489-182.67a1.845 1.845 0 0 1 1.595-2.065 1.84 1.84 0 0 1 2.065 1.595l23.489 182.669a1.844 1.844 0 0 1-1.832 2.081Z" fill="url(#p)"/><path d="M193.168 391.116a1.845 1.845 0 0 1-1.832-2.08l23.489-182.67a1.84 1.84 0 0 1 2.066-1.594 1.844 1.844 0 0 1 1.595 2.065l-23.49 182.669a1.845 1.845 0 0 1-1.828 1.61Z" fill="url(#q)"/><path d="M212.298 206.689a1.843 1.843 0 0 1-1.542-.83l-6.483-9.835c-.067-.101-.169-.159-.263-.148a.29.29 0 0 0-.251.155l-4.28 7.169a3.977 3.977 0 0 1-3.327 1.952 3.97 3.97 0 0 1-3.424-1.787l-5.877-8.811a.299.299 0 0 0-.254-.146c-.125.023-.184.044-.246.134l-5.163 7.462a3.991 3.991 0 0 1-3.271 1.727h-.008a4.004 4.004 0 0 1-3.278-1.718l-7.443-10.663a.339.339 0 0 0-.262-.14.293.293 0 0 0-.249.16l-6.793 11.727a1.845 1.845 0 1 1-3.193-1.85l6.793-11.728a3.978 3.978 0 0 1 3.287-1.995c1.355-.07 2.654.583 3.443 1.714l7.443 10.663c.065.092.149.14.252.14a.288.288 0 0 0 .244-.136l5.163-7.462a3.984 3.984 0 0 1 3.312-1.725 4 4 0 0 1 3.293 1.789l5.876 8.81c.067.099.166.182.263.145a.287.287 0 0 0 .25-.154l4.28-7.169a3.975 3.975 0 0 1 3.338-1.952 3.999 3.999 0 0 1 3.426 1.806l6.483 9.835a1.845 1.845 0 0 1-1.539 2.861Z" fill="url(#r)"/><path opacity=".3" d="M189.355 303.295c2.899-49.662 86.619-61.284 86.26-105.635-.22-27.315-33.489-47.601-40.593-51.664-52.346-29.939-116.776 4.634-130.083-19.835-3.313-6.093-1.759-12.724-.875-16.501 1.338-5.708 4.365-11.025 8.855-15.888-36.932 23.007-61.337 62.733-61.337 107.893 0 43.185 22.314 81.407 56.563 104.784 14.529 9.919 23.341 26.266 23.341 43.857v9.86c0 21.424 17.367 38.791 38.791 38.791h33.245c21.423 0 38.791-17.367 38.791-38.791v-7.883c-4.576 3.507-9.831 5.952-15.594 5.905-19.995-.165-38.807-30.18-37.364-54.893Z" fill="url(#s)"/><path opacity=".44" d="M189.063 318.985c64.31 0 116.443-50.277 116.443-112.297 0-62.019-52.133-112.296-116.443-112.296-64.309 0-116.442 50.277-116.442 112.296 0 62.02 52.133 112.297 116.442 112.297Z" fill="#F4F7FA"/><mask id="t" style="mask-type:luminance" maskUnits="userSpaceOnUse" x="127" y="72" width="196" height="236"><path d="M322.216 201.666c0-71.16-60.583-128.847-135.317-128.847-21.163 0-41.189 4.63-59.027 12.877-.857 10.977.475 19.985 2.526 27.236 11.081 39.163 46.181 38.877 74.612 90.459 22.025 39.958 10.978 58.302 33.675 83.856 7.59 8.546 16.435 15.053 25.815 20.017.381-.275.764-.548 1.154-.814 34.248-23.378 56.562-61.599 56.562-104.784Z" fill="#fff"/></mask><g mask="url(#t)"><path d="M322.216 201.666c0-71.16-60.583-128.847-135.317-128.847-74.733 0-135.317 57.687-135.317 128.847 0 43.185 22.315 81.406 56.563 104.784 14.529 9.918 23.341 26.265 23.341 43.857v9.86c0 21.424 17.367 38.791 38.791 38.791h33.245c21.423 0 38.791-17.367 38.791-38.791v-9.86c0-17.592 8.811-33.939 23.341-43.857 34.248-23.378 56.562-61.599 56.562-104.784Z" fill="url(#u)"/></g><mask id="v" style="mask-type:luminance" maskUnits="userSpaceOnUse" x="127" y="72" width="196" height="236"><path d="M322.216 201.666c0-71.16-60.583-128.847-135.317-128.847-21.163 0-41.189 4.63-59.027 12.877-.857 10.977.475 19.985 2.526 27.236 11.081 39.163 46.181 38.877 74.612 90.459 22.025 39.958 10.978 58.302 33.675 83.856 7.59 8.546 16.435 15.053 25.815 20.017.381-.275.764-.548 1.154-.814 34.248-23.378 56.562-61.599 56.562-104.784Z" fill="#fff"/></mask><g mask="url(#v)"><path opacity=".3" d="M242.513 387.351c2.491 12.955-5.525 23.301-12.39 29.899-1.175-.285-1.937-.129-3.195-.135-11.347-.057-16.037-2.63-27.111-4.547-2.383-.413-8.905-3.887-11.473-5.492L183.606 404s-2.17-30.544 14.221-34.757c16.392-4.212 17.851-33.711 20.453-49.35 7.06-42.433 51.091-27.469 64.522-81.271 3.572-14.31 5.6-42.794 20.502-51.194 16.977-9.57 23.846 5.666 35.386-2.997 18.038-13.54 41.972-14.055 50.993 6.738 8.903 20.521-15.658 50.86-62.359 68.54-32.068 16.478-34.194 23.27-36.295 40.575-1.471 12.12 2.129 45.544-16.874 53.807-19.003 8.265-34.489 18.45-31.642 33.26Z" fill="url(#w)"/></g><mask id="x" style="mask-type:luminance" maskUnits="userSpaceOnUse" x="127" y="72" width="196" height="236"><path d="M322.216 201.666c0-71.16-60.583-128.847-135.317-128.847-21.163 0-41.189 4.63-59.027 12.877-.857 10.977.475 19.985 2.526 27.236 11.081 39.163 46.181 38.877 74.612 90.459 22.025 39.958 10.978 58.302 33.675 83.856 7.59 8.546 16.435 15.053 25.815 20.017.381-.275.764-.548 1.154-.814 34.248-23.378 56.562-61.599 56.562-104.784Z" fill="#fff"/></mask><g mask="url(#x)"><path opacity=".3" d="M127.872 85.696c12.889-.17 30.613 1.813 43.244 13.81 15.788 14.995 8.548 31.318 19.368 53.263 18.205 36.92 54.901 23.577 80.115 61.627 22.932 34.605 14.414 78.593 4.842 85.397-.859.61-10.941 7.471-10.941 7.471l-149.288-64.256 12.66-157.312Z" fill="url(#y)"/></g><mask id="z" style="mask-type:luminance" maskUnits="userSpaceOnUse" x="127" y="72" width="196" height="236"><path d="M322.216 201.666c0-71.16-60.583-128.847-135.317-128.847-21.163 0-41.189 4.63-59.027 12.877-.857 10.977.475 19.985 2.526 27.236 11.081 39.163 46.181 38.877 74.612 90.459 22.025 39.958 10.978 58.302 33.675 83.856 7.59 8.546 16.435 15.053 25.815 20.017.381-.275.764-.548 1.154-.814 34.248-23.378 56.562-61.599 56.562-104.784Z" fill="#fff"/></mask><g mask="url(#z)" fill="#fff"><path d="M186.899 325.711c-34.76 0-67.441-12.895-92.022-36.309-24.588-23.421-38.13-54.563-38.13-87.689 0-33.126 13.541-64.268 38.13-87.689 24.581-23.415 57.262-36.31 92.022-36.31 34.761 0 67.441 12.895 92.023 36.31 24.588 23.421 38.13 54.563 38.13 87.689 0 33.126-13.542 64.268-38.13 87.689-24.582 23.414-57.262 36.309-92.023 36.309Zm0-246.947c-34.489 0-66.913 12.792-91.298 36.02-24.378 23.221-37.804 54.093-37.804 86.929s13.426 63.708 37.804 86.929c24.385 23.227 56.809 36.019 91.298 36.019 34.489 0 66.913-12.792 91.298-36.019 24.379-23.221 37.805-54.093 37.805-86.929s-13.426-63.708-37.805-86.929c-24.385-23.228-56.809-36.02-91.298-36.02Z"/><path d="M186.899 325.711c-25.509 0-49.483-12.916-67.505-36.369-17.99-23.413-27.898-54.533-27.898-87.629 0-33.096 9.908-64.217 27.898-87.629 18.022-23.453 41.996-36.37 67.505-36.37 25.51 0 49.484 12.917 67.506 36.37 17.99 23.412 27.898 54.533 27.898 87.629 0 33.096-9.908 64.216-27.898 87.629-18.022 23.453-41.996 36.369-67.506 36.369Zm0-246.947c-52.026 0-94.353 55.155-94.353 122.949s42.327 122.948 94.353 122.948c52.027 0 94.354-55.154 94.354-122.948 0-67.794-42.327-122.949-94.354-122.949Z"/><path d="M186.899 325.711c-12.904 0-24.991-12.963-34.035-36.501-8.982-23.38-13.929-54.454-13.929-87.497 0-33.044 4.947-64.118 13.929-87.498 9.044-23.538 21.131-36.501 34.035-36.501 12.904 0 24.991 12.963 34.035 36.501 8.982 23.38 13.929 54.454 13.929 87.498 0 33.043-4.947 64.117-13.929 87.497-9.044 23.538-21.131 36.501-34.035 36.501Zm0-246.947c-25.868 0-46.914 55.155-46.914 122.949s21.046 122.948 46.914 122.948c25.869 0 46.914-55.154 46.914-122.948 0-67.794-21.045-122.949-46.914-122.949Z"/><path d="M187.424 78.24h-1.05v246.946h1.05V78.239Z"/><path d="M186.899 216.116c-34.639 0-67.207-1.141-91.704-3.213-11.925-1.008-21.29-2.184-27.839-3.493-9.51-1.902-10.609-3.64-10.609-4.782 0-1.143 1.1-2.881 10.609-4.783 6.548-1.309 15.914-2.485 27.839-3.493 24.497-2.072 57.065-3.213 91.704-3.213 34.639 0 67.207 1.141 91.705 3.213 11.924 1.008 21.29 2.184 27.839 3.493 9.509 1.902 10.608 3.64 10.608 4.783 0 1.142-1.099 2.88-10.608 4.782-6.549 1.309-15.915 2.485-27.839 3.493-24.498 2.072-57.066 3.213-91.705 3.213Zm0-21.927c-34.61 0-67.147 1.14-91.616 3.209-35.679 3.018-37.486 6.552-37.486 7.23 0 .677 1.807 4.211 37.486 7.229 24.469 2.07 57.006 3.209 91.616 3.209s67.147-1.14 91.616-3.209c35.679-3.018 37.487-6.552 37.487-7.229 0-.678-1.808-4.212-37.487-7.23-24.469-2.069-57.005-3.209-91.616-3.209Zm0-24.813c-59.042 0-120.112-5.586-120.112-14.933 0-5.318 19.299-8.759 35.489-10.71 22.607-2.723 52.66-4.223 84.623-4.223 31.963 0 62.016 1.5 84.623 4.223 16.19 1.951 35.489 5.392 35.489 10.71 0 9.347-61.07 14.933-120.112 14.933Zm0-28.816c-71.22 0-119.062 7.178-119.062 13.883 0 6.705 47.842 13.883 119.062 13.883s119.062-7.178 119.062-13.883c0-6.705-47.842-13.883-119.062-13.883Zm-.361-29.232c-35.081 0-71.367-4.377-71.367-11.703 0-7.325 36.286-11.703 71.367-11.703s71.368 4.378 71.368 11.703c0 7.326-36.286 11.703-71.368 11.703Zm0-22.356c-42.062 0-70.317 5.508-70.317 10.653 0 5.145 28.255 10.653 70.317 10.653 42.063 0 70.318-5.508 70.318-10.653 0-5.145-28.255-10.653-70.318-10.653Zm.361 174.02c-31.963 0-62.016-1.5-84.623-4.224-16.19-1.95-35.489-5.391-35.489-10.709s19.3-8.759 35.489-10.709c22.607-2.724 52.66-4.224 84.623-4.224 31.963 0 62.016 1.5 84.624 4.224 16.189 1.95 35.488 5.391 35.488 10.709s-19.299 8.759-35.488 10.709c-22.608 2.724-52.661 4.224-84.624 4.224Zm0-28.816c-71.22 0-119.062 7.178-119.062 13.883 0 6.705 47.842 13.883 119.062 13.883s119.062-7.178 119.062-13.883c0-6.705-47.842-13.883-119.062-13.883Zm-.361 80.403c-35.081 0-71.367-4.377-71.367-11.703 0-7.325 36.286-11.703 71.367-11.703s71.368 4.378 71.368 11.703c0 7.326-36.286 11.703-71.368 11.703Zm0-22.356c-42.062 0-70.317 5.508-70.317 10.653 0 5.145 28.255 10.653 70.317 10.653 42.063 0 70.318-5.508 70.318-10.653 0-5.144-28.255-10.653-70.318-10.653Z"/></g><mask id="A" style="mask-type:luminance" maskUnits="userSpaceOnUse" x="127" y="72" width="196" height="236"><path d="M322.216 201.666c0-71.16-60.583-128.847-135.317-128.847-21.163 0-41.189 4.63-59.027 12.877-.857 10.977.475 19.985 2.526 27.236 11.081 39.163 46.181 38.877 74.612 90.459 22.025 39.958 10.978 58.302 33.675 83.856 7.59 8.546 16.435 15.053 25.815 20.017.381-.275.764-.548 1.154-.814 34.248-23.378 56.562-61.599 56.562-104.784Z" fill="#fff"/></mask><g mask="url(#A)"><path d="M277.312 168.395a4.952 4.952 0 1 0 0-9.904 4.952 4.952 0 0 0 0 9.904Z" fill="#fff"/></g><mask id="B" style="mask-type:luminance" maskUnits="userSpaceOnUse" x="127" y="72" width="196" height="236"><path d="M322.216 201.666c0-71.16-60.583-128.847-135.317-128.847-21.163 0-41.189 4.63-59.027 12.877-.857 10.977.475 19.985 2.526 27.236 11.081 39.163 46.181 38.877 74.612 90.459 22.025 39.958 10.978 58.302 33.675 83.856 7.59 8.546 16.435 15.053 25.815 20.017.381-.275.764-.548 1.154-.814 34.248-23.378 56.562-61.599 56.562-104.784Z" fill="#fff"/></mask><g mask="url(#B)"><path d="M232.577 173.039a4.953 4.953 0 1 0 0-9.905 4.953 4.953 0 0 0 0 9.905Z" fill="#fff"/></g><mask id="C" style="mask-type:luminance" maskUnits="userSpaceOnUse" x="127" y="72" width="196" height="236"><path d="M322.216 201.666c0-71.16-60.583-128.847-135.317-128.847-21.163 0-41.189 4.63-59.027 12.877-.857 10.977.475 19.985 2.526 27.236 11.081 39.163 46.181 38.877 74.612 90.459 22.025 39.958 10.978 58.302 33.675 83.856 7.59 8.546 16.435 15.053 25.815 20.017.381-.275.764-.548 1.154-.814 34.248-23.378 56.562-61.599 56.562-104.784Z" fill="#fff"/></mask><g mask="url(#C)"><path d="M280.569 216.594a4.952 4.952 0 1 0 0-9.904 4.952 4.952 0 0 0 0 9.904Z" fill="#fff"/></g><mask id="D" style="mask-type:luminance" maskUnits="userSpaceOnUse" x="127" y="72" width="196" height="236"><path d="M322.216 201.666c0-71.16-60.583-128.847-135.317-128.847-21.163 0-41.189 4.63-59.027 12.877-.857 10.977.475 19.985 2.526 27.236 11.081 39.163 46.181 38.877 74.612 90.459 22.025 39.958 10.978 58.302 33.675 83.856 7.59 8.546 16.435 15.053 25.815 20.017.381-.275.764-.548 1.154-.814 34.248-23.378 56.562-61.599 56.562-104.784Z" fill="#fff"/></mask><g mask="url(#D)"><path d="M234.063 219.403a4.952 4.952 0 1 0 0-9.904 4.952 4.952 0 0 0 0 9.904Z" fill="#fff"/></g><mask id="E" style="mask-type:luminance" maskUnits="userSpaceOnUse" x="115" y="113" width="234" height="199"><path d="M339.552 191.845c-27.233-65.744-105.282-95.856-174.329-67.255-19.552 8.099-36.282 20.04-49.607 34.487 3.409 10.469 8.087 18.282 12.757 24.196 25.225 31.942 57.545 18.245 103.553 55.021 35.64 28.488 32.455 49.664 63.204 64.587 10.282 4.991 20.944 7.618 31.51 8.614.247-.4.497-.798.755-1.193 22.695-34.706 28.684-78.558 12.157-118.457Z" fill="#fff"/></mask><g mask="url(#E)"><path d="M308.105 157.781a4.952 4.952 0 1 0-3.79-9.15 4.952 4.952 0 0 0 3.79 9.15Z" fill="#fff"/></g><mask id="F" style="mask-type:luminance" maskUnits="userSpaceOnUse" x="127" y="72" width="196" height="236"><path d="M322.216 201.666c0-71.16-60.583-128.847-135.317-128.847-21.163 0-41.189 4.63-59.027 12.877-.857 10.977.475 19.985 2.526 27.236 11.081 39.163 46.181 38.877 74.612 90.459 22.025 39.958 10.978 58.302 33.675 83.856 7.59 8.546 16.435 15.053 25.815 20.017.381-.275.764-.548 1.154-.814 34.248-23.378 56.562-61.599 56.562-104.784Z" fill="#fff"/></mask><g mask="url(#F)"><path d="M316.104 209.707a4.952 4.952 0 1 0 0-9.904 4.952 4.952 0 0 0 0 9.904Z" fill="#fff"/></g><mask id="G" style="mask-type:luminance" maskUnits="userSpaceOnUse" x="127" y="72" width="196" height="236"><path d="M322.216 201.666c0-71.16-60.583-128.847-135.317-128.847-21.163 0-41.189 4.63-59.027 12.877-.857 10.977.475 19.985 2.526 27.236 11.081 39.163 46.181 38.877 74.612 90.459 22.025 39.958 10.978 58.302 33.675 83.856 7.59 8.546 16.435 15.053 25.815 20.017.381-.275.764-.548 1.154-.814 34.248-23.378 56.562-61.599 56.562-104.784Z" fill="#fff"/></mask><g mask="url(#G)"><path d="M186.899 173.678a4.952 4.952 0 1 0 0-9.904 4.952 4.952 0 0 0 0 9.904Z" fill="#fff"/></g><mask id="H" style="mask-type:luminance" maskUnits="userSpaceOnUse" x="127" y="72" width="196" height="236"><path d="M322.216 201.666c0-71.16-60.583-128.847-135.317-128.847-21.163 0-41.189 4.63-59.027 12.877-.857 10.977.475 19.985 2.526 27.236 11.081 39.163 46.181 38.877 74.612 90.459 22.025 39.958 10.978 58.302 33.675 83.856 7.59 8.546 16.435 15.053 25.815 20.017.381-.275.764-.548 1.154-.814 34.248-23.378 56.562-61.599 56.562-104.784Z" fill="#fff"/></mask><g mask="url(#H)"><path d="M186.899 115.573a4.952 4.952 0 1 0 0-9.904 4.952 4.952 0 0 0 0 9.904Z" fill="#fff"/></g><mask id="I" style="mask-type:luminance" maskUnits="userSpaceOnUse" x="171" y="26" width="251" height="170"><path d="M332.232 29.609c-69.253-16.353-139.315 29.35-156.489 102.082-4.863 20.595-4.96 41.148-1.033 60.404 10.486 3.357 19.559 4.131 27.086 3.8 40.66-1.784 48.449-36.009 105.181-51.825 43.949-12.252 59.263 2.714 89.348-13.502 10.06-5.423 18.425-12.535 25.412-20.523-.18-.434-.358-.87-.527-1.31-14.881-38.703-46.95-69.202-88.978-79.126Z" fill="#fff"/></mask><g mask="url(#I)"><path d="M223.328 110.458a4.953 4.953 0 0 0-9.639-2.276 4.952 4.952 0 0 0 9.639 2.276Z" fill="#fff"/></g><mask id="J" style="mask-type:luminance" maskUnits="userSpaceOnUse" x="127" y="72" width="196" height="236"><path d="M322.216 201.666c0-71.16-60.583-128.847-135.317-128.847-21.163 0-41.189 4.63-59.027 12.877-.857 10.977.475 19.985 2.526 27.236 11.081 39.163 46.181 38.877 74.612 90.459 22.025 39.958 10.978 58.302 33.675 83.856 7.59 8.546 16.435 15.053 25.815 20.017.381-.275.764-.548 1.154-.814 34.248-23.378 56.562-61.599 56.562-104.784Z" fill="#fff"/></mask><g mask="url(#J)"><path d="M245.398 110.511a4.952 4.952 0 1 0 0-9.904 4.952 4.952 0 0 0 0 9.904Z" fill="#fff"/></g><mask id="K" style="mask-type:luminance" maskUnits="userSpaceOnUse" x="127" y="72" width="196" height="236"><path d="M322.216 201.666c0-71.16-60.583-128.847-135.317-128.847-21.163 0-41.189 4.63-59.027 12.877-.857 10.977.475 19.985 2.526 27.236 11.081 39.163 46.181 38.877 74.612 90.459 22.025 39.958 10.978 58.302 33.675 83.856 7.59 8.546 16.435 15.053 25.815 20.017.381-.275.764-.548 1.154-.814 34.248-23.378 56.562-61.599 56.562-104.784Z" fill="#fff"/></mask><g mask="url(#K)"><path d="M257.283 103.677a4.952 4.952 0 1 0 0-9.904 4.952 4.952 0 0 0 0 9.904Z" fill="#fff"/></g><mask id="L" style="mask-type:luminance" maskUnits="userSpaceOnUse" x="127" y="72" width="196" height="236"><path d="M322.216 201.666c0-71.16-60.583-128.847-135.317-128.847-21.163 0-41.189 4.63-59.027 12.877-.857 10.977.475 19.985 2.526 27.236 11.081 39.163 46.181 38.877 74.612 90.459 22.025 39.958 10.978 58.302 33.675 83.856 7.59 8.546 16.435 15.053 25.815 20.017.381-.275.764-.548 1.154-.814 34.248-23.378 56.562-61.599 56.562-104.784Z" fill="#fff"/></mask><g mask="url(#L)"><path d="M186.899 83.219a4.952 4.952 0 1 0 0-9.904 4.952 4.952 0 0 0 0 9.904Z" fill="#fff"/></g><mask id="M" style="mask-type:luminance" maskUnits="userSpaceOnUse" x="127" y="72" width="196" height="236"><path d="M322.216 201.666c0-71.16-60.583-128.847-135.317-128.847-21.163 0-41.189 4.63-59.027 12.877-.857 10.977.475 19.985 2.526 27.236 11.081 39.163 46.181 38.877 74.612 90.459 22.025 39.958 10.978 58.302 33.675 83.856 7.59 8.546 16.435 15.053 25.815 20.017.381-.275.764-.548 1.154-.814 34.248-23.378 56.562-61.599 56.562-104.784Z" fill="#fff"/></mask><g mask="url(#M)"><path d="M228.451 266.778a4.952 4.952 0 1 0 0-9.904 4.952 4.952 0 0 0 0 9.904Z" fill="#fff"/></g><mask id="N" style="mask-type:luminance" maskUnits="userSpaceOnUse" x="48" y="145" width="257" height="157"><path d="M267.957 182.198c-50.317-50.317-133.946-48.268-186.79 4.576-14.965 14.964-25.852 32.398-32.633 50.843 7.156 8.368 14.467 13.796 21.044 17.472 35.528 19.857 60.145-5.164 116.722 11.205 43.828 12.681 48.988 33.464 83.106 35.484 11.41.675 22.265-.978 32.408-4.1.075-.464.153-.928.24-1.391 7.687-40.748-3.561-83.553-34.097-114.089Z" fill="#fff"/></mask><g mask="url(#N)"><path d="M275.087 260.925a4.952 4.952 0 1 0-7.002-7.003 4.952 4.952 0 0 0 7.002 7.003Z" fill="#fff"/></g><mask id="O" style="mask-type:luminance" maskUnits="userSpaceOnUse" x="64" y="167" width="257" height="157"><path d="M283.805 203.732c-50.318-50.317-133.946-48.268-186.79 4.576-14.965 14.964-25.852 32.398-32.633 50.844 7.155 8.367 14.467 13.795 21.044 17.471 35.527 19.858 60.145-5.164 116.722 11.206 43.828 12.68 48.988 33.463 83.106 35.483 11.41.676 22.265-.977 32.408-4.1.075-.464.153-.928.24-1.391 7.687-40.748-3.561-83.552-34.097-114.089Z" fill="#fff"/></mask><g mask="url(#O)"><path d="M309.004 252.562a4.952 4.952 0 1 0-7.002-7.003 4.952 4.952 0 0 0 7.002 7.003Z" fill="#fff"/></g><path d="M279.049 469.525a.6.6 0 0 1-.601-.601V312.065a.602.602 0 1 1 1.203 0v156.859a.601.601 0 0 1-.602.601Zm42.26-9.853a.602.602 0 0 1-.602-.602V308.109a.601.601 0 0 1 1.203 0V459.07a.602.602 0 0 1-.601.602Zm97.702 7.03a.602.602 0 0 1-.566-.397l-56.491-155.656a.603.603 0 0 1 1.131-.411l56.491 155.657a.601.601 0 0 1-.565.807Zm-41.703 12.18a.603.603 0 0 1-.575-.424l-50.701-164.112a.602.602 0 1 1 1.15-.355l50.7 164.112a.6.6 0 0 1-.574.779Z" fill="#97A6B7"/><path d="m320.844 307.953-42.393 3.137v.954l48.449 2.172 36.211-4.437v-.954l-42.267-.872Z" fill="#97A6B7"/><path d="m320.844 306.999-42.393 4.091 48.449 2.172 36.211-4.437-42.267-1.826Z" fill="#E7EBEF"/><path d="M366.338 443.378a.6.6 0 0 1-.152-1.183l40.364-10.59a.6.6 0 1 1 .306 1.164l-40.364 10.59a.63.63 0 0 1-.154.019Zm-11.434-37.149a.602.602 0 0 1-.105-1.194l39.615-7.014a.602.602 0 0 1 .21 1.185l-39.614 7.014a.641.641 0 0 1-.106.009Zm-11.888-38.344a.6.6 0 0 1-.077-1.198l38.339-4.942a.602.602 0 0 1 .154 1.193l-38.339 4.942a.498.498 0 0 1-.077.005Zm-7.618-26.608a.603.603 0 0 1-.092-1.197l36.046-5.64a.602.602 0 0 1 .186 1.189l-36.047 5.641a.728.728 0 0 1-.093.007Z" fill="#97A6B7"/><path d="m72.032 438.865-.425 6.823s.969 1.026 2.833.311l2.034-6.7-4.442-.434Z" fill="url(#P)"/><path d="M72.888 443.881s-3.342 1.364-2.693 2.841c.349.794 1.554 2.586 2.596 4.076a3.905 3.905 0 0 0 4.317 1.505 43.38 43.38 0 0 1 1.584-.447c1.012-.261 1.071-1.677.085-2.025-.478-.168-.952-.305-1.365-.368-1.223-.189-2.907-3.078-3.104-4.236-.197-1.157-1.42-1.346-1.42-1.346Z" fill="url(#Q)"/><path d="M64.843 373.387c4.922 1.697 23.123 8.573 27.18 24.352.216.842.772 3.185.797 7.011.108 15.927-9.151 29.408-15.886 37.25l-6.37-.105c-1.06-4.065-2.036-10.144-.513-16.986 2.328-10.456 8.37-13.169 7.204-18.3-2.118-9.319-23.757-7.905-25.798-16.25-.737-3.014.88-8.13 13.386-16.972Z" fill="url(#R)"/><path d="m3.989 468.75 9.24-.217c.57-.014.815-.724.379-1.09-.43-.361-1.024-.657-1.784-.577-1.757.183-5.7-2.275-7.49-1.747-.584.172-1.058 1.547-1.302 1.927-.477.747.07 1.725.957 1.704Z" fill="url(#S)"/><path d="m8.14 461.649-3.805 3.47s1.328.992 3.267.566l3.889-2.677-3.352-1.359Z" fill="url(#T)"/><path d="M81.177 414.477c2.551-6.892 5.61-15.389 2.114-20.213-3.539-4.882-11.288-.759-19.064-4.692-2.884-1.459-5.849-4.069-8.315-8.795-4.364 4.507-4.957 7.531-4.455 9.582 2.04 8.345 23.68 6.931 25.798 16.25 1.167 5.131-4.876 7.844-7.204 18.3-1.31 5.882-.771 11.197.08 15.156.756-3.677 1.932-7.539 3.73-11.437 2.788-6.043 4.628-6.891 7.316-14.151Z" fill="url(#U)" opacity=".3"/><path d="M67.662 371.396c-2.993 13.753-9.372 34.754-23.992 56.677a165.06 165.06 0 0 1-32.042 35.519 7.791 7.791 0 0 1-3.181.273 7.79 7.79 0 0 1-2.398-.7c.642-3.877 1.996-9.605 5.21-15.791 5.878-11.321 11.115-10.959 17.02-20.95 4.324-7.316 5.73-15.088 8.54-30.63 2.169-12.002 2.17-14.871 5.143-18.312 6.012-6.959 17.302-7.04 25.7-6.086Z" fill="url(#V)"/><path d="M13.513 449.933c2.099-3.313 5.822-6.763 13.166-13.569 7.59-7.034 7.3-5.763 8.793-7.841 6.688-9.306 3.064-19.247 4.716-31.246.921-6.694 3.876-15.442 12.48-25.242-4.034.744-7.895 2.344-10.706 5.446-3.451 3.809-3.196 7.539-5.144 18.312-2.81 15.543-4.215 23.314-8.539 30.63-5.905 9.992-11.142 9.63-17.02 20.95-3.214 6.187-4.568 11.915-5.21 15.792a7.7 7.7 0 0 0 4.536.661c-.486-7.865 1.864-12.213 2.928-13.893Z" fill="url(#W)" opacity=".3"/><path d="M75.734 282.026s2.464 18.322-16.84 31.244l20.545 4.897s6.573-12.296 1.809-32.661l-5.514-3.48Z" fill="url(#X)"/><path d="M79.35 285.507s1.106-2.734.928-3.964c-.18-1.23-3.108-2.872-5.105-4.567-1.997-1.695.075 1.705.54 2.479.464.774 2.093 1.934 1.859 4.564l1.778 1.488Z" fill="url(#Y)"/><path d="M56.365 299.46c1.008-1.988 1.424-1.976 1.672-3.025.564-2.39-.894-5.426-2.13-5.468-.798-.027-.863 1.212-2.55 3.144-2.067 2.366-3.321 2.056-4.537 4.11-.285.48-1.565 2.643-.777 4.256 1.005 2.06 4.968 2.385 6.624.796.785-.754.455-1.365 1.698-3.813Z" fill="url(#Z)"/><path d="M53.395 301.605s.708 3.776.205 6.847c-.455 2.775-5.595 5.659-6.58 6.486-.986.827 2.613 1.724 5.915 1.291 3.3-.433 12.34-3.327 13.713-4.939 1.373-1.612-1.6-.818-4.1-1.122-2.5-.305-4.888-4.495-4.962-6.634-.073-2.139-4.191-1.929-4.191-1.929Z" fill="url(#aa)"/><path d="M54.472 304.423s2.527 1.11 4.766-.681c2.004-1.603-.977-6.526-3.016-6.589-.68-.02-1.673.467-2.26 1.18-.345.421-.366.702-.945 1.379-.534.625-.769.681-.85.984-.101.379.073 1.013 1.446 2.103-.684-.126-1.273.054-1.502.453a.871.871 0 0 0-.09.467c.083.743 1.054 1.087 2.45.704Z" fill="url(#ab)"/><path d="M110.012 291.277s1.53-.214 1.053-3.137c-.375-2.291-.092-3.062.449-2.656.541.406.618 1.73.618 1.73s1.972-1.683 2.784-3.888c.812-2.205 1.335-.349 1.509.754.175 1.102-1.159 4.526-1.914 5.165-.754.638-1.856 3.452-1.856 3.452l-2.643-1.42Z" fill="url(#ac)"/><path d="m114.09 292.059-5.224-3.657c-2.116 13.023-6.931 18.135-11.02 20.372-9.867 5.395-18.675-4.215-37.56-.289-5.205 1.082-14.276 3.097-19.305 10.512-1.322 1.949-1.792 3.425-3.985 17.406-2.804 17.872-2.903 20.991-2.507 24.839.726 7.042 1.166 11.31 4.413 15.086 8.624 10.029 26.95 4.854 29.247 4.173 4.244-1.258 10.84-3.213 13.46-8.823 1.234-2.639 1.102-5.051-.795-14.702-3.758-19.116-4.238-20.353-3.19-22.447 3.535-7.066 14.742-3.025 24.207-9.597 5.535-3.842 11.772-12.214 12.259-32.873Z" fill="url(#ad)"/><path opacity=".3" d="M59.56 377.949c1.847-3.79-.637-7.282 2.087-11.838 3.471-5.806 9.718-3.836 12.068-8.126 4.019-7.336-11.806-17.564-8.593-29.244 1.534-5.576 6.894-9.613 11.371-11.143 9.941-3.397 16.445 5.256 25.765 2.548 2.209-.642 4.744-1.971 7.308-4.729-2.266 4.783-5.08 7.672-7.735 9.515-9.465 6.572-20.672 2.531-24.208 9.597-1.047 2.093-.567 3.331 3.19 22.447 1.898 9.65 2.03 12.063.796 14.702-2.62 5.609-9.216 7.565-13.46 8.823-1.258.373-7.319 2.087-13.961 1.922 2.963-1.204 4.557-2.802 5.372-4.474Z" fill="url(#ae)"/><path d="M140.866 257.314c4.317 2.191 9.741.178 12.113-4.497 2.373-4.675.796-10.241-3.522-12.432a8.33 8.33 0 0 0-.68-.301 54.783 54.783 0 0 0 1.81-7.801c.248-.001.496-.005.748-.028 4.926-.44 8.834-4.966 8.73-10.111-.104-5.144-4.181-8.958-9.107-8.518-.257.024-.51.064-.761.109a50.322 50.322 0 0 0-2.11-7.45c.226-.132.452-.269.672-.424 4.213-2.953 5.559-8.78 3.007-13.015-2.553-4.235-8.038-5.274-12.252-2.321a9.742 9.742 0 0 0-.62.48 44.52 44.52 0 0 0-5.465-5.1c.138-.227.274-.458.397-.7 2.373-4.675 5.473-9.782 1.122-11.905-10.066-4.912-14.384-.705-16.757 3.97a9.95 9.95 0 0 0-.33.734 44.625 44.625 0 0 0-7.344-1.4c.016-.26.027-.52.022-.784-.104-5.144 1.422-7.928-3.522-8.023-10.781-.208-14.418 4.472-14.314 9.616a9.8 9.8 0 0 0 .054.793 50.29 50.29 0 0 0-7.258 2.695 9.013 9.013 0 0 0-.362-.679c-2.553-4.235-8.038-5.274-12.252-2.321-4.213 2.953-5.56 8.78-3.006 13.015.13.217.274.42.42.62a54.79 54.79 0 0 0-5.228 6.068 8.032 8.032 0 0 0-.645-.372c-4.317-2.191-9.74-.178-12.113 4.497-2.373 4.675-.796 10.241 3.522 12.432.223.114.452.209.68.3a54.763 54.763 0 0 0-1.81 7.802 8.966 8.966 0 0 0-.748.027c-4.926.441-8.834 4.967-8.73 10.112.104 5.144 4.181 8.957 9.107 8.517.257-.023.51-.063.761-.108a50.213 50.213 0 0 0 2.11 7.449c-.226.133-.452.27-.672.424-4.213 2.953-5.56 8.781-3.007 13.016 2.553 4.235 11.003 6.201 15.216 3.248.216-.151-2.545-1.242-2.344-1.408a44.502 44.502 0 0 0 5.465 5.101c-.138.228-.274.458-.397.7-2.373 4.675-.796 10.241 3.522 12.432 4.317 2.192 9.74.178 12.113-4.497a9.95 9.95 0 0 0 .33-.734 44.626 44.626 0 0 0 7.344 1.4c-.015.26-.027.52-.022.784.104 5.144 4.181 8.958 9.107 8.518 4.925-.44 8.834-4.967 8.729-10.111a9.8 9.8 0 0 0-.054-.793 50.286 50.286 0 0 0 7.258-2.695c.112.229.229.457.363.679 2.552 4.234 8.037 5.274 12.251 2.321 4.213-2.954 5.56-8.781 3.007-13.016a8.742 8.742 0 0 0-.42-.62 54.724 54.724 0 0 0 5.228-6.067c.208.131.42.259.644.372Zm-53.817.693c-15.676-7.955-21.401-28.165-12.787-45.138 8.614-16.974 28.305-24.285 43.981-16.33 15.676 7.956 21.401 28.165 12.787 45.139-8.614 16.974-28.305 24.285-43.981 16.329Z" fill="#D8DEE8"/><path d="M151.335 232.255c4.926-.44 8.834-4.967 8.73-10.111-.104-5.144-4.181-8.958-9.107-8.518a8.71 8.71 0 0 0-.761.109 50.288 50.288 0 0 0-2.11-7.45c.226-.132.452-.269.672-.424 4.213-2.953 9.425-10.087 6.451-14.038-5.644-7.498-11.482-4.251-15.696-1.298a9.756 9.756 0 0 0-.62.481 44.451 44.451 0 0 0-5.465-5.101c.138-.227.274-.458.397-.7 1.291-2.544 1.405-5.349.551-7.734a1417.474 1417.474 0 0 0-12.025 21.593c12.507 9.161 16.491 27.217 8.678 42.614-6.621 13.047-19.787 20.375-32.643 19.459-.573 1.487-1.136 2.983-1.75 4.456-1.665 3.997-3.558 7.912-5.453 11.822a43.85 43.85 0 0 0 3.59.527c-.014.26-.026.52-.021.784.104 5.144 3.228 9.514 12.154 9.039 4.938-.262 5.786-5.488 5.682-10.632a9.799 9.799 0 0 0-.055-.793 50.298 50.298 0 0 0 7.259-2.695c.112.229.228.457.362.679 2.553 4.235 11.406 6.033 15.62 3.08 4.213-2.954 2.191-9.539-.362-13.774a8.842 8.842 0 0 0-.419-.62 54.818 54.818 0 0 0 5.227-6.068c.209.131.421.259.644.372 4.318 2.192 9.741.178 12.114-4.497 2.372-4.675.796-10.241-3.522-12.432a7.87 7.87 0 0 0-.681-.3 54.696 54.696 0 0 0 1.811-7.802c.248-.001.496-.005.748-.028Z" fill="#D8DEE8"/><path d="M145.509 257.841c4.318 2.191 9.741.178 12.114-4.497 2.372-4.675.795-10.241-3.522-12.432a8.349 8.349 0 0 0-.681-.301 54.787 54.787 0 0 0 1.811-7.801c.247-.001.495-.005.748-.028 4.925-.44 8.833-4.966 8.729-10.111-.104-5.144-4.181-8.958-9.106-8.518-.258.023-.51.064-.762.109a50.201 50.201 0 0 0-2.11-7.45c.226-.132.452-.269.672-.424 4.213-2.953 5.56-8.78 3.007-13.015-2.553-4.235-8.038-5.274-12.252-2.321a10.1 10.1 0 0 0-.619.48 44.602 44.602 0 0 0-5.466-5.1c.139-.228.275-.458.398-.7 2.372-4.675.795-10.241-3.522-12.432-4.318-2.192-9.741-.178-12.114 4.497-.123.242-.228.488-.33.735a44.524 44.524 0 0 0-7.344-1.401c.016-.26.028-.52.022-.784-.104-5.144-4.181-8.957-9.106-8.518-4.926.44-8.834 4.967-8.73 10.111.005.269.028.532.055.793a50.295 50.295 0 0 0-7.259 2.695 9.012 9.012 0 0 0-.362-.679c-2.552-4.235-8.038-5.274-12.251-2.321-4.214 2.954-5.56 8.781-3.007 13.015.13.217.274.42.42.62a54.791 54.791 0 0 0-5.228 6.068 8.05 8.05 0 0 0-.645-.372c-4.317-2.191-9.74-.178-12.113 4.497-2.373 4.675-.796 10.241 3.522 12.432.223.114.452.209.68.301a54.719 54.719 0 0 0-1.81 7.801 8.978 8.978 0 0 0-.748.027c-4.926.441-8.834 4.967-8.73 10.112.104 5.144 4.181 8.957 9.107 8.517.257-.023.51-.063.761-.108a50.272 50.272 0 0 0 2.11 7.45 9.23 9.23 0 0 0-.672.424c-4.213 2.953-5.56 8.78-3.007 13.015 2.553 4.235 8.038 5.274 12.252 2.321.216-.151.419-.315.62-.481a44.51 44.51 0 0 0 5.466 5.101 10.22 10.22 0 0 0-.398.7c-2.373 4.675-.796 10.241 3.522 12.432 4.317 2.191 9.74.178 12.113-4.497.123-.242.229-.488.33-.735a44.524 44.524 0 0 0 7.344 1.401c-.015.26-.027.52-.022.784.104 5.144 4.181 8.958 9.107 8.517 4.925-.439 8.833-4.966 8.729-10.111a9.807 9.807 0 0 0-.054-.792 50.33 50.33 0 0 0 7.258-2.695c.112.229.229.457.362.678 2.553 4.235 8.038 5.275 12.252 2.322 4.213-2.954 5.559-8.781 3.007-13.016a8.519 8.519 0 0 0-.42-.62 54.724 54.724 0 0 0 5.228-6.067c.209.131.42.259.644.372Zm-53.817.693c-15.676-7.955-21.4-28.164-12.786-45.138 8.614-16.974 28.305-24.285 43.98-16.33 15.676 7.956 21.401 28.165 12.787 45.139-8.614 16.974-28.305 24.284-43.98 16.329Z" fill="#fff"/><path d="M203.522 399.483h-33.245c-21.679 0-39.316-17.637-39.316-39.316v-9.86c0-17.311-8.64-33.544-23.112-43.423-17.196-11.738-31.473-27.349-41.288-45.145-10.143-18.388-15.504-39.162-15.504-60.073 0-34.562 14.133-67.053 39.796-91.488 25.657-24.43 59.766-37.884 96.046-37.884 36.28 0 70.39 13.454 96.046 37.884 25.663 24.436 39.797 56.926 39.797 91.488 0 20.911-5.361 41.685-15.504 60.073-9.816 17.797-24.093 33.407-41.289 45.145-14.471 9.878-23.111 26.111-23.111 43.423v9.86c0 21.679-17.637 39.316-39.316 39.316ZM186.899 73.344c-36.009 0-69.861 13.351-95.322 37.594-25.452 24.236-39.47 56.457-39.47 90.728 0 20.734 5.316 41.332 15.373 59.566 9.737 17.653 23.9 33.139 40.96 44.785 14.76 10.074 23.571 26.631 23.571 44.29v9.86c0 21.1 17.166 38.266 38.266 38.266h33.245c21.099 0 38.266-17.166 38.266-38.266v-9.86c0-17.659 8.811-34.216 23.57-44.29 17.059-11.646 31.224-27.132 40.961-44.785 10.057-18.234 15.373-38.831 15.373-59.566 0-34.271-14.018-66.492-39.471-90.728-25.46-24.243-59.313-37.594-95.322-37.594Z" fill="#fff"/><path d="M248.631 329.321a5.168 5.168 0 1 0 0-10.337 5.168 5.168 0 0 0 0 10.337Zm-39.657 28.71a3.937 3.937 0 1 0 0-7.875 3.938 3.938 0 1 0 0 7.875Z" fill="#fff"/><path d="m208.476 355.531-.638-.834 40.592-31.051.148-.015 59.015-5.986.106 1.045-58.867 5.97-40.356 30.871Z" fill="#fff"/><path d="M309.166 322.624a3.937 3.937 0 1 0-3.013-7.275 3.937 3.937 0 0 0 3.013 7.275Z" fill="#fff"/><path d="M300.804 304.406s-9.629 4.893-9.786 5.674c-.157.781 6.192-.262 8.784-.149 2.593.112 4.725-.744 4.49-1.972-.234-1.228-1.142-4.315-1.142-4.315l-2.346.762Z" fill="url(#af)"/><path d="m300.452 300.435.586 4.847s1.524.607 2.548-.11l.437-5.317-3.571.58Z" fill="url(#ag)"/><path d="m345.799 300.551 1.12 2.011c.313.562.406 1.238.256 1.879-.392 1.672-1.174 4.93-1.515 5.78-.464 1.157-6.696 1.844-6.696 1.844s-.555-.874.738-1.93c1.294-1.056 2.126-1.222 2.582-2.78.457-1.559.762-5.966.762-5.966l2.753-.838Z" fill="url(#ah)"/><path d="M341.137 295.443c.409.364 2.41 7.156 2.41 7.156s.648.926 1.879-.441c1.23-1.367.556-.613.556-.613l-.231-6.68-4.614.578Z" fill="url(#ai)"/><path d="M295.154 203.051a590.912 590.912 0 0 0 4.859 99.149 37.249 37.249 0 0 0 4.182-.087 130.988 130.988 0 0 0 3.568-12.758c1.225-5.422 1.964-10.286 2.491-14.938 1.854-16.377-.319-17.806 1.186-29.943 1.333-10.749 3.228-11.169 5.453-26.43 2.414-16.559.617-19.043-.257-19.941-3.721-3.82-12.46-1.219-21.482 4.948Z" fill="url(#aj)"/><path opacity=".3" d="M316.636 198.104c-3.549-3.644-11.664-1.438-20.235 4.124 9.86 11.911 10.935 19.637 9.753 24.651-1.336 5.666-5.397 7.298-5.382 13.494.019 7.614 6.165 9.631 6.035 17.688-.087 5.328-2.787 5.272-3.425 11.853-.755 7.785 2.773 10.468 1.631 16.229-.492 2.478-1.895 5.716-5.892 9.052.288 2.366.584 4.708.892 7.005a36.586 36.586 0 0 0 4.182-.087c1.101-3.283 2.402-7.6 3.568-12.757 1.225-5.423 1.964-10.287 2.491-14.938 1.854-16.377-.319-17.806 1.186-29.943 1.332-10.749 3.228-11.169 5.453-26.43 2.414-16.56.617-19.044-.257-19.941Z" fill="url(#ak)"/><path d="M301.262 202.808c8.49 13.889 17.647 31.175 25.836 51.865a350.779 350.779 0 0 1 13.973 43.401c.446.231 1.498.691 2.842.492 1.833-.271 2.932-1.579 3.219-1.944a104.421 104.421 0 0 0 .739-23.056c-.292-3.671-.808-9.783-2.9-17.329-2.344-8.453-3.955-8.928-7.013-17.871-3.174-9.282-2.405-11.598-5.445-23.214a165.062 165.062 0 0 0-6.787-20.368l-24.464 8.024Z" fill="url(#al)"/><path d="M291.056 141.408c-6.767-7.372-10.402-7.648-11.542-13.01-1.126-5.304.784-12.777 5.646-15.754.357-.219 4.036-2.392 7.88-.879 5.813 2.289 4.321 9.989 10.171 15.182 4.957 4.401 11.71 3.916 16.281 3.588 11.005-.79 14.139-6.792 19.14-4.433 6.265 2.956 4.146 13.702 10.546 16.029 4.277 1.555 6.496-2.782 12.589-2.579 7.159.238 13.475 6.54 16.281 12.96 5.13 11.735-.605 25.836-7.65 33.54-5.788 6.329-16.365 12.61-23.003 8.986-5.243-2.862-5.267-10.398-10.271-10.925-3.559-.374-4.633 3.321-9.177 4.205-7.462 1.452-14.152-6.647-15.977-8.856-5.201-6.297-3.422-9.023-9.278-20.481-2.313-4.526-5.644-11.045-11.636-17.573Z" fill="url(#am)"/><path d="M231.86 118.645s-1.584-2.217-2.59-3.864c-1.005-1.647-5.697-6.275-5.697-6.275s-.358.734.652 1.909 3.136 3.189 2.647 4.041c-.488.852-1.864 1.603-.871 3.212.993 1.609 2.719.51 3.602 1.801.883 1.29 1.787 2.698 1.787 2.698l.47-3.522Z" fill="url(#an)"/><path d="m232.478 117.199-3.206 5.422c1.113 3.633 3.03 8.678 6.39 14.001 1.482 2.348 6.076 9.237 13.854 14.776 10.589 7.54 29.88 14.575 35.527 6.551 5.039-7.16-3.094-23.03-4.592-25.88-3.031 1.59-8.013 3.697-14.416 4.196-2.098.163-7.56.535-13.713-1.578-11.388-3.911-17.711-13.783-19.844-17.488Z" fill="url(#ao)"/><path d="M268.097 141.424c.532 2.677 8.861 1.241 10.579 6.102.923 2.608-1.035 4.264-1.118 8.694-.092 4.958 2.272 7.774 4.085 11.675 2.655 5.713 2.665 11.314 2.685 22.514.028 15.944-3.498 19.15-.488 24.289 3.917 6.688 13.323 7.115 15.865 7.231 8.695.395 9.726-4.224 19.16-4.775 10.775-.63 12.309 5.226 20.015 2.728 7.039-2.281 9.407-8.351 14.889-7.094 3.425.785 4.334 3.576 7.566 3.274 3.248-.304 6.605-3.522 6.834-6.823.285-4.102-4.2-9.27-11.227-9.278-2.793 1.096-7.422 2.367-12.571.956-8.435-2.313-12.822-10.333-17.695-19.24-3.372-6.162-9.568-17.488-9.642-32.339-.03-6.124 1.005-7.915-.488-11.189-4.847-10.629-23.654-9.043-25.247-8.889-12.814 1.235-23.846 8.931-23.202 12.164Z" fill="url(#ap)"/><path d="m263.895 154.802 23.623 1.03c.259.012.486.198.574.471l11.128 34.515c.16.496-.341 1.734-.809 1.678l-23.355-3.552a.655.655 0 0 1-.526-.453l-11.578-32.217c-.164-.478.486-1.492.943-1.472Z" fill="url(#aq)"/><path d="m263.529 155.647 23.622 1.03c.259.012.487.198.575.471l11.128 34.516c.159.495-.2 1.006-.668.95l-23.496-2.825a.655.655 0 0 1-.527-.453l-11.254-32.722c-.164-.478.162-.987.62-.967Z" fill="url(#ar)"/><path d="m269.988 156.932-.91-2.752c-.083-.248.082-.512.319-.512h8.598c.149 0 .28.107.325.265l.864 3.044c.071.25-.1.503-.334.495l-8.553-.292a.346.346 0 0 1-.309-.248Z" fill="url(#as)"/><path opacity=".3" d="M284.529 184.258c-1.534-5.563.991-9.186-1.586-13.509-3.646-6.114-11.478-3.526-13.913-8.46-.656-1.331-.97-3.313-.085-6.407l-5.416-.235c-.458-.02-.784.489-.62.967l11.254 32.722a.654.654 0 0 0 .527.452l14.28 1.718c-2.544-2.48-3.817-4.987-4.441-7.248Z" fill="url(#at)"/><path d="M301.78 180.125s-3.57-.794-4.947-1.763c-1.376-.969-2.836-2.526-4.866-2.441-2.03.085-4.072 1.239-3.135 1.504.938.264 2.69 2.344 4.028 3.163 1.338.819 4.395.892 4.965.848.569-.045 2.817 1.467 2.817 1.467l1.138-2.778Z" fill="url(#au)"/><path opacity=".3" d="M356.942 199.961c-2.793 1.096-7.422 2.367-12.571.956-8.435-2.312-12.822-10.332-17.695-19.24-3.372-6.161-9.568-17.487-9.641-32.338-.031-6.125 1.004-7.916-.489-11.189a11.203 11.203 0 0 0-.818-1.468c-3.682 2.783-5.11 5.57-5.528 8.017-1.015 5.957 3.774 10.827 1.282 15.965-2.387 4.921-8.289 3.559-9.519 7.777-1.328 4.551 5.203 7.296 5.491 14.327.346 8.439-8.729 12.572-7.139 18.217 1.379 4.892 8.974 4.539 8.97 7.163-.005 3.12.235-3.322-8.97-7.163-2.789-1.164-15.918 8.526-17.514 6.825-.344 2.75-.282 4.633 1.039 6.888 3.917 6.689 13.323 7.116 15.865 7.232 8.695.394 9.726-4.224 19.16-4.776 10.775-.63 12.309 5.227 20.015 2.729 7.039-2.282 9.408-8.352 14.889-7.095 3.425.785 4.334 3.577 7.566 3.275 3.248-.304 6.605-3.523 6.834-6.823.285-4.102-4.2-9.271-11.227-9.279Z" fill="url(#av)"/><path d="m301.688 178.47-3.295 6.55c1.693.927 19.798 10.505 32.92 1.023 1.623-1.172 5.935-4.287 8.259-10.388 2.562-6.725 1.125-12.977.193-17.038-2.308-10.052-8.834-20.597-18.093-24.834-3.537-1.618-7.736-2.437-11.685-3.206-3.35-.654-8.614-1.454-8.726-.887-.055.276 1.169.63 2.018 1.167 5.217 3.3-1.407 16.927 4.725 23.462 5.874 6.26 13.497 5.226 14.725 10.9.572 2.637-.611 5.01-1.137 6.067-2.939 5.898-10.85 8.538-19.904 7.184Z" fill="url(#aw)"/><path d="M289.4 119.459s2.126 6.911 4.774 7.987c2.648 1.076 6.834 2.311 7.36 2.79.525.478-14.068 5.776-22.251 3.338 2.331-1.141 2.955-1.506 2.955-1.506.623-.364 1.784-1.043 2.874-2.122.741-.734 1.902-2.1 2.776-4.371l-.765-3.923 2.277-2.193Z" fill="url(#ax)"/><path d="M290.355 122.476s-1.233 3.063-4.155 2.593c-2.617-.421-2.484-7.781-.706-9.034.593-.418 1.796-.577 2.689-.211.628.256 2.497 1.968 2.08 4.475.577-.343 1.151-.289 1.35.019.253.391-.157 1.1-.249 1.261-.322.557-.79.802-1.009.897Z" fill="url(#ay)"/><path d="m303.358 428.582 34.587-26.562-5.836-7.222-34.526 26.639 5.775 7.145Z" fill="url(#az)"/><path d="m313.74 444.844 38.174-29.032-10.575-13.086-38.051 29.184 10.452 12.934Z" fill="url(#aA)"/><path d="M327.601 478.3h67.38l-14.631-36.533-27.07-23.728-38.051 29.183 12.372 31.078Z" fill="url(#aB)"/><path d="m247.996 333.611-1.788-2.213 1.761-1.431 49.259 60.954 3.188-.476 1.196-2.948-49.326-61.036 1.768-1.436 1.792 2.219 77.123 39.017.54 24.291-18.118 13.996-4.402 3.401-17.87 13.805-23.441-6.124-21.682-82.019Z" fill="url(#aC)"/><defs><linearGradient id="a" x1="371.852" y1="169.6" x2="153.012" y2="444.322" gradientUnits="userSpaceOnUse"><stop stop-color="#FF9085"/><stop offset="1" stop-color="#FB6FBB"/></linearGradient><linearGradient id="d" x1="374.845" y1="274.746" x2="197.58" y2="419.582" gradientUnits="userSpaceOnUse"><stop offset=".004" stop-color="#E38DDD"/><stop offset="1" stop-color="#9571F6"/></linearGradient><linearGradient id="f" x1="354.114" y1="311.477" x2="159.715" y2="590.925" gradientUnits="userSpaceOnUse"><stop stop-color="#FF9085"/><stop offset="1" stop-color="#FB6FBB"/></linearGradient><linearGradient id="h" x1="184.081" y1="478.954" x2="186.484" y2="459.728" gradientUnits="userSpaceOnUse"><stop offset=".004" stop-color="#26264F"/><stop offset="1" stop-color="#444B8C"/></linearGradient><linearGradient id="i" x1="174.197" y1="461.431" x2="198.229" y2="418.172" gradientUnits="userSpaceOnUse"><stop offset=".004" stop-color="#26264F"/><stop offset="1" stop-color="#444B8C"/></linearGradient><linearGradient id="j" x1="147.018" y1="440.931" x2="226.781" y2="440.931" gradientUnits="userSpaceOnUse"><stop offset=".004" stop-color="#26264F"/><stop offset="1" stop-color="#444B8C"/></linearGradient><linearGradient id="k" x1="176.484" y1="449.61" x2="200.216" y2="403.948" gradientUnits="userSpaceOnUse"><stop offset=".004" stop-color="#26264F"/><stop offset="1" stop-color="#444B8C"/></linearGradient><linearGradient id="l" x1="143.444" y1="427.488" x2="230.315" y2="427.488" gradientUnits="userSpaceOnUse"><stop offset=".004" stop-color="#26264F"/><stop offset="1" stop-color="#444B8C"/></linearGradient><linearGradient id="m" x1="142.157" y1="411.791" x2="231.641" y2="411.791" gradientUnits="userSpaceOnUse"><stop offset=".004" stop-color="#26264F"/><stop offset="1" stop-color="#444B8C"/></linearGradient><linearGradient id="n" x1="184.677" y1="405.042" x2="193.489" y2="363.786" gradientUnits="userSpaceOnUse"><stop offset=".004" stop-color="#26264F"/><stop offset="1" stop-color="#444B8C"/></linearGradient><linearGradient id="o" x1="167.754" y1="174.839" x2="342.582" y2="452.401" gradientUnits="userSpaceOnUse"><stop stop-color="#FCB148"/><stop offset=".052" stop-color="#FDBA46"/><stop offset=".142" stop-color="#FFC244"/><stop offset=".318" stop-color="#FFC444"/><stop offset=".485" stop-color="#FDB946"/><stop offset=".775" stop-color="#F99C4D"/><stop offset=".866" stop-color="#F8924F"/><stop offset="1" stop-color="#F8924F"/></linearGradient><linearGradient id="p" x1="135.816" y1="388.558" x2="171.464" y2="284.417" gradientUnits="userSpaceOnUse"><stop offset=".494" stop-color="#EBEFF2"/><stop offset="1" stop-color="#fff"/></linearGradient><linearGradient id="q" x1="169.896" y1="400.225" x2="205.545" y2="296.083" gradientUnits="userSpaceOnUse"><stop offset=".494" stop-color="#EBEFF2"/><stop offset="1" stop-color="#fff"/></linearGradient><linearGradient id="r" x1="123.402" y1="384.309" x2="159.05" y2="280.168" gradientUnits="userSpaceOnUse"><stop offset=".494" stop-color="#EBEFF2"/><stop offset="1" stop-color="#fff"/></linearGradient><linearGradient id="s" x1="173.889" y1="112.275" x2="139.042" y2="399.464" gradientUnits="userSpaceOnUse"><stop stop-color="#FCB148"/><stop offset=".052" stop-color="#FDBA46"/><stop offset=".142" stop-color="#FFC244"/><stop offset=".318" stop-color="#FFC444"/><stop offset=".485" stop-color="#FDB946"/><stop offset=".775" stop-color="#F99C4D"/><stop offset=".866" stop-color="#F8924F"/><stop offset="1" stop-color="#F8924F"/></linearGradient><linearGradient id="u" x1="144.463" y1="292.841" x2="244.491" y2="77.928" gradientUnits="userSpaceOnUse"><stop offset=".005" stop-color="#D8DEE8"/><stop offset="1" stop-color="#F4F7FA"/></linearGradient><linearGradient id="w" x1="371.852" y1="169.6" x2="153.012" y2="444.322" gradientUnits="userSpaceOnUse"><stop stop-color="#FF9085"/><stop offset="1" stop-color="#FB6FBB"/></linearGradient><linearGradient id="y" x1="115.212" y1="196.475" x2="285.247" y2="196.475" gradientUnits="userSpaceOnUse"><stop stop-color="#FCB148"/><stop offset=".052" stop-color="#FDBA46"/><stop offset=".142" stop-color="#FFC244"/><stop offset=".318" stop-color="#FFC444"/><stop offset=".485" stop-color="#FDB946"/><stop offset=".775" stop-color="#F99C4D"/><stop offset=".866" stop-color="#F8924F"/><stop offset="1" stop-color="#F8924F"/></linearGradient><linearGradient id="P" x1="71.121" y1="442.833" x2="76.908" y2="441.847" gradientUnits="userSpaceOnUse"><stop offset=".004" stop-color="#F36F56"/><stop offset="1" stop-color="#FFC444"/></linearGradient><linearGradient id="Q" x1="78.242" y1="417.081" x2="72.14" y2="472.912" gradientUnits="userSpaceOnUse"><stop stop-color="#444B8C"/><stop offset=".996" stop-color="#26264F"/></linearGradient><linearGradient id="R" x1="89.605" y1="392.158" x2="39.83" y2="433.061" gradientUnits="userSpaceOnUse"><stop stop-color="#AB316D"/><stop offset="1" stop-color="#792D3D"/></linearGradient><linearGradient id="S" x1="30.543" y1="410.719" x2="12.51" y2="457.033" gradientUnits="userSpaceOnUse"><stop stop-color="#444B8C"/><stop offset=".996" stop-color="#26264F"/></linearGradient><linearGradient id="T" x1="4.491" y1="463.458" x2="11.387" y2="464.106" gradientUnits="userSpaceOnUse"><stop offset=".004" stop-color="#F36F56"/><stop offset="1" stop-color="#FFC444"/></linearGradient><linearGradient id="U" x1="112.466" y1="427.104" x2="50.961" y2="406.352" gradientUnits="userSpaceOnUse"><stop stop-color="#AB316D"/><stop offset="1" stop-color="#792D3D"/></linearGradient><linearGradient id="V" x1="48.674" y1="392.03" x2="13.185" y2="463.22" gradientUnits="userSpaceOnUse"><stop stop-color="#AB316D"/><stop offset="1" stop-color="#792D3D"/></linearGradient><linearGradient id="W" x1="44.231" y1="391.734" x2="9.479" y2="461.445" gradientUnits="userSpaceOnUse"><stop stop-color="#AB316D"/><stop offset="1" stop-color="#792D3D"/></linearGradient><linearGradient id="X" x1="70.682" y1="318.019" x2="72.004" y2="260.679" gradientUnits="userSpaceOnUse"><stop stop-color="#FF9085"/><stop offset="1" stop-color="#FB6FBB"/></linearGradient><linearGradient id="Y" x1="77.265" y1="279.93" x2="76.416" y2="292.309" gradientUnits="userSpaceOnUse"><stop offset=".004" stop-color="#F36F56"/><stop offset="1" stop-color="#FFC444"/></linearGradient><linearGradient id="Z" x1="52.879" y1="301.661" x2="53.306" y2="287.046" gradientUnits="userSpaceOnUse"><stop stop-color="#444B8C"/><stop offset=".996" stop-color="#26264F"/></linearGradient><linearGradient id="aa" x1="55.265" y1="288.112" x2="59.277" y2="348.117" gradientUnits="userSpaceOnUse"><stop offset=".004" stop-color="#F36F56"/><stop offset="1" stop-color="#FFC444"/></linearGradient><linearGradient id="ab" x1="44.848" y1="294.808" x2="59.031" y2="303.506" gradientUnits="userSpaceOnUse"><stop offset=".004" stop-color="#F36F56"/><stop offset="1" stop-color="#FFC444"/></linearGradient><linearGradient id="ac" x1="111.78" y1="291.469" x2="109.383" y2="299.129" gradientUnits="userSpaceOnUse"><stop offset=".004" stop-color="#F36F56"/><stop offset="1" stop-color="#FFC444"/></linearGradient><linearGradient id="ad" x1="25.316" y1="398.042" x2="98.635" y2="290.906" gradientUnits="userSpaceOnUse"><stop stop-color="#FF9085"/><stop offset="1" stop-color="#FB6FBB"/></linearGradient><linearGradient id="ae" x1="88.189" y1="316.01" x2="73.349" y2="393.382" gradientUnits="userSpaceOnUse"><stop stop-color="#FF9085"/><stop offset="1" stop-color="#FB6FBB"/></linearGradient><linearGradient id="af" x1="295.951" y1="287.326" x2="298.634" y2="321.473" gradientUnits="userSpaceOnUse"><stop offset=".004" stop-color="#26264F"/><stop offset="1" stop-color="#444B8C"/></linearGradient><linearGradient id="ag" x1="302.323" y1="306.381" x2="301.837" y2="271.11" gradientUnits="userSpaceOnUse"><stop stop-color="#893976"/><stop offset="1" stop-color="#311944"/></linearGradient><linearGradient id="ah" x1="341.133" y1="283.333" x2="343.823" y2="317.569" gradientUnits="userSpaceOnUse"><stop offset=".004" stop-color="#26264F"/><stop offset="1" stop-color="#444B8C"/></linearGradient><linearGradient id="ai" x1="343.753" y1="305.742" x2="343.266" y2="270.476" gradientUnits="userSpaceOnUse"><stop stop-color="#893976"/><stop offset="1" stop-color="#311944"/></linearGradient><linearGradient id="aj" x1="294.789" y1="249.269" x2="318.103" y2="249.269" gradientUnits="userSpaceOnUse"><stop stop-color="#AB316D"/><stop offset="1" stop-color="#792D3D"/></linearGradient><linearGradient id="ak" x1="296.401" y1="249.271" x2="318.103" y2="249.271" gradientUnits="userSpaceOnUse"><stop stop-color="#AB316D"/><stop offset="1" stop-color="#792D3D"/></linearGradient><linearGradient id="al" x1="301.262" y1="246.7" x2="348.194" y2="246.7" gradientUnits="userSpaceOnUse"><stop stop-color="#AB316D"/><stop offset="1" stop-color="#792D3D"/></linearGradient><linearGradient id="am" x1="325.432" y1="135.948" x2="355.209" y2="181.403" gradientUnits="userSpaceOnUse"><stop offset=".004" stop-color="#26264F"/><stop offset="1" stop-color="#444B8C"/></linearGradient><linearGradient id="an" x1="223.511" y1="115.337" x2="231.86" y2="115.337" gradientUnits="userSpaceOnUse"><stop stop-color="#893976"/><stop offset="1" stop-color="#311944"/></linearGradient><linearGradient id="ao" x1="262.982" y1="153.575" x2="300.175" y2="286.849" gradientUnits="userSpaceOnUse"><stop stop-color="#AA80F9"/><stop offset=".996" stop-color="#6165D7"/></linearGradient><linearGradient id="ap" x1="306.341" y1="141.474" x2="343.534" y2="274.749" gradientUnits="userSpaceOnUse"><stop stop-color="#AA80F9"/><stop offset=".996" stop-color="#6165D7"/></linearGradient><linearGradient id="aq" x1="284.707" y1="167.678" x2="270.098" y2="191.894" gradientUnits="userSpaceOnUse"><stop offset=".004" stop-color="#6165D7"/><stop offset="1" stop-color="#AA80F9"/></linearGradient><linearGradient id="ar" x1="294.64" y1="166.807" x2="258.446" y2="186.072" gradientUnits="userSpaceOnUse"><stop stop-color="#FF9085"/><stop offset="1" stop-color="#FB6FBB"/></linearGradient><linearGradient id="as" x1="278.186" y1="142.291" x2="273.891" y2="156.349" gradientUnits="userSpaceOnUse"><stop offset=".004" stop-color="#26264F"/><stop offset="1" stop-color="#444B8C"/></linearGradient><linearGradient id="at" x1="293.241" y1="164.487" x2="257.23" y2="183.654" gradientUnits="userSpaceOnUse"><stop stop-color="#FF9085"/><stop offset="1" stop-color="#FB6FBB"/></linearGradient><linearGradient id="au" x1="288.598" y1="179.41" x2="301.78" y2="179.41" gradientUnits="userSpaceOnUse"><stop stop-color="#893976"/><stop offset="1" stop-color="#311944"/></linearGradient><linearGradient id="av" x1="282.624" y1="179.318" x2="368.182" y2="179.318" gradientUnits="userSpaceOnUse"><stop stop-color="#AA80F9"/><stop offset=".996" stop-color="#6165D7"/></linearGradient><linearGradient id="aw" x1="310.323" y1="140.363" x2="347.516" y2="273.638" gradientUnits="userSpaceOnUse"><stop stop-color="#AA80F9"/><stop offset=".996" stop-color="#6165D7"/></linearGradient><linearGradient id="ax" x1="289.937" y1="133.066" x2="301.417" y2="105.636" gradientUnits="userSpaceOnUse"><stop stop-color="#893976"/><stop offset="1" stop-color="#311944"/></linearGradient><linearGradient id="ay" x1="285.596" y1="121.698" x2="311.088" y2="98.007" gradientUnits="userSpaceOnUse"><stop stop-color="#893976"/><stop offset="1" stop-color="#311944"/></linearGradient><linearGradient id="az" x1="299.307" y1="343.972" x2="412.696" y2="760.211" gradientUnits="userSpaceOnUse"><stop stop-color="#444B8C"/><stop offset=".996" stop-color="#26264F"/></linearGradient><linearGradient id="aA" x1="305.387" y1="342.315" x2="418.776" y2="758.553" gradientUnits="userSpaceOnUse"><stop stop-color="#444B8C"/><stop offset=".996" stop-color="#26264F"/></linearGradient><linearGradient id="aB" x1="317.449" y1="324.53" x2="449.359" y2="808.758" gradientUnits="userSpaceOnUse"><stop stop-color="#444B8C"/><stop offset=".996" stop-color="#26264F"/></linearGradient><linearGradient id="aC" x1="289.028" y1="346.772" x2="402.417" y2="763.01" gradientUnits="userSpaceOnUse"><stop stop-color="#444B8C"/><stop offset=".996" stop-color="#26264F"/></linearGradient></defs></svg>