<svg width="800" height="800" viewBox="0 0 64 64" data-name="Layer 1" id="Layer_1" xmlns="http://www.w3.org/2000/svg"><defs><style>.cls-3{fill:#a3cef1}.cls-5{fill:#274c77}</style></defs><path d="M36 22v-2.81a9.056 9.056 0 0 0 2.85-2.26c-.26-.58-.25-1.27.08-1.87.34-.59.92-.94 1.54-1a9.166 9.166 0 0 0 0-6.14c-.62-.06-1.21-.41-1.54-1-.34-.59-.34-1.29-.08-1.87-1.32-1.57-3.14-2.68-5.22-3.06-.36.52-.96.86-1.63.86s-1.27-.34-1.63-.86c-2.08.39-3.9 1.5-5.22 3.06.26.58.25 1.27-.08 1.87-.34.59-.92.94-1.54 1a9.166 9.166 0 0 0 0 6.14c.62.06 1.21.41 1.54 1 .34.59.34 1.29.08 1.87.78.94 1.75 1.7 2.85 2.26V22" style="fill:#ffbc0a"/><path class="cls-5" d="M32 62h-3l-2-2H10V36h4v18s12.15-3 18 8Zm18-8V36h4v24H37l-2 2h-3c5.85-11 18-8 18-8Z"/><path d="M32 62c-5.85-11-18-8-18-8V33l6-2v19c6.63 0 12 5.37 12 12Zm12-31 6 2v21s-12.15-3-18 8c0-6.63 5.37-12 12-12V31Z" style="fill:#6096ba"/><path class="cls-3" d="M32 42c0-6.63-5.37-12-12-12v20c6.63 0 12 5.37 12 12 0-6.63 5.37-12 12-12V30c-6.63 0-12 5.37-12 12Z"/><circle class="cls-3" cx="32" cy="11" r="5"/><rect class="cls-5" height="4" rx="1" ry="1" width="10" x="27" y="22"/><path d="M21 17h2v2h-2zm-3-7h2v2h-2zm-4 3h2v2h-2zm-3 4h2v2h-2zm0 5h2v2h-2zm0 6h2v2h-2zm33-18h2v2h-2zm4 3h2v2h-2zm3 4h2v2h-2zm0 5h2v2h-2zm0 6h2v2h-2zm-30-7h2v2h-2zm0 4h2v2h-2zm20-8h2v2h-2zm0 4h2v2h-2zm0 4h2v2h-2zm-10 3h2v2h-2zm0 4h2v2h-2z" style="fill:#f76c5e"/></svg>