<svg width="800" height="800" viewBox="0 -18 1060 1060" class="icon" xmlns="http://www.w3.org/2000/svg"><path d="m778.87 900.027-78.926 104.541a51.232 51.232 0 0 1-69.233 10.385L457.63 882.72a155.774 155.774 0 0 1-12.462 20.077 161.313 161.313 0 0 1-225.699 28.386 161.313 161.313 0 0 1-34.616-225.007 155.774 155.774 0 0 1 15.23-18L20.77 553.862a51.232 51.232 0 0 1-10.385-69.233l75.464-103.85a168.236 168.236 0 0 0 26.308 24.232 161.313 161.313 0 0 0 225.7-28.385A161.313 161.313 0 0 0 303.24 151.62a168.236 168.236 0 0 0-30.463-18l85.157-112.85a51.232 51.232 0 0 1 69.233-10.385l175.851 128.08a161.313 161.313 0 0 1 222.93-24.23 161.313 161.313 0 0 1 38.078 220.852l174.467 132.927a51.232 51.232 0 0 1 10.384 69.233L969.26 646.635a168.928 168.928 0 0 0-20.77-18.693 158.543 158.543 0 1 0-191.083 253.392 168.928 168.928 0 0 0 21.462 18.693z" fill="#5D9CEC"/><path d="M547.632 249.238a172.39 167.543 0 1 0 344.78 0 172.39 167.543 0 1 0-344.78 0Z" fill="#FFCE54"/></svg>