<svg width="32" height="33" fill="none" xmlns="http://www.w3.org/2000/svg"><path fill-rule="evenodd" clip-rule="evenodd" d="m16 3.657 16 9.255v9.877l-16-9.255V3.657Z" fill="#37BEFF"/><path fill-rule="evenodd" clip-rule="evenodd" d="M16 3.657 0 12.912v9.877l16-9.255V3.657Z" fill="#404F54"/><path fill-rule="evenodd" clip-rule="evenodd" d="M16 0c6.111 0 11.068 4.963 11.068 11.083S22.11 22.166 16 22.166c-6.112 0-11.068-4.963-11.068-11.083S9.888 0 16 0Z" fill="#CCC"/><path fill-rule="evenodd" clip-rule="evenodd" d="M16 0c6.114 0 11.072 4.963 11.072 11.083S22.114 22.166 16 22.166c-3.51-2.365-4.961-7.13-4.961-11.077S12.49 2.37 15.998 0Z" fill="#E5E5E5"/><path fill-rule="evenodd" clip-rule="evenodd" d="m16 32.043 16-9.254v-9.877l-16 9.254v9.877Z" fill="#37BEFF"/><path fill-rule="evenodd" clip-rule="evenodd" d="M16 32.043 0 22.79v-9.877l16 9.254v9.877Z" fill="#404F54"/></svg>