<svg width="20" height="20" fill="none" xmlns="http://www.w3.org/2000/svg"><g clip-path="url(#a)"><path d="M17 0H3a3 3 0 0 0-3 3v14a3 3 0 0 0 3 3h14a3 3 0 0 0 3-3V3a3 3 0 0 0-3-3Z" fill="#37AEE2"/><path d="M7.773 15.781c-.43 0-.39-.156-.507-.547l-1.25-4.101 9.57-5.625" fill="#C8DAEA"/><path d="M7.773 15.781c.274 0 .43-.156.625-.312l1.758-1.68-2.187-1.328" fill="#A9C9DD"/><path d="m7.969 12.461 5.273 3.867c.547.352 1.016.156 1.172-.547l2.149-10.078c.195-.86-.352-1.25-.938-.976L3.085 9.57c-.82.313-.82.82-.155 1.016l3.242 1.016 7.422-4.727c.351-.195.664-.117.43.156" fill="#F6FBFE"/></g><defs><clipPath id="a"><path fill="#fff" d="M0 0h20v20H0z"/></clipPath></defs></svg>