<svg width="82" height="6" fill="none" xmlns="http://www.w3.org/2000/svg"><path d="M70.264.152c.093.145.176.294.25.449.036.126.06.255.072.385l-.296.27c-3.42-.14-6.87-.148-10.32-.106-3.448.042-6.892.082-10.337.291.183.008.366.017.55.023 2.944.088 5.888.169 8.832.266 1.182.039 2.361.117 3.543.172 2.689.125 5.38.233 8.069.372 2.135.11 4.268.25 6.401.388 1.28.082 2.557.18 3.834.276.275.02.547.06.844.093.044.124.11.24.197.344.163.143.085.282.047.423a2.646 2.646 0 0 1-.157.358c-.228-.009-.427-.011-.624-.025l-3.984-.285a2.13 2.13 0 0 0-.526-.013 7.695 7.695 0 0 1-1.803.016c-2.919-.12-5.841-.156-8.764-.177-2.847-.02-5.693-.066-8.54-.062-3.35.004-6.7.044-10.049.077-2.014.02-4.03.045-6.044.088-1.61.035-3.22.092-4.83.153-2.667.1-5.332.207-7.998.32-1.836.077-3.672.157-5.504.254-1.507.079-3.014.184-4.518.276-.929.057-1.858.103-2.786.167-1.755.123-3.51.251-5.263.384a171.79 171.79 0 0 0-3.375.282c-.823.054-1.64.172-2.442.352-.41.106-.628-.018-.633-.335 0-.093.018-.186.02-.28 0-.073-.007-.146-.014-.253-.214.015-.405.03-.596.041-.15.014-.302.02-.453.019-.467-.016-.587-.103-.677-.468l-.057-.22a5.202 5.202 0 0 0-1.07.077c-.198.03-.392.074-.59.096-.334.04-.546-.063-.606-.3a3.89 3.89 0 0 1-.061-.458c.297-.153.625-.25.964-.283a35.646 35.646 0 0 1 3.862-.522 886.122 886.122 0 0 1 10.901-.795c1.38-.091 2.76-.171 4.139-.264 1.906-.128 3.81-.264 5.715-.396 1.305-.09 2.609-.182 3.913-.273 2.432-.17 4.864-.347 7.297-.512.977-.066 1.958-.106 2.938-.162C40.94.608 42.144.525 43.35.47c2.012-.092 4.024-.165 6.036-.25C53.664.044 57.944 0 62.23.003c1.662 0 3.325.013 4.987.04.998.015 2.003.07 3.048.11ZM19.006 3.187c.714.064 7.903-.188 8.828-.28.036-.004.066-.04.099-.062-.008-.154-.117-.249-.324-.246a17.67 17.67 0 0 0-1.055.04c-1.253.087-2.504.183-3.756.275l-3.792.273Z" fill="#0A8080"/></svg>