<svg width="20" height="20" fill="none" xmlns="http://www.w3.org/2000/svg"><g clip-path="url(#a)"><path d="M6.938 0h6.135C18.677 0 20 1.333 20 6.938v6.135C20 18.677 18.667 20 13.062 20H6.928C1.323 20 0 18.667 0 13.062V6.928C0 1.333 1.333 0 6.938 0Z" fill="#5181B8"/><mask id="b" style="mask-type:luminance" maskUnits="userSpaceOnUse" x="0" y="0" width="20" height="20"><path d="M6.938 0h6.135C18.677 0 20 1.333 20 6.938v6.135C20 18.677 18.667 20 13.062 20H6.928C1.323 20 0 18.667 0 13.062V6.928C0 1.333 1.333 0 6.938 0Z" fill="#fff"/></mask><g mask="url(#b)"><path d="M-.52-.52h21.04v21.04H-.52V-.52Z" fill="#5181B8"/></g><path fill-rule="evenodd" clip-rule="evenodd" d="M16.06 7.04c.089-.297 0-.505-.416-.505h-1.386c-.357 0-.515.188-.604.396 0 0-.703 1.722-1.703 2.831-.327.327-.466.426-.644.426-.09 0-.218-.099-.218-.396V7.04c0-.357-.099-.505-.396-.505H8.515c-.218 0-.357.168-.357.316 0 .337.496.416.555 1.347v2.04c0 .445-.08.524-.257.524-.466 0-1.614-1.722-2.288-3.703-.138-.366-.267-.524-.623-.524H4.158c-.396 0-.475.188-.475.396 0 .366.466 2.188 2.188 4.594 1.149 1.643 2.763 2.534 4.228 2.534.881 0 .99-.198.99-.534v-1.248c0-.396.08-.475.367-.475.207 0 .554.099 1.376.891.94.94 1.099 1.366 1.623 1.366h1.387c.396 0 .594-.198.475-.584-.129-.386-.574-.95-1.168-1.623-.327-.387-.812-.793-.95-1-.209-.268-.15-.387 0-.614 0-.01 1.692-2.386 1.86-3.198Z" fill="#fff"/></g><defs><clipPath id="a"><path fill="#fff" d="M0 0h20v20H0z"/></clipPath></defs></svg>